<?xml version="1.0" encoding="utf-8"?>
<!DOCTYPE svg PUBLIC "-//W3C//DTD SVG 1.1//EN" "http://www.w3.org/Graphics/SVG/1.1/DTD/svg11.dtd">
<svg version="1.1" xmlns="http://www.w3.org/2000/svg" xmlns:xlink="http://www.w3.org/1999/xlink" x="0px" y="0px"
	 width="50px" height="50px" viewBox="0 0 50 50" enable-background="new 0 0 50 50" xml:space="preserve">
<g>
	<path fill="#FFFFFF" d="M25,49.008C11.762,49.008,0.992,38.238,0.992,25C0.992,11.762,11.762,0.992,25,0.992
		c13.238,0,24.008,10.77,24.008,24.008C49.008,38.238,38.238,49.008,25,49.008z"/>
	<path d="M25,1.984c12.691,0,23.016,10.325,23.016,23.016c0,12.691-10.324,23.016-23.016,23.016
		C12.309,48.016,1.984,37.691,1.984,25C1.984,12.309,12.309,1.984,25,1.984 M25,0C11.193,0,0,11.193,0,25c0,13.807,11.193,25,25,25
		c13.807,0,25-11.193,25-25C50,11.193,38.807,0,25,0L25,0z"/>
</g>
</svg>
