<?xml version="1.0" encoding="utf-8"?>
<!-- Generator: Adobe Illustrator 15.0.0, SVG Export Plug-In . SVG Version: 6.00 Build 0)  -->
<!DOCTYPE svg PUBLIC "-//W3C//DTD SVG 1.1//EN" "http://www.w3.org/Graphics/SVG/1.1/DTD/svg11.dtd">
<svg version="1.1" id="Capa_1" xmlns="http://www.w3.org/2000/svg" xmlns:xlink="http://www.w3.org/1999/xlink" x="0px" y="0px"
	 width="50px" height="50px" viewBox="0 0 50 50" enable-background="new 0 0 50 50" xml:space="preserve">
<g>
	<path d="M8.705,25.012c-0.09,4.303,2.873,8.406,6.949,9.746c3.838,1.289,8.559,0.324,11.113-2.963
		c1.863-2.303,2.289-5.375,2.086-8.243c-3.287-0.028-6.574-0.02-9.857-0.015c-0.006,1.171,0,2.338,0.006,3.508
		c1.967,0.055,3.938,0.029,5.904,0.07c-0.496,1.703-1.629,3.287-3.346,3.902c-3.318,1.461-7.551-0.449-8.594-3.928
		c-1.26-3.332,0.803-7.354,4.207-8.322c2.111-0.743,4.287,0.094,6.094,1.19c0.916-0.855,1.771-1.771,2.613-2.696
		c-2.053-1.719-4.689-2.771-7.402-2.539C13.158,14.785,8.502,19.696,8.705,25.012z"/>
	<path d="M35.252,20.583c-0.01,0.979-0.02,1.964-0.023,2.942c-0.984,0.011-1.963,0.016-2.943,0.021c0,0.979,0,1.954,0,2.933
		c0.979,0.007,1.965,0.011,2.943,0.021c0.01,0.979,0.01,1.959,0.02,2.943c0.975,0,1.955-0.004,2.934,0
		c0.006-0.984,0.01-1.963,0.02-2.947c0.98-0.006,1.965-0.01,2.943-0.017c0-0.979,0-1.952,0-2.933
		c-0.979-0.005-1.963-0.01-2.943-0.021c-0.004-0.979-0.014-1.964-0.02-2.942C37.201,20.583,36.229,20.583,35.252,20.583z"/>
	<g>
		<path d="M8.705,25.012c-0.203-5.314,4.453-10.227,9.773-10.29c2.713-0.231,5.35,0.822,7.402,2.539
			c-0.842,0.926-1.697,1.841-2.613,2.697c-1.807-1.099-3.982-1.935-6.094-1.191c-3.404,0.97-5.469,4.991-4.209,8.323
			c1.043,3.479,5.277,5.389,8.594,3.928c1.717-0.615,2.85-2.201,3.348-3.904C22.938,27.074,20.967,27.1,19,27.046
			c-0.006-1.173-0.01-2.338-0.006-3.509c3.283-0.006,6.57-0.016,9.859,0.015c0.199,2.868-0.223,5.94-2.088,8.243
			c-2.555,3.287-7.273,4.252-11.113,2.963C11.578,33.418,8.615,29.313,8.705,25.012z"/>
		<path d="M35.252,20.583c0.977,0,1.949,0,2.928,0c0.008,0.979,0.016,1.964,0.021,2.942c0.979,0.011,1.963,0.016,2.943,0.021
			c0,0.979,0,1.954,0,2.933c-0.98,0.007-1.963,0.011-2.943,0.017c-0.01,0.983-0.014,1.963-0.021,2.947c-0.979-0.007-1.959,0-2.934,0
			c-0.008-0.984-0.008-1.963-0.02-2.943c-0.979-0.01-1.963-0.014-2.943-0.021c0-0.979,0-1.952,0-2.934
			c0.98-0.005,1.961-0.01,2.943-0.02C35.232,22.547,35.242,21.562,35.252,20.583z"/>
	</g>
</g>
</svg>
