<?xml version="1.0" encoding="utf-8"?>
<!-- Generator: Adobe Illustrator 15.0.0, SVG Export Plug-In . SVG Version: 6.00 Build 0)  -->
<!DOCTYPE svg PUBLIC "-//W3C//DTD SVG 1.1//EN" "http://www.w3.org/Graphics/SVG/1.1/DTD/svg11.dtd">
<svg version="1.1" id="Capa_1" xmlns="http://www.w3.org/2000/svg" xmlns:xlink="http://www.w3.org/1999/xlink" x="0px" y="0px"
	 width="50px" height="50px" viewBox="0 0 50 50" enable-background="new 0 0 50 50" xml:space="preserve">
<circle cx="25" cy="25" r="6"/>
<path d="M34.7,25c0,5.3-4.3,9.7-9.7,9.7c-5.4,0-9.7-4.3-9.7-9.7c0-0.8,0.1-1.6,0.3-2.4h-2.7v13.2c0,0.7,0.6,1.3,1.3,1.3h21.6
	c0.7,0,1.3-0.6,1.3-1.3V22.6H34.4C34.6,23.4,34.7,24.2,34.7,25z"/>
<path d="M35.9,12.8H32.3c-0.7,0-1.3,0.6-1.3,1.3v3.6c0,0.7,0.6,1.3,1.3,1.3H35.9c0.699,0,1.3-0.6,1.3-1.3v-3.6
	C37.1,13.4,36.6,12.8,35.9,12.8z"/>
<path d="M25,0C11.2,0,0,11.2,0,25s11.2,25,25,25s25-11.2,25-25S38.8,0,25,0z M40.7,37.3c0,1.9-1.5,3.5-3.5,3.5H12.7
	c-1.9,0-3.5-1.5-3.5-3.5V12.7c0-1.9,1.5-3.5,3.5-3.5h24.5c1.899,0,3.5,1.5,3.5,3.5V37.3z"/>
<path fill="#AF20A8" d="M-8.797,7.492h-24.5c-2,0-3.5,1.6-3.5,3.5v24.6c0,2,1.6,3.5,3.5,3.5h24.5c2,0,3.5-1.6,3.5-3.5v-24.6
	C-5.297,8.992-6.897,7.492-8.797,7.492z M-20.997,17.291c3.313,0,6,2.688,6,6c0,3.314-2.687,6-6,6s-6-2.686-6-6
	C-26.997,19.979-24.311,17.291-20.997,17.291z M-8.897,34.092c0,0.699-0.6,1.299-1.3,1.299h-21.6c-0.7,0-1.3-0.6-1.3-1.299v-13.2
	h2.7c-0.2,0.8-0.3,1.601-0.3,2.399c0,5.4,4.3,9.701,9.7,9.701c5.4,0,9.7-4.4,9.7-9.701c0-0.799-0.101-1.6-0.3-2.399h2.699V34.092z
	 M-8.797,15.992c0,0.7-0.601,1.299-1.3,1.299h-3.601c-0.7,0-1.3-0.6-1.3-1.299v-3.6c0-0.7,0.6-1.3,1.3-1.3h3.601
	c0.699,0,1.199,0.6,1.3,1.3V15.992z"/>
</svg>
