<?xml version="1.0" encoding="utf-8"?>
<!-- Generator: Adobe Illustrator 15.0.0, SVG Export Plug-In . SVG Version: 6.00 Build 0)  -->
<!DOCTYPE svg PUBLIC "-//W3C//DTD SVG 1.1//EN" "http://www.w3.org/Graphics/SVG/1.1/DTD/svg11.dtd">
<svg version="1.1" id="Capa_1" xmlns="http://www.w3.org/2000/svg" xmlns:xlink="http://www.w3.org/1999/xlink" x="0px" y="0px"
	 width="50px" height="50px" viewBox="0 0 50 50" enable-background="new 0 0 50 50" xml:space="preserve">
<path d="M25,0C11.2,0,0,11.2,0,25c0,10.2,6.2,19,15,22.9c-0.1-1.7,0-3.801,0.4-5.7c0.5-2,3.2-13.601,3.2-13.601s-0.8-1.6-0.8-4
	c0-3.7,2.1-6.5,4.8-6.5c2.3,0,3.4,1.7,3.4,3.8c0,2.3-1.5,5.7-2.2,8.9c-0.601,2.7,1.3,4.8,3.899,4.8c4.701,0,7.9-6.1,7.9-13.3
	c0-5.5-3.699-9.6-10.4-9.6c-7.6,0-12.3,5.7-12.3,12c0,2.2,0.6,3.7,1.6,4.899C15,30.1,15,30.4,14.9,31c-0.1,0.5-0.4,1.6-0.5,2
	c-0.2,0.6-0.7,0.9-1.3,0.6C9.6,32.2,8,28.3,8,24c0-7.1,6-15.6,17.9-15.6c9.5,0,15.799,6.9,15.799,14.3c0,9.8-5.5,17.1-13.5,17.1
	C25.5,39.8,23,38.3,22.1,36.7c0,0-1.5,5.8-1.8,6.899c-0.5,1.9-1.601,3.9-2.5,5.4c2.2,0.7,4.6,1,7.1,1c13.799,0,25-11.2,25-25
	C50,11.2,38.801,0,25,0z"/>
</svg>
