<?xml version="1.0" encoding="utf-8"?>
<!-- Generator: Adobe Illustrator 15.0.0, SVG Export Plug-In . SVG Version: 6.00 Build 0)  -->
<!DOCTYPE svg PUBLIC "-//W3C//DTD SVG 1.1//EN" "http://www.w3.org/Graphics/SVG/1.1/DTD/svg11.dtd">
<svg version="1.1" id="Capa_1" xmlns="http://www.w3.org/2000/svg" xmlns:xlink="http://www.w3.org/1999/xlink" x="0px" y="0px"
	 width="50px" height="50px" viewBox="0 0 50 50" enable-background="new 0 0 50 50" xml:space="preserve">
<path d="M38.517,18.5c0,0.3,0,0.6,0,0.9c0,8.6-6.6,18.6-18.6,18.6c-3.7,0-7.1-1.1-10-3c0.5,0.1,1,0.1,1.6,0.1
	c3.102,0,5.9-1.1,8.102-2.8c-2.9-0.1-5.3-2-6.102-4.6c0.4,0.1,0.801,0.1,1.2,0.1c0.601,0,1.2-0.1,1.7-0.2c-3-0.6-5.2-3.3-5.2-6.5V21
	c0.9,0.5,1.9,0.8,3,0.8c-1.8-1.2-2.899-3.2-2.899-5.5c0-1.2,0.3-2.3,0.899-3.3c3.2,4,8,6.6,13.5,6.9c-0.1-0.5-0.2-1-0.2-1.5
	c0-3.6,2.9-6.6,6.5-6.6c1.9,0,3.604,0.8,4.802,2.1c1.5-0.3,2.899-0.8,4.198-1.6c-0.5,1.5-1.5,2.8-2.896,3.6
	c1.299-0.2,2.6-0.5,3.799-1C40.917,16.4,39.817,17.5,38.517,18.5z"/>
</svg>
