<?xml version="1.0" encoding="utf-8"?>
<!-- Generator: Adobe Illustrator 15.0.0, SVG Export Plug-In . SVG Version: 6.00 Build 0)  -->
<!DOCTYPE svg PUBLIC "-//W3C//DTD SVG 1.1//EN" "http://www.w3.org/Graphics/SVG/1.1/DTD/svg11.dtd">
<svg version="1.1" id="Capa_1" xmlns="http://www.w3.org/2000/svg" xmlns:xlink="http://www.w3.org/1999/xlink" x="0px" y="0px"
	 width="50px" height="50px" viewBox="1225 495 50 50" enable-background="new 1225 495 50 50" xml:space="preserve">
<g>
	<path fill="#010101" d="M1247.808,514.008c-0.471-0.16-0.791-0.379-1.184-0.805c-0.823-0.892-0.87-1.158-0.87-5.121
		c0-3.819,0.059-4.179,0.827-5.076c1.075-1.257,3.564-1.219,4.627,0.069c0.705,0.856,0.762,1.237,0.762,5.065
		c0,3.028-0.025,3.534-0.211,4.064c-0.283,0.812-1.117,1.597-1.965,1.849C1248.996,514.29,1248.602,514.282,1247.808,514.008
		L1247.808,514.008z M1249.268,512.172c0.479-0.185,0.532-0.587,0.532-4.02c0-2.191-0.044-3.381-0.132-3.575
		c-0.296-0.651-1.313-0.651-1.611,0c-0.088,0.194-0.133,1.384-0.133,3.575c0,3.829,0.05,4.052,0.9,4.083
		C1248.965,512.24,1249.164,512.212,1249.268,512.172z M1254.477,513.944c-0.168-0.092-0.405-0.367-0.526-0.611
		c-0.205-0.412-0.224-0.833-0.256-5.809l-0.035-5.364h2.239v4.91c0,4.203,0.024,4.932,0.174,5.056
		c0.261,0.215,0.683,0.058,1.159-0.434l0.426-0.438v-9.094h2.228v11.843h-2.228v-1.192l-0.558,0.494
		c-0.306,0.272-0.726,0.567-0.934,0.655C1255.683,514.166,1254.872,514.158,1254.477,513.944z M1240.887,510.749l-0.001-3.254
		l-1.449-4.632l-1.45-4.632l1.177-0.033c0.69-0.02,1.208,0.014,1.25,0.082c0.04,0.063,0.414,1.411,0.831,2.994
		c0.418,1.583,0.786,2.878,0.818,2.878c0.033,0,0.34-1.068,0.683-2.375c0.343-1.306,0.703-2.65,0.799-2.989l0.174-0.616h1.236
		c1.007,0,1.225,0.03,1.173,0.163c-0.033,0.09-0.7,2.199-1.479,4.686l-1.416,4.522v6.459h-2.345L1240.887,510.749z"/>
	<path fill="#D02726" d="M1242.214,541.761c-5.729-0.191-7.281-0.601-8.335-2.192c-0.427-0.643-0.905-2.082-1.057-3.182
		c-0.534-3.854-0.403-11.891,0.239-14.66c0.582-2.508,1.951-3.737,4.448-3.993c2.454-0.251,8.847-0.388,15.068-0.322
		c6.714,0.07,9.875,0.215,11.02,0.501c2.236,0.56,3.322,2.207,3.701,5.619c0.071,0.645,0.159,2.896,0.195,5.004
		c0.145,8.504-0.496,11.211-2.935,12.405c-0.921,0.451-1.523,0.556-4.125,0.711C1257.605,541.819,1246.07,541.889,1242.214,541.761
		L1242.214,541.761z M1245.031,537.123c0.197-0.103,0.591-0.398,0.873-0.658l0.514-0.475v1.203h2.228v-11.728h-2.228v8.942
		l-0.512,0.512c-0.55,0.551-0.771,0.619-1.062,0.33c-0.161-0.162-0.185-0.778-0.185-4.983v-4.801h-2.229v5.08
		c0,5.604,0.046,6.047,0.677,6.517C1243.508,537.36,1244.511,537.393,1245.031,537.123z M1255.756,537.086
		c0.203-0.124,0.486-0.473,0.644-0.791c0.275-0.559,0.281-0.636,0.319-4.436c0.043-4.167-0.025-4.918-0.514-5.764
		c-0.272-0.469-0.921-0.865-1.42-0.865c-0.48,0-1.169,0.323-1.693,0.796l-0.575,0.516v-5.063h-2.11v15.714h2.11v-1.083l0.481,0.435
		c0.265,0.238,0.647,0.508,0.85,0.596C1254.392,537.377,1255.321,537.35,1255.756,537.086L1255.756,537.086z M1252.957,535.172
		l-0.44-0.254v-7.19l0.521-0.276c0.423-0.225,0.582-0.254,0.85-0.16c0.578,0.201,0.642,0.65,0.602,4.313c0,0,0.045,3-0.255,3.389
		C1253.933,535.378,1253.521,535.502,1252.957,535.172z M1262.836,537.064c1.133-0.514,1.645-1.383,1.732-2.949l0.059-1.026h-2.26
		v0.696c0,0.852-0.133,1.224-0.527,1.481c-0.443,0.292-0.995,0.106-1.261-0.422c-0.161-0.319-0.205-0.707-0.205-1.785v-1.379h4.222
		v-1.721c0-2.167-0.17-2.857-0.901-3.672c-0.646-0.718-1.338-1.003-2.383-0.983c-0.866,0.017-1.446,0.23-2.056,0.766
		c-0.993,0.873-1.145,1.651-1.085,5.61c0.038,2.572,0.081,3.2,0.248,3.643c0.284,0.755,0.801,1.33,1.508,1.683
		C1260.724,537.402,1262.032,537.43,1262.836,537.064L1262.836,537.064z M1260.374,529.039c0-1.458,0.373-1.955,1.315-1.75
		c0.473,0.105,0.678,0.634,0.678,1.75v0.884h-1.993V529.039L1260.374,529.039z M1240.203,530.449v-6.742h2.581v-2.228h-7.388v2.228
		h2.462v13.486h2.345V530.449z"/>
</g>
</svg>
