<?xml version="1.0" encoding="utf-8"?>
<!DOCTYPE svg PUBLIC "-//W3C//DTD SVG 1.1//EN" "http://www.w3.org/Graphics/SVG/1.1/DTD/svg11.dtd">
<svg version="1.1" id="Capa_1" xmlns="http://www.w3.org/2000/svg" xmlns:xlink="http://www.w3.org/1999/xlink" x="0px" y="0px"
	 width="50px" height="50px" viewBox="0 0 50 50" enable-background="new 0 0 50 50" xml:space="preserve">
<path fill="#007AB9" d="M39.031,36.78v-9.76c0-5.229-2.793-7.662-6.514-7.662c-3.004,0-4.35,1.652-5.099,2.812v-2.412H21.76
	c0.075,1.598,0,17.022,0,17.022h5.659v-9.507c0-0.507,0.035-1.016,0.187-1.379c0.408-1.016,1.338-2.069,2.9-2.069
	c2.05,0,2.867,1.561,2.867,3.848v9.108h5.658V36.78z M15.799,17.435c1.973,0,3.202-1.308,3.202-2.942
	c-0.037-1.669-1.229-2.94-3.164-2.94c-1.936,0-3.201,1.271-3.201,2.94c0,1.634,1.229,2.942,3.128,2.942H15.799z M25,50
	C11.193,50,0,38.807,0,25C0,11.192,11.193,0,25,0s25,11.192,25,25C50,38.807,38.807,50,25,50z M18.628,36.78V19.758h-5.657V36.78
	H18.628z"/>
</svg>
