<svg xmlns="http://www.w3.org/2000/svg" width="50" height="50" viewBox="0 0 50 50">
  <path fill="#007AB9" d="M39.03 36.78v-9.76c0-5.23-2.792-7.662-6.513-7.662-3.004 0-4.35 1.652-5.1 2.812v-2.412H21.76c.075 1.598 0 17.022 0 17.022h5.66v-9.507c0-.507.034-1.016.186-1.38.408-1.015 1.338-2.068 2.9-2.068 2.05 0 2.867 1.56 2.867 3.848v9.108h5.658zM15.8 17.435c1.972 0 3.2-1.308 3.2-2.942-.036-1.67-1.228-2.94-3.163-2.94-1.936 0-3.2 1.27-3.2 2.94 0 1.634 1.228 2.942 3.127 2.942h.035zM25 50C11.193 50 0 38.807 0 25 0 11.192 11.193 0 25 0s25 11.192 25 25c0 13.807-11.193 25-25 25zm-6.372-13.22V19.758H12.97V36.78h5.658z"/>
</svg>
