<?xml version="1.0" encoding="utf-8"?>
<!-- Generator: Adobe Illustrator 15.0.0, SVG Export Plug-In . SVG Version: 6.00 Build 0)  -->
<!DOCTYPE svg PUBLIC "-//W3C//DTD SVG 1.1//EN" "http://www.w3.org/Graphics/SVG/1.1/DTD/svg11.dtd">
<svg version="1.1" id="Layer_1" xmlns="http://www.w3.org/2000/svg" xmlns:xlink="http://www.w3.org/1999/xlink" x="0px" y="0px"
	 width="1481.972px" height="1481.97px" viewBox="0 0 1481.972 1481.97" enable-background="new 0 0 1481.972 1481.97"
	 xml:space="preserve">
<path fill-rule="evenodd" clip-rule="evenodd" fill="#79B542" d="M740.985,0C331.75,0,0,331.75,0,740.985
	s331.75,740.985,740.985,740.985c409.236,0,740.986-331.75,740.986-740.985S1150.222,0,740.985,0z M1079.512,1066.8
	c-11.655,19.604-36.384,27.486-57.527,18.151c-4.247-1.875-8.224-4.393-12.233-6.77c-78.418-46.486-163.04-75.276-252.99-89.051
	c-55.195-8.452-110.7-11.384-166.433-9.193c-72.096,2.835-143.286,12.837-213.719,28.431c-7.114,1.575-14.434,3.006-21.673,3.084
	c-21.807,0.236-40.216-15.231-44.044-36.203c-4.053-22.207,6.948-43.021,27.316-51.209c4.299-1.729,8.888-2.834,13.427-3.854
	c57.612-12.934,115.765-22.715,174.604-27.692c32.845-2.778,65.833-3.868,98.756-5.719c97.426,1.026,192.732,14.194,285.227,45.388
	c51.02,17.205,99.74,39.465,146.012,67.029c4.005,2.385,8.072,4.737,11.773,7.549
	C1086.679,1020.924,1091.527,1046.588,1079.512,1066.8z M1170.165,865.207c-16.368,26.897-50.402,35.262-78.694,19.306
	c-15.961-9.002-31.735-18.386-48.05-26.702c-74.794-38.123-154.097-62.836-236.387-78.412
	c-63.358-11.993-127.311-17.854-195.271-18.142c-84.635,0.354-171.332,10.846-256.014,35.978
	c-13.799,4.095-27.646,4.37-41.166-1.106c-22.002-8.913-36.317-30.962-35.541-54.292c0.809-24.337,15.648-45.532,39.11-52.695
	c23.874-7.289,48.106-13.609,72.478-19.021c59.996-13.324,120.802-20.371,182.243-22.703
	c132.181-5.017,261.305,12.082,387.274,52.457c63.697,20.415,124.63,47.146,182.186,81.375c2.864,1.703,5.707,3.443,8.551,5.181
	C1180.896,804.766,1184.48,841.684,1170.165,865.207z M1178.922,655.607c-31.956-18.081-64.662-34.467-98.734-48.127
	c-67.69-27.137-137.842-45.399-209.545-58.048c-49.91-8.804-100.196-14.633-150.758-17.67c-52.57-3.157-105.177-3.529-157.826-0.804
	c-60.323,3.122-120.173,9.746-179.23,22.503c-21.793,4.707-43.331,10.642-64.883,16.4c-13.217,3.532-26.241,3.982-39.406,0.131
	c-28.814-8.431-48.677-34.247-49.531-64.478c-0.829-29.365,17.287-56.664,45.754-66.047c20.841-6.87,42.229-12.269,63.628-17.216
	c52.976-12.246,106.691-19.814,160.839-24.758c57.49-5.248,115.087-6.938,172.723-5.288
	c141.994,4.065,281.226,24.829,415.971,71.348c54.938,18.967,107.816,42.509,158.074,71.833
	c17.918,10.455,29.946,25.188,34.524,45.567c1.087,4.84,1.349,9.865,1.99,14.805
	C1282.294,649.411,1226.038,682.265,1178.922,655.607z"/>
</svg>
