<?xml version="1.0" encoding="utf-8"?>
<!-- Generator: Adobe Illustrator 15.0.0, SVG Export Plug-In . SVG Version: 6.00 Build 0)  -->
<!DOCTYPE svg PUBLIC "-//W3C//DTD SVG 1.1//EN" "http://www.w3.org/Graphics/SVG/1.1/DTD/svg11.dtd">
<svg version="1.1" id="Capa_1" xmlns="http://www.w3.org/2000/svg" xmlns:xlink="http://www.w3.org/1999/xlink" x="0px" y="0px"
	 width="50px" height="50px" viewBox="0 0 50 50" enable-background="new 0 0 50 50" xml:space="preserve">
<g>
	<path fill="#666666" d="M25.16,10c-8.183,0-14.841,6.622-14.841,14.761c0,2.677,0.714,5.258,2.075,7.53L10,40l8.19-2.206
		c2.145,1.137,4.539,1.729,6.97,1.727c8.182,0,14.84-6.621,14.84-14.76C40,16.622,33.342,10,25.16,10 M25.16,37.112
		c-2.347,0.004-4.646-0.657-6.629-1.906l-0.176,0.048l-4.742,1.276l1.43-4.605c-1.501-2.09-2.306-4.596-2.302-7.164
		c0-6.821,5.56-12.351,12.418-12.351c6.856,0,12.417,5.53,12.417,12.351C37.577,31.581,32.018,37.112,25.16,37.112"/>
	<path fill="#666666" d="M22.36,21.31c0,0,0.438,0.667,0,1.205c-0.438,0.538-0.799,0.948-0.799,0.948s-0.387,0.282,0,0.846
		c0.387,0.564,1.984,3,4.742,4.076c0,0,0.851,0.359,1.212-0.462l0.875-1.128c0,0,0.207-0.283,0.877,0
		c0.67,0.282,2.783,1.307,2.783,1.307s0.387,0.129,0.31,0.692c-0.076,0.563-0.283,2.741-3.324,2.975c0,0-2.938,0.103-6.238-2.438
		c-2.062-1.586-3.521-3.562-4.327-4.941c-0.051-0.088-0.102-0.177-0.151-0.267c-0.418-0.841-0.728-1.764-0.686-2.664
		c0-0.103,0.003-0.21,0.011-0.32c0.066-0.984,0.469-2.157,1.958-2.831c0,0,1.211-0.179,1.417,0L22.36,21.31z"/>
</g>
</svg>
