<?xml version="1.0" encoding="utf-8"?>
<!-- Generator: Adobe Illustrator 15.0.0, SVG Export Plug-In . SVG Version: 6.00 Build 0)  -->
<!DOCTYPE svg PUBLIC "-//W3C//DTD SVG 1.1//EN" "http://www.w3.org/Graphics/SVG/1.1/DTD/svg11.dtd">
<svg version="1.1" id="Capa_1" xmlns="http://www.w3.org/2000/svg" xmlns:xlink="http://www.w3.org/1999/xlink" x="0px" y="0px"
	 width="50px" height="50px" viewBox="0 0 50 50" enable-background="new 0 0 50 50" xml:space="preserve">
<g>
	<path fill="#ADE513" d="M24.688,19.033c0.108,0.003,0.26-0.019,0.339-0.049c0.367-0.141,0.407-0.449,0.407-3.074
		c0-1.677-0.034-2.587-0.102-2.735c-0.226-0.499-1.004-0.499-1.232,0c-0.067,0.148-0.102,1.058-0.102,2.735
		C23.999,18.839,24.038,19.009,24.688,19.033z"/>
	<path fill="#ADE513" d="M25,0C11.2,0,0,11.2,0,25s11.2,25,25,25c13.801,0,25-11.2,25-25S38.801,0,25,0z M30.099,11.327v3.755
		c0,3.214,0.02,3.772,0.134,3.867c0.199,0.164,0.522,0.044,0.887-0.332l0.326-0.335v-6.956h1.704v9.058h-1.704v-0.911l-0.428,0.377
		c-0.232,0.209-0.555,0.435-0.714,0.501c-0.369,0.158-0.989,0.152-1.292-0.012c-0.129-0.07-0.31-0.28-0.402-0.467
		c-0.156-0.315-0.172-0.637-0.195-4.443l-0.027-4.103H30.099z M26.512,12.026c0.539,0.654,0.583,0.946,0.583,3.874
		c0,2.316-0.02,2.703-0.161,3.108c-0.217,0.622-0.854,1.222-1.503,1.414c-0.611,0.182-0.913,0.176-1.52-0.034
		c-0.36-0.123-0.605-0.29-0.905-0.615c-0.63-0.683-0.666-0.886-0.666-3.917c0-2.922,0.044-3.196,0.633-3.883
		C23.795,11.012,25.697,11.041,26.512,12.026z M17.299,8.296c0.527-0.016,0.925,0.011,0.956,0.063
		c0.032,0.048,0.317,1.08,0.637,2.291c0.319,1.21,0.601,2.201,0.625,2.201c0.025,0,0.26-0.817,0.523-1.817
		c0.263-1,0.538-2.027,0.611-2.287l0.133-0.471h0.945c0.771,0,0.937,0.023,0.898,0.125c-0.025,0.069-0.537,1.683-1.132,3.584
		l-1.083,3.459v4.94h-1.793l-0.001-2.488v-2.489l-1.108-3.543l-1.11-3.543L17.299,8.296z M36.723,40.99
		c-0.705,0.344-1.165,0.424-3.154,0.544c-2.164,0.127-10.987,0.181-13.936,0.082c-4.383-0.146-5.569-0.459-6.376-1.677
		c-0.326-0.491-0.692-1.592-0.809-2.434c-0.408-2.947-0.308-9.095,0.183-11.213c0.445-1.918,1.492-2.858,3.403-3.054
		c1.876-0.192,6.766-0.298,11.526-0.247c5.134,0.054,7.553,0.165,8.429,0.384c1.71,0.428,2.541,1.688,2.83,4.298
		c0.055,0.492,0.121,2.215,0.15,3.827C39.079,38.006,38.589,40.076,36.723,40.99z"/>
</g>
<path fill="#ADE513" d="M21.787,38.069c0.15-0.079,0.452-0.305,0.667-0.503l0.393-0.363v0.92h1.704v-8.971h-1.704v6.839
	l-0.392,0.392c-0.421,0.422-0.59,0.474-0.813,0.253c-0.123-0.124-0.141-0.595-0.141-3.812v-3.672h-1.706v3.886
	c0,4.286,0.036,4.625,0.519,4.983C20.622,38.25,21.39,38.275,21.787,38.069z"/>
<path fill="#ADE513" d="M30.334,29.633c-0.208-0.357-0.705-0.661-1.087-0.661c-0.367,0-0.895,0.248-1.295,0.609l-0.439,0.395v-3.872
	h-1.614v12.02h1.614v-0.829l0.368,0.333c0.203,0.183,0.494,0.389,0.649,0.456c0.417,0.181,1.126,0.16,1.46-0.042
	c0.155-0.096,0.371-0.361,0.492-0.605c0.211-0.427,0.216-0.486,0.244-3.393C30.76,30.855,30.707,30.28,30.334,29.633z
	 M28.826,36.441c-0.23,0.293-0.545,0.389-0.977,0.136l-0.337-0.194v-5.5l0.399-0.211c0.322-0.172,0.445-0.194,0.649-0.123
	c0.442,0.154,0.49,0.498,0.46,3.299C29.021,33.848,29.057,36.143,28.826,36.441z"/>
<path fill="#ADE513" d="M35.047,34.983v0.533c0,0.651-0.102,0.935-0.403,1.132c-0.339,0.223-0.761,0.081-0.964-0.322
	c-0.124-0.244-0.156-0.541-0.156-1.365v-1.055h3.229V32.59c0-1.658-0.131-2.186-0.689-2.809c-0.494-0.55-1.023-0.768-1.822-0.753
	c-0.662,0.014-1.105,0.177-1.573,0.587c-0.759,0.668-0.876,1.263-0.829,4.291c0.028,1.967,0.062,2.447,0.189,2.786
	c0.217,0.578,0.613,1.017,1.153,1.288c0.61,0.303,1.609,0.324,2.225,0.043c0.866-0.393,1.258-1.058,1.325-2.255l0.045-0.785H35.047z
	 M33.523,31.887c0-1.116,0.285-1.496,1.005-1.339c0.361,0.079,0.519,0.483,0.519,1.339v0.675h-1.523V31.887z"/>
<polygon fill="#ADE513" points="18.094,32.965 18.094,27.808 20.069,27.808 20.069,26.104 14.417,26.104 14.417,27.808 16.3,27.808 
	16.3,38.123 18.094,38.123 "/>
</svg>
