<svg xmlns="http://www.w3.org/2000/svg" width="50" height="50"><g fill="#ffffff"><path d="M36.22 21.332a5.603 5.603 0 1 0 0 11.206 5.603 5.603 0 0 0 0-11.206zm-.039 9.228a3.625 3.625 0 1 1 0-7.25 3.625 3.625 0 0 1 0 7.25z"/><circle cx="36.182" cy="26.955" r="1.897"/><path d="M13.707 21.332a5.602 5.602 0 0 0-5.603 5.603 5.603 5.603 0 1 0 5.603-5.603zm-.039 9.228a3.625 3.625 0 1 1 0-7.25 3.625 3.625 0 0 1 0 7.25z"/><circle cx="13.668" cy="26.955" r="1.897"/><path d="M45.282 20.272c.361-1.843 2.083-4.331 2.083-4.331h-7.097c-3.636-2.573-9.176-4.217-15.383-4.217s-11.747 1.644-15.383 4.217H2.611s1.452 1.777 2.139 4.273a11.252 11.252 0 0 0-2.248 6.763c0 6.24 5.059 11.298 11.298 11.298 3.563 0 6.739-1.65 8.811-4.227l2.377 3.521 2.396-3.55a11.263 11.263 0 0 0 8.828 4.256c6.233 0 11.286-5.054 11.286-11.286 0-2.516-.823-4.84-2.216-6.717zM35.7 15.715c-5.527.247-10.02 4.469-10.688 9.877-.67-5.474-5.255-9.737-10.868-9.905 3.073-1.213 6.768-1.921 10.742-1.921 4.006-.001 7.727.717 10.814 1.949zM13.8 35.969a8.99 8.99 0 1 1 0-17.981 8.99 8.99 0 0 1 0 17.981zm22.412.002a8.98 8.98 0 0 1-8.981-8.981 8.981 8.981 0 1 1 17.963 0 8.982 8.982 0 0 1-8.982 8.981z"/></g></svg>