<?xml version="1.0" encoding="utf-8"?>
<!-- Generator: Adobe Illustrator 15.0.0, SVG Export Plug-In . SVG Version: 6.00 Build 0)  -->
<!DOCTYPE svg PUBLIC "-//W3C//DTD SVG 1.1//EN" "http://www.w3.org/Graphics/SVG/1.1/DTD/svg11.dtd">
<svg version="1.1" id="Capa_1" xmlns="http://www.w3.org/2000/svg" xmlns:xlink="http://www.w3.org/1999/xlink" x="0px" y="0px"
	 width="50px" height="50px" viewBox="0 0 50 50" enable-background="new 0 0 50 50" xml:space="preserve">
<path d="M37.25,9.2h-24.5c-2,0-3.5,1.6-3.5,3.5v24.6c0,2,1.601,3.5,3.5,3.5h24.5c2,0,3.5-1.6,3.5-3.5V12.7
	C40.75,10.7,39.15,9.2,37.25,9.2z M25.05,18.999c3.313,0,6,2.688,6,6c0,3.314-2.688,6-6,6s-6-2.686-6-6
	C19.05,21.687,21.736,18.999,25.05,18.999z M37.15,35.8c0,0.699-0.6,1.299-1.3,1.299H14.25c-0.7,0-1.3-0.6-1.3-1.299V22.6h2.7
	c-0.2,0.8-0.3,1.601-0.3,2.399c0,5.4,4.3,9.701,9.7,9.701s9.7-4.4,9.7-9.701c0-0.799-0.101-1.6-0.3-2.399h2.699L37.15,35.8
	L37.15,35.8z M37.25,17.7c0,0.7-0.601,1.299-1.3,1.299H32.35c-0.7,0-1.301-0.6-1.301-1.299v-3.6c0-0.7,0.601-1.3,1.301-1.3h3.601
	c0.699,0,1.199,0.6,1.3,1.3V17.7z"/>
</svg>
