<?xml version="1.0" encoding="utf-8"?>
<!-- Generator: Adobe Illustrator 15.0.0, SVG Export Plug-In . SVG Version: 6.00 Build 0)  -->
<!DOCTYPE svg PUBLIC "-//W3C//DTD SVG 1.1//EN" "http://www.w3.org/Graphics/SVG/1.1/DTD/svg11.dtd">
<svg version="1.1" id="Capa_1" xmlns="http://www.w3.org/2000/svg" xmlns:xlink="http://www.w3.org/1999/xlink" x="0px" y="0px"
	 width="50px" height="50px" viewBox="0 0 50 50" enable-background="new 0 0 50 50" xml:space="preserve">
<g>
	<path fill="#FFFFFF" d="M25.264,0C11.699,0,0.662,11.036,0.662,24.601c0,4.462,1.184,8.763,3.439,12.552L0.135,50l13.576-3.677
		c3.557,1.894,7.523,2.881,11.553,2.878c13.564,0,24.602-11.035,24.602-24.6C49.865,11.036,38.828,0,25.264,0 M25.264,45.187
		c-3.891,0.005-7.701-1.096-10.988-3.177l-0.291,0.08l-7.861,2.127l2.371-7.676c-2.488-3.483-3.822-7.658-3.816-11.94
		c0-11.368,9.217-20.585,20.586-20.585c11.367,0,20.584,9.217,20.584,20.585C45.85,35.969,36.633,45.187,25.264,45.187"/>
	<path fill="#FFFFFF" d="M20.624,18.85c0,0,0.726,1.111,0,2.009c-0.727,0.896-1.325,1.58-1.325,1.58s-0.641,0.47,0,1.409
		c0.642,0.941,3.29,5,7.86,6.793c0,0,1.41,0.599,2.01-0.768l1.45-1.88c0,0,0.343-0.471,1.454,0c1.11,0.47,4.613,2.177,4.613,2.177
		s0.642,0.215,0.514,1.154c-0.128,0.94-0.47,4.571-5.511,4.957c0,0-4.871,0.171-10.341-4.06c-3.417-2.644-5.837-5.937-7.171-8.235
		c-0.085-0.147-0.169-0.295-0.252-0.445c-0.693-1.402-1.206-2.94-1.137-4.44c0-0.171,0.005-0.35,0.018-0.534
		c0.11-1.64,0.778-3.595,3.245-4.717c0,0,2.008-0.298,2.35,0L20.624,18.85L20.624,18.85z"/>
	<rect fill="none" width="50" height="50"/>
</g>
</svg>
