<svg xmlns="http://www.w3.org/2000/svg" width="50" height="50" viewBox="0 0 50 50">
  <path d="M37.25 9.2h-24.5c-2 0-3.5 1.6-3.5 3.5v24.6c0 2 1.6 3.5 3.5 3.5h24.5c2 0 3.5-1.6 3.5-3.5V12.7c0-2-1.6-3.5-3.5-3.5zM25.05 19c3.313 0 6 2.687 6 6s-2.688 6-6 6-6-2.687-6-6 2.686-6 6-6zm12.1 16.8c0 .7-.6 1.3-1.3 1.3h-21.6c-.7 0-1.3-.6-1.3-1.3V22.6h2.7c-.2.8-.3 1.6-.3 2.4 0 5.4 4.3 9.7 9.7 9.7s9.7-4.4 9.7-9.7c0-.8-.1-1.6-.3-2.4h2.7v13.2zm.1-18.1c0 .7-.6 1.3-1.3 1.3h-3.6c-.7 0-1.3-.6-1.3-1.3v-3.6c0-.7.6-1.3 1.3-1.3h3.6c.7 0 1.2.6 1.3 1.3v3.6z"/>
</svg>
