<?xml version="1.0" encoding="utf-8"?>
<!-- Generator: Adobe Illustrator 15.0.0, SVG Export Plug-In . SVG Version: 6.00 Build 0)  -->
<!DOCTYPE svg PUBLIC "-//W3C//DTD SVG 1.1//EN" "http://www.w3.org/Graphics/SVG/1.1/DTD/svg11.dtd">
<svg version="1.1" id="Capa_1" xmlns="http://www.w3.org/2000/svg" xmlns:xlink="http://www.w3.org/1999/xlink" x="0px" y="0px"
	 width="2500px" height="1040px" viewBox="0 0 2500 1040" enable-background="new 0 0 2500 1040" xml:space="preserve">
<path fill="#010101" d="M418.593,842.953c-20.001-6.863-33.674-16.172-50.365-34.257c-35.061-37.99-36.987-49.331-36.987-218.041
	c0-162.56,2.496-177.869,35.16-216.039c45.798-53.5,151.693-51.917,196.917,2.939c30.034,36.438,32.476,52.661,32.476,215.596
	c0,128.951-1.118,150.445-8.985,173.007c-12.06,34.552-47.595,67.98-83.648,78.688c-34.002,10.098-50.749,9.729-84.566-1.897
	V842.953z M480.762,764.756c20.415-7.837,22.687-24.987,22.687-171.12c0-93.252-1.877-143.896-5.641-152.152
	c-12.629-27.724-55.955-27.724-68.584,0c-3.764,8.256-5.641,58.9-5.641,152.152c0,163.049,2.082,172.508,38.275,173.83
	C467.814,767.681,476.32,766.458,480.762,764.756z M702.521,840.218c-7.188-3.903-17.3-15.613-22.461-26.006
	c-8.711-17.53-9.499-35.46-10.877-247.267l-1.482-228.363h95.309v209.031c0,178.912,1.068,209.93,7.422,215.196
	c11.062,9.179,29.031,2.46,49.352-18.454l18.1-18.634V338.587h94.84v504.146h-94.84V791.97l-23.71,21.05
	c-13.038,11.575-30.938,24.119-39.772,27.878C753.804,849.647,719.279,849.317,702.521,840.218z M124.026,704.208l-0.075-138.516
	L62.27,368.526L0.59,171.36l50.115-1.433c29.335-0.839,51.378,0.619,53.165,3.514c1.682,2.721,17.59,60.073,35.351,127.449
	c17.77,67.376,33.433,122.513,34.825,122.522c1.398,0.011,14.486-45.463,29.091-101.059c14.61-55.591,29.91-112.869,34.008-127.285
	l7.452-26.206h52.591c42.848,0,52.103,1.288,49.931,6.938c-1.462,3.813-29.784,93.566-62.929,199.447l-60.263,192.509v274.965
	h-99.831L124.026,704.208z"/>
<path fill="#D02726" d="M1422.543,1037.16c-243.861-8.142-309.895-25.497-354.789-93.282c-18.14-27.384-38.5-88.67-44.984-135.411
	c-22.761-164.053-17.17-506.144,10.188-624.049c24.778-106.774,83.044-159.081,189.335-169.978
	c104.413-10.707,376.603-16.537,641.354-13.742c285.827,3.015,420.395,9.129,469.082,21.314
	c95.238,23.825,141.44,93.981,157.549,239.195c3.044,27.453,6.787,123.301,8.315,212.989
	c6.159,362.063-21.079,477.243-124.889,528.102c-39.198,19.208-64.841,23.62-175.628,30.233
	C2077.75,1039.711,1586.711,1042.641,1422.543,1037.16L1422.543,1037.16z M1542.51,839.813c8.415-4.357,25.147-16.991,37.187-28.102
	l21.894-20.166v51.183h94.839V343.573h-94.839v380.676l-21.804,21.799c-23.4,23.405-32.864,26.325-45.223,13.966
	c-6.879-6.878-7.848-33.074-7.848-212.141V343.568h-94.839v216.229c0,238.531,1.962,257.404,28.791,277.431
	C1477.655,849.901,1520.387,851.249,1542.51,839.813z M1998.988,838.201c8.71-5.311,20.779-20.115,27.453-33.673
	c11.711-23.779,11.945-27.054,13.587-188.82c1.797-177.359-1.058-209.386-21.893-245.335
	c-11.575-19.976-39.179-36.788-60.418-36.788c-20.455,0-49.766,13.762-72.112,33.854l-24.449,21.978V173.855h-89.848v668.868h89.848
	v-46.082l20.49,18.514c11.271,10.178,27.559,21.584,36.189,25.338c23.176,10.093,62.678,8.975,81.152-2.297V838.201z
	 M1879.869,756.779l-18.718-10.852V439.796l22.152-11.75c17.975-9.534,24.798-10.816,36.188-6.818
	c24.613,8.645,27.264,27.713,25.557,183.589c0,0,1.924,127.691-10.835,144.203S1903.933,770.721,1879.869,756.779z
	 M2300.408,837.318c48.238-21.868,69.961-58.851,73.76-125.578l2.496-43.716h-96.227v29.63c0,36.289-5.627,52.142-22.398,63.134
	c-18.902,12.379-42.397,4.512-53.709-17.995c-6.833-13.582-8.734-30.134-8.734-76.021l-0.016-58.65h179.696V534.83
	c0-92.244-7.213-121.645-38.315-156.235c-27.483-30.563-56.928-42.732-101.448-41.914c-36.902,0.674-61.561,9.873-87.462,32.614
	c-42.328,37.172-48.748,70.291-46.217,238.831c1.646,109.51,3.459,136.189,10.567,155.022c12.14,32.155,34.067,56.64,64.181,71.648
	C2210.525,851.698,2266.181,852.837,2300.408,837.318L2300.408,837.318z M2195.586,495.646c0-62.085,15.928-83.27,56.01-74.464
	c20.121,4.422,28.852,26.944,28.852,74.469v37.597h-84.857v-37.597L2195.586,495.646z M1337.038,555.715V268.7h109.814v-94.839
	h-314.468V268.7h104.822v574.028h99.831V555.715z"/>
</svg>
