<svg xmlns="http://www.w3.org/2000/svg" width="50" height="50" viewBox="1225 495 50 50">
  <path fill="#010101" d="M1247.808 514.008c-.471-.16-.791-.379-1.184-.805-.823-.892-.87-1.158-.87-5.121 0-3.819.059-4.179.827-5.076 1.075-1.257 3.564-1.219 4.627.069.705.856.762 1.237.762 5.065 0 3.028-.025 3.534-.211 4.064-.283.812-1.117 1.597-1.965 1.849-.798.237-1.192.229-1.986-.045zm1.46-1.836c.479-.185.532-.587.532-4.02 0-2.191-.044-3.381-.132-3.575-.296-.651-1.313-.651-1.611 0-.088.194-.133 1.384-.133 3.575 0 3.829.05 4.052.9 4.083.141.005.34-.023.444-.063zm5.209 1.772c-.168-.092-.405-.367-.526-.611-.205-.412-.224-.833-.256-5.809l-.035-5.364h2.239v4.91c0 4.203.024 4.932.174 5.056.261.215.683.058 1.159-.434l.426-.438v-9.094h2.228v11.843h-2.228v-1.192l-.558.494c-.306.272-.726.567-.934.655-.483.206-1.294.198-1.689-.016zm-13.59-3.195l-.001-3.254-1.449-4.632-1.45-4.632 1.177-.033c.69-.02 1.208.014 1.25.082.04.063.414 1.411.831 2.994.418 1.583.786 2.878.818 2.878.033 0 .34-1.068.683-2.375.343-1.306.703-2.65.799-2.989l.174-.616h1.236c1.007 0 1.225.03 1.173.163-.033.09-.7 2.199-1.479 4.686l-1.416 4.522v6.459h-2.345l-.001-3.253z"/>
  <path d="M1242.214 541.761c-5.729-.191-7.281-.601-8.335-2.192-.427-.643-.905-2.082-1.057-3.182-.534-3.854-.403-11.891.239-14.66.582-2.508 1.951-3.737 4.448-3.993 2.454-.251 8.847-.388 15.068-.322 6.714.07 9.875.215 11.02.501 2.236.56 3.322 2.207 3.701 5.619.071.645.159 2.896.195 5.004.145 8.504-.496 11.211-2.935 12.405-.921.451-1.523.556-4.125.711-2.828.167-14.363.237-18.219.109zm2.817-4.638c.197-.103.591-.398.873-.658l.514-.475v1.203h2.228v-11.728h-2.228v8.942l-.512.512c-.55.551-.771.619-1.062.33-.161-.162-.185-.778-.185-4.983v-4.801h-2.229v5.08c0 5.604.046 6.047.677 6.517.401.298 1.404.331 1.924.061zm10.725-.037c.203-.124.486-.473.644-.791.275-.559.281-.636.319-4.436.043-4.167-.025-4.918-.514-5.764-.272-.469-.921-.865-1.42-.865-.48 0-1.169.323-1.693.796l-.575.516v-5.063h-2.11v15.714h2.11v-1.083l.481.435c.265.238.647.508.85.596.544.236 1.473.209 1.908-.055zm-2.799-1.914l-.44-.254v-7.19l.521-.276c.423-.225.582-.254.85-.16.578.201.642.65.602 4.313 0 0 .045 3-.255 3.389-.302.384-.714.508-1.278.178zm9.879 1.892c1.133-.514 1.645-1.383 1.732-2.949l.059-1.026h-2.26v.696c0 .852-.133 1.224-.527 1.481-.443.292-.995.106-1.261-.422-.161-.319-.205-.707-.205-1.785v-1.379h4.222v-1.721c0-2.167-.17-2.857-.901-3.672-.646-.718-1.338-1.003-2.383-.983-.866.017-1.446.23-2.056.766-.993.873-1.145 1.651-1.085 5.61.038 2.572.081 3.2.248 3.643.284.755.801 1.33 1.508 1.683.797.396 2.105.424 2.909.058zm-2.462-8.025c0-1.458.373-1.955 1.315-1.75.473.105.678.634.678 1.75v.884h-1.993v-.884zm-20.171 1.41v-6.742h2.581v-2.228h-7.388v2.228h2.462v13.486h2.345v-6.744z"/>
</svg>
