<svg xmlns="http://www.w3.org/2000/svg" width="50" height="50" viewBox="0 0 50 50">
  <circle cx="25" cy="25" r="6"/>
  <path d="M34.7 25c0 5.3-4.3 9.7-9.7 9.7-5.4 0-9.7-4.3-9.7-9.7 0-.8.1-1.6.3-2.4h-2.7v13.2c0 .7.6 1.3 1.3 1.3h21.6c.7 0 1.3-.6 1.3-1.3V22.6h-2.7c.2.8.3 1.6.3 2.4zM35.9 12.8h-3.6c-.7 0-1.3.6-1.3 1.3v3.6c0 .7.6 1.3 1.3 1.3h3.6c.7 0 1.3-.6 1.3-1.3v-3.6c-.1-.7-.6-1.3-1.3-1.3z"/>
  <path d="M25 0C11.2 0 0 11.2 0 25s11.2 25 25 25 25-11.2 25-25S38.8 0 25 0zm15.7 37.3c0 1.9-1.5 3.5-3.5 3.5H12.7c-1.9 0-3.5-1.5-3.5-3.5V12.7c0-1.9 1.5-3.5 3.5-3.5h24.5c1.9 0 3.5 1.5 3.5 3.5v24.6z"/>
</svg>
