<svg xmlns="http://www.w3.org/2000/svg" width="2500" height="1040" viewBox="0 0 2500 1040">
  <path fill="#010101" d="M418.593 842.953c-20-6.863-33.674-16.172-50.365-34.257-35.06-37.99-36.987-49.33-36.987-218.04 0-162.56 2.497-177.87 35.16-216.04 45.8-53.5 151.694-51.917 196.918 2.94 30.034 36.437 32.476 52.66 32.476 215.595 0 128.952-1.118 150.446-8.985 173.008-12.06 34.552-47.596 67.98-83.65 78.688-34 10.098-50.748 9.73-84.565-1.897v.003zm62.17-78.197c20.414-7.837 22.686-24.987 22.686-171.12 0-93.252-1.878-143.896-5.642-152.152-12.63-27.724-55.955-27.724-68.584 0-3.764 8.256-5.64 58.9-5.64 152.152 0 163.05 2.08 172.508 38.274 173.83 5.956.215 14.462-1.008 18.904-2.71zm221.758 75.462c-7.187-3.903-17.3-15.613-22.46-26.006-8.71-17.53-9.5-35.46-10.877-247.267L667.7 338.582h95.31v209.03c0 178.913 1.068 209.93 7.422 215.197 11.062 9.178 29.03 2.46 49.352-18.455l18.1-18.634V338.588h94.84v504.146h-94.84V791.97l-23.71 21.05c-13.038 11.575-30.938 24.12-39.772 27.878-20.598 8.75-55.123 8.42-71.88-.68zm-578.494-136.01l-.075-138.516-61.68-197.166L.59 171.36l50.115-1.433c29.335-.84 51.378.62 53.165 3.514 1.682 2.722 17.59 60.074 35.35 127.45 17.77 67.376 33.434 122.513 34.826 122.522 1.398.01 14.486-45.463 29.09-101.06 14.61-55.59 29.91-112.868 34.01-127.284l7.45-26.206h52.592c42.848 0 52.103 1.288 49.93 6.938-1.46 3.813-29.783 93.566-62.928 199.447l-60.263 192.51V842.72h-99.83l-.07-138.512z"/>
  <path fill="#D02726" d="M1422.543 1037.16c-243.86-8.142-309.895-25.497-354.79-93.282-18.14-27.384-38.5-88.67-44.983-135.41-22.76-164.054-17.17-506.145 10.188-624.05 24.778-106.774 83.044-159.08 189.335-169.978C1326.706 3.733 1598.896-2.097 1863.647.698c285.827 3.015 420.395 9.13 469.082 21.314 95.237 23.825 141.44 93.98 157.548 239.195 3.044 27.453 6.787 123.3 8.315 212.99 6.16 362.062-21.08 477.242-124.89 528.1-39.197 19.21-64.84 23.62-175.627 30.234-120.326 7.18-611.365 10.11-775.533 4.63zm119.967-197.347c8.415-4.357 25.147-16.99 37.187-28.102l21.894-20.165v51.183h94.84V343.573h-94.84V724.25l-21.803 21.798c-23.4 23.405-32.864 26.325-45.223 13.966-6.88-6.878-7.848-33.074-7.848-212.14V343.567h-94.84v216.23c0 238.53 1.963 257.403 28.792 277.43 16.987 12.673 59.72 14.02 81.842 2.585zm456.478-1.612c8.71-5.31 20.78-20.114 27.453-33.672 11.712-23.78 11.946-27.054 13.588-188.82 1.797-177.36-1.058-209.386-21.893-245.335-11.575-19.976-39.18-36.788-60.418-36.788-20.455 0-49.766 13.762-72.112 33.854l-24.45 21.977V173.855h-89.847v668.868h89.848V796.64l20.49 18.515c11.27 10.178 27.56 21.584 36.19 25.338 23.175 10.093 62.677 8.975 81.15-2.297v.005zm-119.12-81.42l-18.717-10.853v-306.13l22.153-11.75c17.975-9.535 24.798-10.817 36.188-6.82 24.614 8.646 27.265 27.714 25.558 183.59 0 0 1.924 127.69-10.835 144.203s-30.28 21.7-54.344 7.76zm420.54 80.538c48.238-21.868 69.96-58.85 73.76-125.578l2.496-43.716h-96.227v29.63c0 36.29-5.627 52.142-22.398 63.134-18.903 12.38-42.398 4.512-53.71-17.995-6.833-13.582-8.734-30.134-8.734-76.02l-.016-58.65h179.696V534.83c0-92.244-7.213-121.645-38.315-156.235-27.482-30.563-56.927-42.732-101.447-41.914-36.902.675-61.56 9.874-87.462 32.615-42.327 37.172-48.747 70.29-46.216 238.83 1.646 109.51 3.46 136.19 10.567 155.023 12.14 32.155 34.068 56.64 64.182 71.648 33.943 16.902 89.6 18.04 123.826 2.522zm-104.822-341.672c0-62.085 15.928-83.27 56.01-74.464 20.12 4.422 28.852 26.944 28.852 74.47v37.596h-84.857V495.65l-.004-.004zm-858.548 60.07V268.7h109.814v-94.84h-314.468v94.84h104.822v574.028h99.83V555.715z"/>
</svg>
