<?xml version="1.0" encoding="utf-8"?>
<!-- Generator: Adobe Illustrator 15.0.0, SVG Export Plug-In . SVG Version: 6.00 Build 0)  -->
<!DOCTYPE svg PUBLIC "-//W3C//DTD SVG 1.1//EN" "http://www.w3.org/Graphics/SVG/1.1/DTD/svg11.dtd">
<svg version="1.1" id="Capa_1" xmlns="http://www.w3.org/2000/svg" xmlns:xlink="http://www.w3.org/1999/xlink" x="0px" y="0px"
	 width="50px" height="50px" viewBox="575 975 50 50" enable-background="new 575 975 50 50" xml:space="preserve">
<path fill="#666666" d="M614.271,989.97c-0.364-0.365-0.912-0.639-1.459-0.639h-25.623c-1.186,0-2.188,1.003-2.188,2.28v16.777
	c0,1.277,1.003,2.28,2.188,2.28h25.623c1.186,0,2.188-1.003,2.188-2.28v-16.777C614.908,990.973,614.635,990.334,614.271,989.97z
	 M587.28,992.979l11.945,9.849l0.091,0.091l0.091,0.091l0.091,0.092h-0.091l0.091,0.091h0.638l0.365-0.091c0,0,0.091,0,0.091-0.092
	l12.036-9.848v15.228H587.28V992.979L587.28,992.979z M599.955,1000.364l-10.486-8.571h20.973L599.955,1000.364z M599.407,1002.918
	C599.316,1002.918,599.316,1002.918,599.407,1002.918z"/>
</svg>
