<?xml version="1.0" encoding="utf-8"?>
<!-- Generator: Adobe Illustrator 15.0.0, SVG Export Plug-In . SVG Version: 6.00 Build 0)  -->
<!DOCTYPE svg PUBLIC "-//W3C//DTD SVG 1.1//EN" "http://www.w3.org/Graphics/SVG/1.1/DTD/svg11.dtd">
<svg version="1.1" id="Capa_1" xmlns="http://www.w3.org/2000/svg" xmlns:xlink="http://www.w3.org/1999/xlink" x="0px" y="0px"
	 width="50px" height="50px" viewBox="0 0 50 50" enable-background="new 0 0 50 50" xml:space="preserve">
<path fill="#FFFFFF" d="M43.226,11.733H6.775c-1.331,0-2.413,1.082-2.413,2.413v21.708c0,1.329,1.082,2.412,2.413,2.412h36.45
	c1.328,0,2.412-1.083,2.412-2.412V14.146C45.638,12.815,44.554,11.733,43.226,11.733z M25,26.229L8.294,13.699h33.411L25,26.229z
	 M43.226,36.302H6.775c-0.247,0-0.447-0.2-0.447-0.447V14.681L24.41,28.242c0.014,0.011,0.027,0.02,0.041,0.029
	c0.008,0.005,0.015,0.012,0.023,0.016c0.028,0.018,0.057,0.033,0.086,0.048c0.007,0.003,0.015,0.008,0.022,0.011
	c0.025,0.013,0.051,0.022,0.078,0.033c0.005,0.002,0.012,0.004,0.018,0.006c0.033,0.012,0.066,0.021,0.1,0.029
	c0.002,0,0.004,0.001,0.006,0.001c0.032,0.007,0.063,0.013,0.094,0.017c0.007,0,0.014,0.001,0.021,0.002
	c0.033,0.004,0.066,0.006,0.101,0.006c0,0,0,0,0,0h0c0.034,0,0.067-0.002,0.101-0.006c0.007-0.001,0.014-0.002,0.021-0.002
	c0.032-0.004,0.063-0.01,0.095-0.017c0.002,0,0.003-0.001,0.005-0.001c0.034-0.008,0.066-0.018,0.1-0.029
	c0.006-0.002,0.012-0.004,0.018-0.006c0.026-0.011,0.051-0.021,0.077-0.033c0.008-0.003,0.015-0.008,0.022-0.011
	c0.029-0.015,0.058-0.03,0.085-0.048c0.008-0.004,0.016-0.011,0.023-0.017c0.014-0.009,0.027-0.018,0.041-0.028l18.083-13.561
	v21.173C43.673,36.102,43.47,36.302,43.226,36.302z"/>
</svg>
