<?xml version="1.0" encoding="utf-8"?>
<!-- Generator: Adobe Illustrator 15.0.0, SVG Export Plug-In . SVG Version: 6.00 Build 0)  -->
<!DOCTYPE svg PUBLIC "-//W3C//DTD SVG 1.1//EN" "http://www.w3.org/Graphics/SVG/1.1/DTD/svg11.dtd">
<svg version="1.1" id="Capa_1" xmlns="http://www.w3.org/2000/svg" xmlns:xlink="http://www.w3.org/1999/xlink" x="0px" y="0px"
	 width="50px" height="50px" viewBox="0 0 50 50" enable-background="new 0 0 50 50" xml:space="preserve">
<circle cx="25" cy="25" r="6"/>
<path d="M34.699,25c0,5.3-4.299,9.7-9.699,9.7c-5.4,0-9.7-4.3-9.7-9.7c0-0.8,0.1-1.6,0.3-2.4h-2.7v13.2c0,0.7,0.6,1.3,1.3,1.3
	h21.601c0.699,0,1.299-0.6,1.299-1.3V22.6H34.4C34.6,23.4,34.699,24.2,34.699,25z"/>
<path d="M35.9,12.8h-3.6C31.6,12.8,31,13.4,31,14.1v3.6c0,0.7,0.6,1.3,1.301,1.3h3.6c0.699,0,1.299-0.6,1.299-1.3v-3.6
	C37.1,13.4,36.6,12.8,35.9,12.8z"/>
<path d="M25,0C11.2,0,0,11.2,0,25s11.2,25,25,25c13.801,0,25-11.2,25-25S38.801,0,25,0z M40.699,37.3c0,1.9-1.5,3.5-3.5,3.5H12.7
	c-1.899,0-3.5-1.5-3.5-3.5V12.7c0-1.9,1.5-3.5,3.5-3.5h24.5c1.9,0,3.5,1.5,3.5,3.5V37.3z"/>
</svg>
