<svg xmlns="http://www.w3.org/2000/svg" width="50" height="50" viewBox="0.64 791.846 50 50"><g fill="#666"><path d="M25.64 804.546c4 0 4.5 0 6.1.1 1.5.1 2.3.3 2.8.5.7.3 1.2.601 1.7 1.101s.8 1 1.1 1.699c.2.501.4 1.301.5 2.801.1 1.6.1 2.1.1 6.1s0 4.5-.1 6.1c-.1 1.5-.3 2.3-.5 2.801-.3.699-.6 1.199-1.1 1.699s-1 .801-1.7 1.101c-.5.2-1.3.399-2.8.5-1.6.1-2.1.1-6.1.1s-4.5 0-6.1-.1c-1.5-.101-2.3-.3-2.8-.5-.7-.3-1.2-.601-1.7-1.101s-.8-1-1.1-1.699c-.2-.501-.4-1.301-.5-2.801-.1-1.6-.1-2.1-.1-6.1s0-4.5.1-6.1c.1-1.5.3-2.3.5-2.801.3-.699.6-1.199 1.1-1.699s1-.801 1.7-1.101c.5-.2 1.3-.4 2.8-.5 1.6-.1 2.1-.1 6.1-.1m0-2.7c-4.1 0-4.6 0-6.2.1-1.6.101-2.7.301-3.6.7-1 .4-1.8.9-2.7 1.7-.8.8-1.3 1.7-1.7 2.7-.4 1-.6 2-.7 3.6-.1 1.601-.1 2.101-.1 6.2s0 4.6.1 6.2c.1 1.6.3 2.7.7 3.6.4 1 .9 1.8 1.7 2.7.8.8 1.7 1.3 2.7 1.7 1 .399 2 .6 3.6.7 1.6.1 2.1.1 6.2.1s4.6 0 6.2-.1c1.6-.101 2.7-.301 3.6-.7 1-.4 1.8-.9 2.7-1.7.8-.8 1.3-1.7 1.7-2.7.4-1 .6-2 .7-3.6.1-1.601.1-2.101.1-6.2s0-4.6-.1-6.2c-.1-1.6-.3-2.7-.7-3.6-.4-1-.9-1.8-1.7-2.7-.8-.8-1.7-1.3-2.7-1.7-1-.399-2-.6-3.6-.7-1.6-.1-2.1-.1-6.2-.1z"/><path d="M25.64 809.146c-4.3 0-7.7 3.4-7.7 7.7s3.4 7.7 7.7 7.7 7.7-3.4 7.7-7.7-3.4-7.7-7.7-7.7zm0 12.7c-2.8 0-5-2.2-5-5s2.2-5 5-5 5 2.2 5 5-2.2 5-5 5z"/><circle cx="33.64" cy="808.846" r="1.8"/></g></svg>