<?xml version="1.0" encoding="utf-8"?>
<!-- Generator: Adobe Illustrator 15.0.0, SVG Export Plug-In . SVG Version: 6.00 Build 0)  -->
<!DOCTYPE svg PUBLIC "-//W3C//DTD SVG 1.1//EN" "http://www.w3.org/Graphics/SVG/1.1/DTD/svg11.dtd">
<svg version="1.1" id="Layer_1" xmlns="http://www.w3.org/2000/svg" xmlns:xlink="http://www.w3.org/1999/xlink" x="0px" y="0px"
	 width="963.779px" height="651.969px" viewBox="0 0 963.779 651.969" enable-background="new 0 0 963.779 651.969"
	 xml:space="preserve">
<g>
	<path fill="#00AFF0" d="M789.083,395.195c4.686-21.246,7.169-43.206,7.169-65.798c0-169.302-139.175-306.582-310.9-306.582
		c-18.109,0-35.874,1.549-53.148,4.482C404.42,10.023,371.54,0,336.3,0c-99.613,0-180.323,79.608-180.323,177.837
		c0,32.797,9.064,63.516,24.771,89.938c-4.135,19.901-6.294,40.517-6.294,61.622c0,169.363,139.175,301.53,310.88,301.53
		c19.454,0,38.481-1.772,56.917-5.134c25.402,13.444,54.411,26.177,85.252,26.177c99.594,0,180.303-79.589,180.303-177.817
		C807.805,445.818,801.061,418.988,789.083,395.195z"/>
	<path fill="#FFFFFF" d="M627.154,454.535c-11.998,17.051-29.56,30.454-52.679,40.09c-23.122,9.716-50.499,14.524-82.176,14.524
		c-37.99,0-69.322-6.602-94.032-19.821c-17.479-9.492-31.716-22.204-42.676-38.054c-10.92-15.849-16.397-31.289-16.397-46.304
		c0-8.678,3.28-16.133,9.839-22.307c6.559-6.254,14.932-9.329,25.057-9.329c8.23,0,15.216,2.384,20.88,7.253
		c5.703,4.828,10.572,11.978,14.564,21.49c4.909,11.307,10.186,20.738,15.909,28.295c5.664,7.557,13.69,13.831,23.997,18.74
		c10.349,4.869,23.936,7.353,40.721,7.353c23.102,0,41.882-4.93,56.346-14.851c14.422-9.88,21.674-22.285,21.674-37.096
		c0-11.734-3.911-21.33-11.693-28.603c-7.803-7.332-17.865-12.936-30.211-16.784c-12.324-3.892-28.825-8.006-49.521-12.345
		c-27.644-5.928-50.806-12.937-69.423-20.88c-18.639-8.006-33.468-18.863-44.388-32.613c-10.96-13.811-16.42-30.922-16.42-51.354
		c0-19.514,5.765-36.809,17.335-51.944c11.551-15.155,28.234-26.787,50.152-34.937c21.877-8.147,47.628-12.202,77.186-12.202
		c23.629,0,44.081,2.71,61.336,8.067c17.255,5.419,31.535,12.589,42.9,21.532c11.387,8.944,19.718,18.313,24.954,28.152
		c5.256,9.778,7.883,19.434,7.883,28.723c0,8.534-3.26,16.276-9.818,23.102c-6.559,6.845-14.748,10.286-24.547,10.286
		c-8.944,0-15.727-2.079-20.372-6.172c-4.646-4.114-9.676-10.837-15.075-20.188c-7.028-13.363-15.399-23.793-25.218-31.27
		c-9.819-7.496-25.545-11.244-47.262-11.244c-20.104,0-36.361,4.035-48.707,12.202c-12.345,8.107-18.536,17.926-18.536,29.354
		c0,7.049,2.139,13.2,6.314,18.354c4.176,5.193,9.962,9.574,17.355,13.263c7.313,3.707,14.769,6.601,22.284,8.737
		c7.517,2.1,19.965,5.134,37.319,9.168c21.675,4.665,41.332,9.839,58.934,15.462c17.581,5.644,32.573,12.509,44.918,20.513
		c12.325,8.066,21.98,18.293,28.886,30.638c6.906,12.305,10.39,27.397,10.39,45.285
		C645.142,418.214,639.114,437.464,627.154,454.535z"/>
</g>
</svg>
