<svg xmlns="http://www.w3.org/2000/svg" width="50" height="50"><path fill="#FFF" d="M25.264 0C11.699 0 .662 11.036.662 24.601c0 4.462 1.184 8.763 3.439 12.552L.135 50l13.576-3.677a24.535 24.535 0 0 0 11.553 2.878c13.564 0 24.602-11.035 24.602-24.6C49.865 11.036 38.828 0 25.264 0m0 45.187a20.488 20.488 0 0 1-10.988-3.177l-.291.08-7.861 2.127 2.371-7.676a20.49 20.49 0 0 1-3.816-11.94c0-11.368 9.217-20.585 20.586-20.585 11.367 0 20.584 9.217 20.584 20.585.001 11.368-9.216 20.586-20.585 20.586"/><path fill="#FFF" d="M20.624 18.85s.726 1.111 0 2.009c-.727.896-1.325 1.58-1.325 1.58s-.641.47 0 1.409c.642.941 3.29 5 7.86 6.793 0 0 1.41.599 2.01-.768l1.45-1.88s.343-.471 1.454 0c1.11.47 4.613 2.177 4.613 2.177s.642.215.514 1.154c-.128.94-.47 4.571-5.511 4.957 0 0-4.871.171-10.341-4.06-3.417-2.644-5.837-5.937-7.171-8.235a27.085 27.085 0 0 1-.252-.445c-.693-1.402-1.206-2.94-1.137-4.44 0-.171.005-.35.018-.534.11-1.64.778-3.595 3.245-4.717 0 0 2.008-.298 2.35 0l2.223 5z"/><path fill="none" d="M0 0h50v50H0z"/></svg>