<svg xmlns="http://www.w3.org/2000/svg" width="50" height="50" viewBox="0 0 50 50">
  <g fill="#ADE513">
    <path d="M24.688 19.033c.108.003.26-.02.34-.05.366-.14.406-.448.406-3.073 0-1.677-.034-2.587-.102-2.735-.226-.5-1.004-.5-1.232 0-.067.148-.102 1.058-.102 2.735 0 2.93.04 3.1.69 3.123z"/>
    <path d="M25 0C11.2 0 0 11.2 0 25s11.2 25 25 25 25-11.2 25-25S38.8 0 25 0zm5.1 11.327v3.755c0 3.214.02 3.772.133 3.867.2.163.522.043.887-.333l.326-.335v-6.956h1.704v9.058h-1.704v-.91l-.428.376c-.232.21-.555.435-.714.5-.37.16-.99.153-1.292-.01-.13-.07-.31-.28-.402-.468-.156-.315-.172-.637-.195-4.443l-.027-4.104h1.71zm-3.588.7c.54.653.583.945.583 3.873 0 2.316-.02 2.703-.16 3.108-.218.622-.855 1.222-1.504 1.414-.61.182-.912.176-1.52-.034-.36-.123-.604-.29-.904-.615-.63-.683-.666-.886-.666-3.917 0-2.922.044-3.196.633-3.883.822-.96 2.724-.932 3.54.053zM17.3 8.296c.526-.017.924.01.955.062.032.047.317 1.08.637 2.29s.6 2.2.625 2.2c.025 0 .26-.816.523-1.816s.538-2.027.61-2.287l.134-.47h.945c.77 0 .936.022.897.124-.025.07-.537 1.684-1.132 3.585l-1.083 3.46v4.94H18.62l-.002-2.49v-2.488l-1.108-3.543L16.4 8.32l.9-.024zM36.722 40.99c-.705.344-1.165.424-3.154.544-2.165.127-10.988.18-13.937.082-4.383-.146-5.57-.46-6.376-1.677-.326-.492-.692-1.593-.81-2.435-.407-2.947-.307-9.095.184-11.213.446-1.918 1.493-2.858 3.404-3.054 1.876-.192 6.766-.298 11.526-.247 5.134.055 7.553.166 8.43.385 1.71.428 2.54 1.688 2.83 4.298.054.492.12 2.215.15 3.827.11 6.506-.38 8.576-2.247 9.49z"/>
  </g>
  <path fill="#ADE513" d="M21.787 38.07c.15-.08.452-.306.667-.504l.393-.363v.92h1.704v-8.97h-1.703v6.838l-.392.393c-.42.422-.59.474-.813.253-.123-.124-.14-.595-.14-3.812v-3.672h-1.707v3.886c0 4.286.036 4.625.52 4.983.307.23 1.075.255 1.472.05zM30.334 29.633c-.208-.357-.705-.66-1.087-.66-.367 0-.895.247-1.295.608l-.44.396v-3.872H25.9v12.02h1.613v-.83l.368.334c.204.183.495.39.65.456.417.18 1.126.16 1.46-.042.155-.096.37-.36.492-.605.21-.427.216-.486.244-3.393.034-3.19-.02-3.764-.392-4.41zm-1.508 6.808c-.23.294-.545.39-.977.137l-.338-.194v-5.5l.4-.21c.32-.173.444-.195.648-.124.442.153.49.497.46 3.298 0 0 .037 2.295-.194 2.593zM35.047 34.983v.533c0 .65-.102.935-.403 1.132-.34.223-.76.08-.964-.322-.124-.244-.156-.54-.156-1.365v-1.054h3.23V32.59c0-1.658-.132-2.186-.69-2.81-.494-.55-1.023-.767-1.822-.752-.662.014-1.105.177-1.573.587-.76.668-.877 1.263-.83 4.29.028 1.968.062 2.448.19 2.787.216.578.612 1.017 1.152 1.288.61.303 1.61.324 2.225.043.866-.393 1.258-1.058 1.325-2.255l.045-.785h-1.73zm-1.524-3.096c0-1.116.285-1.496 1.005-1.34.36.08.52.484.52 1.34v.675h-1.524v-.675z"/>
  <path fill="#ADE513" d="M18.094 32.965v-5.157h1.975v-1.704h-5.653v1.704H16.3v10.315h1.794"/>
</svg>
