<svg xmlns="http://www.w3.org/2000/svg" width="30" height="30" viewBox="-3 -3 30 30">
  <path fill="#FFF" d="M22.182.545H1.818A3.823 3.823 0 0 0-2 4.364v15.273a3.822 3.822 0 0 0 3.818 3.817h20.363a3.822 3.822 0 0 0 3.818-3.817V4.364A3.821 3.821 0 0 0 22.182.545zM1.818 3.091h20.363c.499 0 .919.294 1.128.711L12 11.719.69 3.802c.21-.417.631-.711 1.128-.711zm20.364 17.818H1.818c-.702 0-1.273-.57-1.273-1.272V6.808l10.725 7.508a1.272 1.272 0 0 0 1.458 0l10.725-7.508v12.829a1.271 1.271 0 0 1-1.271 1.272z"/>
</svg>
