<svg xmlns="http://www.w3.org/2000/svg" width="30" height="30" viewBox="-3 -3 30 30">
  <path fill="#FFF" d="M24.236 7.177L12.782-1.732a1.277 1.277 0 0 0-1.563 0L-.236 7.177c-.31.241-.492.612-.492 1.005v14A3.823 3.823 0 0 0 3.09 26h17.818a3.823 3.823 0 0 0 3.818-3.818v-14a1.266 1.266 0 0 0-.49-1.005zm-9.69 16.278H9.455V13.272h5.091v10.183zm7.636-1.273c0 .702-.57 1.273-1.272 1.273h-3.818V12c0-.703-.569-1.273-1.272-1.273H8.182c-.703 0-1.272.57-1.272 1.273v11.455H3.091a1.274 1.274 0 0 1-1.273-1.273V8.804L12 .885l10.182 7.919v13.378z"/>
</svg>
