<svg xmlns="http://www.w3.org/2000/svg" width="30" height="30" viewBox="0 0 30 30"><circle cx="15" cy="15" r="15" fill="#2862B4"/><path d="M22 8H8c-1.3 0-2.3 1-2.3 2.3v9.3c0 1.3 1 2.3 2.3 2.3H22c1.3 0 2.3-1 2.3-2.3v-9.3C24.3 9.1 23.3 8 22 8zM18.2 14.2l4.9-4.2c0 0.1 0.1 0.2 0.1 0.3v9.3c0 0.1 0 0.2 0 0.2L18.2 14.2zM22 9.2c0.1 0 0.1 0 0.2 0L15 15.4l-7.2-6.2c0.1 0 0.1 0 0.2 0H22zM6.9 19.9c0-0.1 0-0.1 0-0.2v-9.3c0-0.1 0-0.2 0.1-0.3l4.9 4.2L6.9 19.9zM8 20.8c-0.1 0-0.2 0-0.3-0.1l5-5.8 1.9 1.6c0.1 0.1 0.2 0.1 0.4 0.1 0.1 0 0.3 0 0.4-0.1l1.9-1.6 5 5.8c-0.1 0-0.2 0.1-0.3 0.1H8z" fill="#FFF"/></svg>