<svg xmlns="http://www.w3.org/2000/svg" width="45" height="45" viewBox="0 0 45.3 45.3"><style>.a{fill:#FFF;}</style><circle cx="22.6" cy="22.6" r="22.6" fill="#979797"/><path d="M29.3 15.2c-1.7-1.7-4-2.6-6.4-2.6 -0.5 0-0.9 0.4-0.9 0.9 0 0.5 0.4 0.9 0.9 0.9 1.9 0 3.8 0.8 5.1 2.1s2.1 3.2 2.1 5.1c0 0.5 0.4 0.9 0.9 0.9s0.9-0.4 0.9-0.9C31.9 19.2 31 17 29.3 15.2z" class="a"/><path d="M32.5 12c-2.6-2.6-6-4-9.6-4 -0.5 0-0.9 0.4-0.9 0.9s0.4 0.9 0.9 0.9c3.2 0 6.1 1.2 8.3 3.5 2.2 2.2 3.5 5.2 3.5 8.3 0 0.5 0.4 0.9 0.9 0.9 0.5 0 0.9-0.4 0.9-0.9C36.5 18 35.1 14.6 32.5 12z" class="a"/><path d="M26 18.5c-0.9-0.9-2-1.3-3.2-1.3l0 0c-0.5 0-0.9 0.4-0.9 0.9 0 0.5 0.4 0.9 0.9 0.9l0 0c0.7 0 1.4 0.3 1.9 0.8 0.5 0.5 0.8 1.2 0.8 1.9 0 0.5 0.4 0.9 0.9 0.9l0 0c0.5 0 0.9-0.4 0.9-0.9C27.4 20.4 26.9 19.3 26 18.5z" class="a"/><path d="M13.1 9.2c-1.2 0-2.3 1.1-3.3 2.2 -0.2 0.2-0.4 0.4-0.6 0.6 -0.9 0.9-0.8 3.4 0.2 6.2 1.3 3.5 4 7.4 7.4 10.8 3.5 3.5 7.3 6.1 10.8 7.4 2.8 1.1 5.3 1.2 6.2 0.2 0.2-0.2 0.4-0.4 0.6-0.6 1-1 2.2-2.1 2.2-3.3 0-0.9-0.7-1.8-1.8-2.7 -3.6-2.9-4.6-1.9-6.2-0.2l-0.3 0.3c-0.8 0.8-2.1 0.6-3.8-0.5 -1.2-0.8-2.7-2.1-4.4-3.8 -4.3-4.3-5.6-6.9-4.3-8.2l0.3-0.3c1.7-1.7 2.7-2.6-0.2-6.2C14.9 9.8 14 9.2 13.2 9.2 13.1 9.2 13.1 9.2 13.1 9.2z" class="a"/></svg>