<svg xmlns="http://www.w3.org/2000/svg" width="30" height="30" viewBox="-3 -3 30 30">
  <path fill="#FFF" d="M21.104 26a3.66 3.66 0 0 1-.349-.015 25.518 25.518 0 0 1-11.089-3.941 25.168 25.168 0 0 1-7.694-7.697A25.501 25.501 0 0 1-1.96 3.233 3.65 3.65 0 0 1-1.126.538 3.646 3.646 0 0 1 1.685-.779h3.664C7.207-.833 8.744.558 9 2.372c.145 1.09.41 2.155.79 3.176a3.67 3.67 0 0 1-.826 3.862l-.88.881a18.347 18.347 0 0 0 5.6 5.601l.876-.876a3.68 3.68 0 0 1 3.871-.831c1.018.381 2.081.646 3.16.79a3.662 3.662 0 0 1 3.163 3.703v3.649c.004.974-.373 1.895-1.063 2.59S22.084 25.996 21.104 26zM5.372 1.664H1.685c-.433.034-.727.188-.935.439-.21.25-.309.567-.279.892a23.005 23.005 0 0 0 3.558 10.033 22.742 22.742 0 0 0 6.957 6.962 23.062 23.062 0 0 0 10.016 3.566h.007c.415 0 .72-.128.948-.358.229-.232.355-.539.354-.865v-3.669-.031a1.217 1.217 0 0 0-1.05-1.237 16.914 16.914 0 0 1-3.688-.922 1.219 1.219 0 0 0-1.292.275l-1.545 1.545c-.391.39-.994.469-1.468.198a20.764 20.764 0 0 1-7.785-7.785 1.222 1.222 0 0 1 .198-1.467l1.551-1.551c.33-.333.438-.838.27-1.283a17.08 17.08 0 0 1-.922-3.704 1.221 1.221 0 0 0-1.208-1.038zm14.496 8.487a1.22 1.22 0 0 1-1.198-.987 4.863 4.863 0 0 0-3.859-3.859 1.222 1.222 0 0 1 .468-2.398 7.296 7.296 0 0 1 5.789 5.789 1.222 1.222 0 0 1-1.2 1.455zm4.885-.012a1.222 1.222 0 0 1-1.213-1.084 9.72 9.72 0 0 0-8.63-8.62 1.221 1.221 0 0 1-1.079-1.348 1.227 1.227 0 0 1 1.349-1.079A12.148 12.148 0 0 1 25.968 8.781a1.222 1.222 0 0 1-1.215 1.358z"/>
</svg>
