<?xml version="1.0" encoding="utf-8"?>
<!DOCTYPE svg PUBLIC "-//W3C//DTD SVG 1.1//EN" "http://www.w3.org/Graphics/SVG/1.1/DTD/svg11.dtd">
<svg version="1.1" id="Capa_1" xmlns="http://www.w3.org/2000/svg" xmlns:xlink="http://www.w3.org/1999/xlink" x="0px" y="0px"
	 width="100px" height="100px" viewBox="0 0 100 100" enable-background="new 0 0 100 100" xml:space="preserve">
<g>
	<path d="M49.999,97C24.083,97,3,75.917,3,50.001C3,24.085,24.083,3,49.999,3C75.916,3,97,24.085,97,50.001
		C97,75.917,75.916,97,49.999,97z"/>
	<path fill="#DD1010" d="M49.999,6C74.261,6,94,25.739,94,50.001C94,74.262,74.261,94,49.999,94C25.738,94,6,74.262,6,50.001
		C6,25.739,25.738,6,49.999,6 M49.999,0C22.382,0,0,22.382,0,50.001C0,77.619,22.382,100,49.999,100
		C77.618,100,100,77.619,100,50.001C100,22.382,77.618,0,49.999,0L49.999,0z"/>
</g>
<g>
	<polygon fill="#C60C0C" points="79.82,68.143 67.569,80.405 19.585,32.443 31.856,20.162 	"/>
	<polygon fill="#C60C0C" points="68.124,19.596 80.415,31.868 32.431,79.85 20.16,67.568 	"/>
</g>
</svg>
