<svg xmlns="http://www.w3.org/2000/svg" width="55" height="55">
  <path fill="#FFF" d="M30 0H0v55h42V12L30 0z"/>
  <path fill="#666" d="M30 0H0v55h42V12L30 0zm0 2.828L39.172 12H30V2.828zM2 53V2h26v12h12v39H2z"/>
  <g fill="#DC0000">
    <path d="M8.584 28.561h6.196l1.959 1.96-1.225 6.833-1.959 1.935H9.638l-1.078 6.17H5.597l2.987-16.898zm1.47 8.4h2.155l.489-.489.906-5.095-.514-.489h-1.96l-1.076 6.073zM18.894 28.561h6.123l1.959 1.96L24.674 43.5l-1.96 1.959h-6.808l2.988-16.898zm2.498 14.4l.49-.489 1.935-10.923-.49-.49h-1.935l-2.081 11.902h2.081zM29.473 28.561h6.93l-.465 2.597h-3.967l-.832 4.751h3.574l-.439 2.571h-3.602l-1.225 6.979h-2.962l2.988-16.898z"/>
  </g>
</svg>
