<svg xmlns="http://www.w3.org/2000/svg" width="20" height="20" viewBox="0 0 20 20"><path d="M14.2 10c2.8-2.8 5.2-5.2 5.2-5.2 0.8-0.8 0.8-1.6 0.1-2.3 -0.1-0.1-1.9-1.9-2-2C16.8-0.2 16-0.2 15.2 0.6c-0.2 0.2-2.5 2.5-5.2 5.2C7.2 3 4.8 0.6 4.8 0.6c-0.8-0.8-1.6-0.8-2.3-0.1 -0.1 0.1-2 2-2 2l0 0c-0.6 0.7-0.6 1.5 0.1 2.2 0 0 2.4 2.4 5.2 5.2 -2.8 2.8-5.2 5.2-5.2 5.2 -0.8 0.8-0.8 1.6-0.1 2.3 0.1 0.1 2 2 2 2l0 0c0.7 0.6 1.5 0.6 2.2-0.1 0 0 2.4-2.4 5.2-5.2 2.8 2.8 5.2 5.2 5.2 5.2 0.8 0.8 1.6 0.8 2.3 0.1 0.1-0.1 1.9-1.9 2-2 0.7-0.7 0.7-1.6-0.1-2.3C19.2 14.9 16.9 12.7 14.2 10z" fill="#a8a8a8"/></svg>