<svg xmlns="http://www.w3.org/2000/svg" width="25" height="25" viewBox="0 0 25 25"><path d="M25 23.5c0-0.1 0-0.1 0-0.2 0-0.3 0-0.7 0-1.1 0-0.1 0-0.2 0-0.3 -0.1-0.5-0.2-1-0.6-1.4 -0.1-0.1-0.3-0.3-0.4-0.4 0 0 0 0-0.1-0.1 0 0 0 0 0 0 -0.5-0.3-1.1-0.6-1.7-0.9 -6-2.8-6.4-3.1-6.4-3.7l0 0v-0.9c2-1.3 3.3-3.9 3.3-6.9 0-3.9-2.4-7.2-5.4-7.8 -0.1 0-0.1 0-0.2 0 0 0 0 0-0.1 0C13 0 12.8 0 12.5 0c0 0 0 0 0 0h0c0 0 0 0 0 0 0 0 0 0 0 0l0 0c0 0 0 0 0 0 -0.3 0-0.5 0-0.8 0.1 0 0 0 0-0.1 0 -0.1 0-0.1 0-0.2 0C8.4 0.7 6 3.9 6 7.9c0 3 1.4 5.5 3.3 6.9v0.9l0 0c0 0.6-0.5 0.9-6.4 3.7 -0.5 0.3-1.2 0.5-1.7 0.9 0 0 0 0 0 0 0 0 0 0-0.1 0.1 -0.2 0.1-0.3 0.2-0.4 0.4C0.3 21 0.1 21.5 0 22c0 0.1 0 0.2 0 0.3 0 0.3 0 0.7 0 1 0 0.1 0 0.1 0 0.2 0 0.1 0 0.2 0 0.3 0 0.4 0.1 0.7 0.5 1 0 0 0 0 0 0C0.6 24.9 0.8 25 0.9 25c0.1 0 0.1 0 0.2 0 0.3 0 22.2 0 22.3 0 0.1 0 0.3 0 0.4 0 0.1 0 0.1 0 0.2 0 0.2 0 0.3-0.1 0.4-0.1 0 0 0 0 0 0 0.4-0.2 0.4-0.6 0.5-1C25 23.7 25 23.6 25 23.5z"/></svg>