<?xml version="1.0" encoding="utf-8"?>
<!-- Generator: Adobe Illustrator 15.0.0, SVG Export Plug-In . SVG Version: 6.00 Build 0)  -->
<!DOCTYPE svg PUBLIC "-//W3C//DTD SVG 1.1//EN" "http://www.w3.org/Graphics/SVG/1.1/DTD/svg11.dtd">
<svg version="1.1" id="Capa_1" xmlns="http://www.w3.org/2000/svg" xmlns:xlink="http://www.w3.org/1999/xlink" x="0px" y="0px"
	 width="10px" height="10.418px" viewBox="284.763 495.811 10 10.418" enable-background="new 284.763 495.811 10 10.418"
	 xml:space="preserve">
<path fill="#F94848" d="M286.313,506.207c-0.229-0.033-0.429-0.079-0.443-0.103c-0.015-0.023-0.082-0.132-0.15-0.24
	c-0.19-0.304-0.324-0.633-0.538-1.329c-0.382-1.24-0.456-1.563-0.405-1.758c0.079-0.301,0.763-0.728,1.188-0.741
	c0.343-0.01,0.383,0.019,0.583,0.432c0.118,0.244,0.291,0.632,0.384,0.862c0.094,0.23,0.23,0.418,0.304,0.418
	s0.351-0.343,0.617-0.763c0.266-0.419,0.525-0.81,0.576-0.868c0.051-0.058,0.15-0.212,0.219-0.345
	c0.299-0.566,2.721-3.887,3.441-4.72c0.164-0.189,0.298-0.377,0.298-0.417s0.233-0.224,0.517-0.408
	c0.388-0.252,0.664-0.349,1.108-0.391c0.822-0.078,0.899-0.003,0.553,0.533c-0.156,0.24-0.367,0.526-0.47,0.634
	c-0.103,0.108-0.407,0.485-0.677,0.837c-0.27,0.352-0.539,0.684-0.598,0.738c-0.06,0.054-0.212,0.253-0.34,0.443
	c-0.128,0.189-0.257,0.367-0.286,0.394c-0.258,0.235-3.02,4.08-3.254,4.529c-0.07,0.135-0.154,0.269-0.187,0.295
	s-0.316,0.436-0.629,0.907c-0.313,0.473-0.618,0.888-0.676,0.924C287.238,506.203,286.718,506.266,286.313,506.207L286.313,506.207z
	"/>
</svg>
