<svg xmlns="http://www.w3.org/2000/svg" width="10" height="10" viewBox="284.8 495.8 10 10.4"><path d="M286.3 506.2c-0.2 0-0.4-0.1-0.4-0.1 0 0-0.1-0.1-0.1-0.2 -0.2-0.3-0.3-0.6-0.5-1.3 -0.4-1.2-0.5-1.6-0.4-1.8 0.1-0.3 0.8-0.7 1.2-0.7 0.3 0 0.4 0 0.6 0.4 0.1 0.2 0.3 0.6 0.4 0.9 0.1 0.2 0.2 0.4 0.3 0.4s0.4-0.3 0.6-0.8c0.3-0.4 0.5-0.8 0.6-0.9 0.1-0.1 0.2-0.2 0.2-0.3 0.3-0.6 2.7-3.9 3.4-4.7 0.2-0.2 0.3-0.4 0.3-0.4s0.2-0.2 0.5-0.4c0.4-0.3 0.7-0.3 1.1-0.4 0.8-0.1 0.9 0 0.6 0.5 -0.2 0.2-0.4 0.5-0.5 0.6 -0.1 0.1-0.4 0.5-0.7 0.8 -0.3 0.4-0.5 0.7-0.6 0.7 -0.1 0.1-0.2 0.3-0.3 0.4 -0.1 0.2-0.3 0.4-0.3 0.4 -0.3 0.2-3 4.1-3.3 4.5 -0.1 0.1-0.2 0.3-0.2 0.3s-0.3 0.4-0.6 0.9c-0.3 0.5-0.6 0.9-0.7 0.9C287.2 506.2 286.7 506.3 286.3 506.2L286.3 506.2z" fill="#1ebb0c"/></svg>