<?xml version="1.0" encoding="utf-8"?>

<!DOCTYPE svg PUBLIC "-//W3C//DTD SVG 1.1//EN" "http://www.w3.org/Graphics/SVG/1.1/DTD/svg11.dtd">
<svg version="1.1" id="Capa_1" xmlns="http://www.w3.org/2000/svg" xmlns:xlink="http://www.w3.org/1999/xlink" x="0px" y="0px"
	 width="50px" height="50px" viewBox="0 0 50 50" enable-background="new 0 0 50 50" xml:space="preserve">
<g>
	<g>
		<defs>
			<path id="SVGID_1_" d="M20.3,18.115l12.297,6.416l-12.296,6.372L20.3,18.115z M24.99,8.995c0,0-9.553,0-15.923,0.46
				C8.178,9.562,6.239,9.57,4.508,11.383C3.143,12.765,2.699,15.9,2.699,15.9s-0.456,3.683-0.456,7.366v3.453
				c0,3.682,0.456,7.365,0.456,7.365s0.443,3.137,1.809,4.519c1.73,1.813,4.005,1.754,5.018,1.944
				C13.167,40.897,25,41.005,25,41.005s9.563-0.015,15.932-0.475c0.891-0.106,2.83-0.114,4.561-1.927
				c1.364-1.382,1.809-4.519,1.809-4.519s0.455-3.684,0.455-7.365v-3.453c0-3.684-0.455-7.366-0.455-7.366s-0.444-3.136-1.809-4.518
				c-1.73-1.813-3.67-1.821-4.561-1.928c-6.369-0.46-15.922-0.46-15.922-0.46H24.99z"/>
		</defs>
		<clipPath id="SVGID_2_">
			<use xlink:href="#SVGID_1_"  overflow="visible"/>
		</clipPath>
		<rect x="2.244" y="8.995" clip-path="url(#SVGID_2_)" fill="#666766" width="45.512" height="32.01"/>
	</g>
	<polygon opacity="0.12" fill-rule="evenodd" clip-rule="evenodd" fill="#3C1312" points="20.3,18.115 31.084,25.316 32.597,24.531 
			"/>
</g>
</svg>
