<?xml version="1.0" encoding="utf-8"?>
<!DOCTYPE svg PUBLIC "-//W3C//DTD SVG 1.1//EN" "http://www.w3.org/Graphics/SVG/1.1/DTD/svg11.dtd">
<svg version="1.1"
	 id="svg94" xmlns:dc="http://purl.org/dc/elements/1.1/" xmlns:cc="http://creativecommons.org/ns#" xmlns:rdf="http://www.w3.org/1999/02/22-rdf-syntax-ns#" xmlns:inkscape="http://www.inkscape.org/namespaces/inkscape" xmlns:svg="http://www.w3.org/2000/svg" xmlns:sodipodi="http://sodipodi.sourceforge.net/DTD/sodipodi-0.dtd" inkscape:version="1.0rc1 (09960d6f05, 2020-04-09)" sodipodi:docname="social_wa.svg"
	 xmlns="http://www.w3.org/2000/svg" xmlns:xlink="http://www.w3.org/1999/xlink" x="0px" y="0px" width="100px" height="100px"
	 viewBox="0 0 100 100" enable-background="new 0 0 100 100" xml:space="preserve">
<path fill="#D1D1D1" d="M0.243,100l8.104-26.24C3.978,66.3,1.67,57.762,1.67,49.044C1.67,22.001,23.671,0,50.713,0
	c27.041,0,49.042,22.001,49.044,49.044c0,27.042-22,49.042-49.042,49.042c-7.925,0-15.771-1.933-22.752-5.59L0.243,100z"/>
<g>
	<defs>
		<path id="SVGID_1_" d="M7.849,29.846c-2.644,5.852-4.11,12.349-4.11,19.19c0,10.675,3.579,20.516,9.605,28.384
			c1.244,1.626-2.566,10.221-1.122,11.668c1.61,1.614,8.498-3.939,10.33-2.573c7.789,5.811,17.451,9.251,27.916,9.251
			c25.807,0,46.728-20.92,46.728-46.73c0-6.842-1.467-13.337-4.11-19.19C85.764,13.614,69.43,2.308,50.465,2.308
			C31.503,2.308,15.167,13.614,7.849,29.846"/>
	</defs>
	<clipPath id="SVGID_2_">
		<use xlink:href="#SVGID_1_"  overflow="visible"/>
	</clipPath>
	
		<radialGradient id="path78_1_" cx="-1106.5874" cy="716.2852" r="1.0322" gradientTransform="matrix(-39.3295 58.1853 58.1856 39.3293 -85120.3906 36234.1719)" gradientUnits="userSpaceOnUse">
		<stop  offset="0" style="stop-color:#39B54A"/>
		<stop  offset="0.073" style="stop-color:#39B54A"/>
		<stop  offset="0.259" style="stop-color:#36AF47"/>
		<stop  offset="0.516" style="stop-color:#2C9D3F"/>
		<stop  offset="0.815" style="stop-color:#1D7F32"/>
		<stop  offset="0.896" style="stop-color:#18762E"/>
		<stop  offset="1" style="stop-color:#18762E"/>
	</radialGradient>
	<path id="path78" inkscape:connector-curvature="0" clip-path="url(#SVGID_2_)" fill="url(#path78_1_)" d="M140.556,31.618
		L67.89,139.127L-39.622,66.458l72.668-107.51L140.556,31.618z"/>
</g>
<g id="g104_1_" transform="matrix(0.60557647,0,0,0.60557331,-10.099427,-7.6701911)">
	<path id="path90_1_" inkscape:connector-curvature="0" fill="#FFFFFF" d="M100.421,13.983c-43.929,0-79.668,35.736-79.668,79.671
		c0,14.453,3.83,28.377,11.137,40.645l-12.846,41.603l43.966-11.901c11.516,6.13,24.365,9.331,37.414,9.319
		c43.928,0,79.667-35.737,79.667-79.666C180.087,49.722,144.352,13.983,100.421,13.983 M100.421,160.315
		c-12.598,0.019-24.941-3.546-35.586-10.284l-0.942,0.256l-25.457,6.894l7.676-24.862c-8.055-11.282-12.374-24.805-12.354-38.665
		c0-36.818,29.843-66.665,66.662-66.665c36.814,0,66.662,29.847,66.662,66.665C167.086,130.467,137.235,160.315,100.421,160.315"/>
	<path id="path92_1_" inkscape:connector-curvature="0" fill="#FFFFFF" d="M87.278,74.026c0,0,2.351,3.597,0,6.505
		c-2.353,2.904-4.29,5.117-4.29,5.117s-2.075,1.524,0,4.564c2.075,3.047,10.655,16.192,25.457,21.999c0,0,4.564,1.94,6.505-2.483
		l4.699-6.091c0,0,1.109-1.524,4.706,0c3.599,1.521,14.943,7.05,14.943,7.05s2.075,0.695,1.661,3.741
		c-0.414,3.043-1.519,14.804-17.85,16.049c0,0-15.771,0.555-33.481-13.148c-11.069-8.561-18.905-19.224-23.225-26.666
		c-0.277-0.477-0.55-0.96-0.816-1.442c-2.246-4.544-3.907-9.526-3.682-14.38c0-0.556,0.015-1.134,0.055-1.73
		c0.361-5.311,2.522-11.644,10.513-15.275c0,0,6.504-0.968,7.608,0L87.278,74.026z"/>
</g>
</svg>
