<?xml version="1.0" encoding="UTF-8" standalone="no"?>
<svg
   xmlns:dc="http://purl.org/dc/elements/1.1/"
   xmlns:cc="http://creativecommons.org/ns#"
   xmlns:rdf="http://www.w3.org/1999/02/22-rdf-syntax-ns#"
   xmlns:svg="http://www.w3.org/2000/svg"
   xmlns="http://www.w3.org/2000/svg"
   xmlns:xlink="http://www.w3.org/1999/xlink"
   xmlns:sodipodi="http://sodipodi.sourceforge.net/DTD/sodipodi-0.dtd"
   xmlns:inkscape="http://www.inkscape.org/namespaces/inkscape"
   inkscape:version="1.0rc1 (09960d6f05, 2020-04-09)"
   width="100"
   height="100"
   version="1.1"
   id="svg94"
   sodipodi:docname="social_wa.svg">
  <metadata
     id="metadata98">
    <rdf:RDF>
      <cc:Work
         rdf:about="">
        <dc:format>image/svg+xml</dc:format>
        <dc:type
           rdf:resource="http://purl.org/dc/dcmitype/StillImage" />
        <dc:title></dc:title>
      </cc:Work>
    </rdf:RDF>
  </metadata>
  <sodipodi:namedview
     inkscape:current-layer="svg94"
     inkscape:window-maximized="1"
     inkscape:window-y="-4"
     inkscape:window-x="-4"
     inkscape:cy="57.060679"
     inkscape:cx="50.604628"
     inkscape:zoom="2.9931707"
     showgrid="false"
     id="namedview96"
     inkscape:window-height="749"
     inkscape:window-width="1366"
     inkscape:pageshadow="2"
     inkscape:pageopacity="0"
     guidetolerance="10"
     gridtolerance="10"
     objecttolerance="10"
     borderopacity="1"
     bordercolor="#666666"
     pagecolor="#ffffff" />
  <defs
     id="defs5">
    <filter
       height="30.801001"
       width="212.957"
       y="176.61301"
       x="1.021"
       filterUnits="userSpaceOnUse"
       id="a">
      <feColorMatrix
         id="feColorMatrix2"
         values="1 0 0 0 0 0 1 0 0 0 0 0 1 0 0 0 0 0 1 0" />
    </filter>
  </defs>
  <mask
     id="g"
     height="30.801"
     width="212.957"
     y="176.613"
     x="1.021"
     maskUnits="userSpaceOnUse">
    <g
       id="g42"
       filter="url(#a)">
      <defs
         id="defs8">
        <path
           inkscape:connector-curvature="0"
           d="m 1.021,176.613 h 212.957 v 30.801 H 1.021 Z"
           id="b" />
      </defs>
      <clipPath
         id="c">
        <use
           height="100%"
           width="100%"
           y="0"
           x="0"
           id="use10"
           overflow="visible"
           xlink:href="#b" />
      </clipPath>
      <path
         inkscape:connector-curvature="0"
         id="path13"
         d="M 0.466,176.512 H 214.422 V 207.51 H 0.466 Z"
         clip-path="url(#c)" />
      <g
         id="g40"
         enable-background="new">
        <defs
           id="defs16">
          <path
             inkscape:connector-curvature="0"
             d="m 1.026,192.209 c 0.502,-8.495 48.548,-15.488 107.366,-15.596 58.79,-0.102 106.029,6.713 105.583,15.221 -0.222,8.498 -48.341,15.471 -107.23,15.578 C 47.842,207.51 0.466,200.711 1.026,192.209"
             id="d" />
        </defs>
        <clipPath
           clip-path="url(#c)"
           id="e">
          <use
             height="100%"
             width="100%"
             y="0"
             x="0"
             id="use18"
             overflow="visible"
             xlink:href="#d" />
        </clipPath>
        <radialGradient
           gradientUnits="userSpaceOnUse"
           gradientTransform="matrix(-106.4991,0.1869,-0.7991,15.3955,-30637.967,-7347.943)"
           r="1"
           cy="493.29901"
           cx="-292.39401"
           id="f">
          <stop
             id="stop21"
             stop-color="#fff"
             offset="0" />
          <stop
             id="stop23"
             stop-color="#d1d1d1"
             offset=".121" />
          <stop
             id="stop25"
             stop-color="#939392"
             offset=".302" />
          <stop
             id="stop27"
             stop-color="#5f5f5e"
             offset=".476" />
          <stop
             id="stop29"
             stop-color="#373735"
             offset=".637" />
          <stop
             id="stop31"
             stop-color="#1a1a18"
             offset=".783" />
          <stop
             id="stop33"
             stop-color="#080806"
             offset=".909" />
          <stop
             id="stop35"
             stop-color="#020200"
             offset="1" />
        </radialGradient>
        <path
           inkscape:connector-curvature="0"
           id="path38"
           d="m 214.422,207.51 -215.584,0.378 1.628,-31.376 215.585,-0.379 z"
           fill="url(#f)"
           clip-path="url(#e)" />
      </g>
    </g>
  </mask>
  <defs
     id="defs58">
    <path
       inkscape:connector-curvature="0"
       d="m 26.763,67.132 c -5.005,11.085 -7.787,23.394 -7.787,36.356 0,48.889 39.636,88.525 88.525,88.525 48.888,0 88.525,-39.637 88.525,-88.525 0,-12.963 -2.784,-25.271 -7.79,-36.356 -13.868,-30.753 -44.81,-52.168 -80.735,-52.168 -35.927,0 -66.87,21.415 -80.738,52.168"
       id="j" />
  </defs>
  <clipPath
     id="k">
    <use
       height="100%"
       width="100%"
       y="0"
       x="0"
       id="use60"
       overflow="visible"
       xlink:href="#j" />
  </clipPath>
  <radialGradient
     gradientUnits="userSpaceOnUse"
     gradientTransform="matrix(-76.932362,113.8168,113.8168,76.932362,-80103.877,-5488.3751)"
     r="1"
     cy="506.60599"
     cx="-293.81799"
     id="l">
    <stop
       id="stop63"
       stop-color="#39b54a"
       offset="0" />
    <stop
       id="stop65"
       stop-color="#39b54a"
       offset=".073" />
    <stop
       id="stop67"
       stop-color="#36af47"
       offset=".259" />
    <stop
       id="stop69"
       stop-color="#2c9d3f"
       offset=".516" />
    <stop
       id="stop71"
       stop-color="#1d7f32"
       offset=".815" />
    <stop
       id="stop73"
       stop-color="#18762e"
       offset=".896" />
    <stop
       id="stop75"
       stop-color="#18762e"
       offset="1" />
  </radialGradient>
  <g
     transform="translate(-5.0000002,-4.9997679)"
     id="g1045">
    <path
       fill="#e6e6e6"
       d="M 105,55.000026 C 105,82.614009 82.613606,104.99977 55,104.99977 27.385874,104.99977 5.0000005,82.613488 5.0000005,55.000026 5.0000005,27.386565 27.385874,4.9997658 55,4.9997658 c 27.613606,0 50,22.3862772 50,50.0002602"
       id="path55"
       inkscape:connector-curvature="0"
       style="stroke-width:0.521364" />
    <path
       style="fill:url(#l)"
       clip-path="url(#k)"
       fill="url(#l)"
       d="M 278.169,70.487 140.503,274.158 -63.168,136.491 74.499,-67.179 Z"
       id="path78"
       inkscape:connector-curvature="0"
       transform="matrix(0.52136556,0,0,0.52136284,-1.0467973,1.0447073)" />
    <g
       id="g104"
       transform="matrix(0.60557647,0,0,0.60557331,-10.099427,-7.6701911)">
      <path
         id="path90"
         d="m 108.036,52.727 c -27.543,0 -49.952,22.408 -49.952,49.953 0,9.061 2.402,17.793 6.982,25.486 l -8.055,26.086 27.567,-7.465 a 49.853,49.853 0 0 0 23.458,5.844 c 27.543,0 49.952,-22.408 49.952,-49.951 0,-27.545 -22.409,-49.953 -49.952,-49.953 m 0,91.75 a 41.604,41.604 0 0 1 -22.313,-6.449 l -0.59,0.162 -15.961,4.32 4.813,-15.586 A 41.61,41.61 0 0 1 66.239,102.68 c 0,-23.084 18.712,-41.799 41.796,-41.799 23.083,0 41.798,18.715 41.798,41.799 0.001,23.082 -18.714,41.797 -41.797,41.797"
         fill="#ffffff"
         inkscape:connector-curvature="0" />
      <path
         id="path92"
         d="m 99.795,90.374 c 0,0 1.474,2.256 0,4.078 -1.475,1.822 -2.689,3.209 -2.689,3.209 0,0 -1.302,0.955 0,2.861 1.301,1.91 6.68,10.152 15.961,13.795 0,0 2.861,1.215 4.078,-1.561 l 2.947,-3.816 c 0,0 0.695,-0.955 2.951,0 2.255,0.954 9.369,4.422 9.369,4.422 0,0 1.301,0.434 1.042,2.342 -0.261,1.91 -0.954,9.283 -11.191,10.065 0,0 -9.89,0.347 -20.995,-8.243 -6.94,-5.367 -11.852,-12.055 -14.56,-16.721 a 42.157,42.157 0 0 1 -0.512,-0.904 c -1.41,-2.848 -2.451,-5.971 -2.31,-9.016 0,-0.348 0.011,-0.711 0.035,-1.084 0.226,-3.33 1.581,-7.301 6.591,-9.578 0,0 4.077,-0.605 4.771,0 z"
         fill="#ffffff"
         inkscape:connector-curvature="0" />
    </g>
  </g>
</svg>
