<?xml version="1.0" encoding="utf-8"?>

<!DOCTYPE svg PUBLIC "-//W3C//DTD SVG 1.1//EN" "http://www.w3.org/Graphics/SVG/1.1/DTD/svg11.dtd">
<svg version="1.1" id="Capa_1" xmlns="http://www.w3.org/2000/svg" xmlns:xlink="http://www.w3.org/1999/xlink" x="0px" y="0px"
	 width="1200px" height="2000px" viewBox="0 0 1200 2000" enable-background="new 0 0 1200 2000" xml:space="preserve">
<g>
	<defs>
		<path id="SVGID_1_" d="M573.03-1039.15l71.537,37.323l-71.523,37.064L573.03-1039.15z M600.317-1092.207
			c0,0-55.572,0-92.622,2.677c-5.175,0.618-16.455,0.67-26.526,11.215c-7.938,8.034-10.521,26.278-10.521,26.278
			S468-1030.613,468-1009.189v20.087c0,21.424,2.648,42.849,2.648,42.849s2.583,18.244,10.521,26.278
			c10.071,10.544,23.3,10.211,29.191,11.315c21.181,2.032,90.015,2.66,90.015,2.66s55.63-0.084,92.678-2.762
			c5.176-0.618,16.461-0.67,26.528-11.214c7.937-8.034,10.524-26.278,10.524-26.278s2.644-21.425,2.644-42.849v-20.087
			c0-21.424-2.644-42.848-2.644-42.848s-2.588-18.244-10.524-26.278c-10.067-10.545-21.353-10.597-26.528-11.215
			c-37.048-2.677-92.621-2.677-92.621-2.677H600.317z"/>
	</defs>
	<clipPath id="SVGID_2_">
		<use xlink:href="#SVGID_1_"  overflow="visible"/>
	</clipPath>
	
		<linearGradient id="SVGID_3_" gradientUnits="userSpaceOnUse" x1="-4.3687" y1="3.0107" x2="-3.3687" y2="3.0107" gradientTransform="matrix(0 186.2076 186.2076 0 39.742 -278.7863)">
		<stop  offset="0" style="stop-color:#E42F28"/>
		<stop  offset="1" style="stop-color:#BF2126"/>
	</linearGradient>
	<rect x="468" y="-1092.207" clip-path="url(#SVGID_2_)" fill="url(#SVGID_3_)" width="264.749" height="186.207"/>
</g>
<polygon opacity="0.12" fill-rule="evenodd" clip-rule="evenodd" fill="#3C1312" points="573.03,-1039.15 635.766,-997.26 
	644.566,-1001.827 "/>
</svg>
