<svg xmlns="http://www.w3.org/2000/svg" width="50" height="50" viewBox="0 0 50 50">
  <path d="M8.705 25.012c-.09 4.303 2.873 8.406 6.95 9.746 3.837 1.29 8.558.324 11.112-2.963 1.863-2.303 2.29-5.375 2.086-8.243-3.287-.028-6.574-.02-9.857-.015-.006 1.17 0 2.338.006 3.508 1.967.055 3.938.03 5.904.07-.496 1.703-1.63 3.287-3.346 3.902-3.318 1.46-7.55-.45-8.594-3.928-1.26-3.333.803-7.355 4.207-8.323 2.11-.743 4.287.094 6.094 1.19.916-.855 1.77-1.77 2.613-2.696-2.053-1.718-4.69-2.77-7.402-2.538-5.32.063-9.976 4.974-9.773 10.29zM35.252 20.583c-.01.98-.02 1.964-.023 2.942-.985.01-1.964.016-2.944.02v2.934c.98.006 1.965.01 2.943.02.01.98.01 1.96.02 2.943.974 0 1.954-.004 2.933 0 .006-.984.01-1.963.02-2.947.98-.006 1.965-.01 2.943-.017v-2.934c-.98-.005-1.963-.01-2.943-.02-.004-.98-.014-1.965-.02-2.943h-2.93z"/>
  <path d="M8.705 25.012c-.203-5.314 4.453-10.227 9.773-10.29 2.713-.23 5.35.822 7.402 2.54-.842.925-1.697 1.84-2.613 2.696-1.807-1.1-3.982-1.935-6.094-1.19-3.404.97-5.47 4.99-4.21 8.322 1.044 3.48 5.278 5.39 8.595 3.928 1.717-.615 2.85-2.2 3.348-3.904-1.968-.04-3.94-.014-5.906-.068-.006-1.173-.01-2.338-.006-3.51 3.283-.005 6.57-.015 9.86.016.198 2.868-.224 5.94-2.09 8.243-2.554 3.287-7.272 4.252-11.112 2.963-4.074-1.34-7.037-5.445-6.947-9.746zM35.252 20.583h2.928c.008.98.016 1.964.02 2.942.98.01 1.964.016 2.944.02v2.934l-2.943.016c-.01.983-.013 1.963-.02 2.947-.98-.007-1.96 0-2.934 0-.008-.984-.008-1.963-.02-2.943-.98-.01-1.963-.014-2.943-.02v-2.935c.98-.005 1.96-.01 2.943-.02.006-.978.016-1.963.026-2.942z"/>
</svg>
