<?xml version="1.0" encoding="utf-8"?>

<!DOCTYPE svg PUBLIC "-//W3C//DTD SVG 1.1//EN" "http://www.w3.org/Graphics/SVG/1.1/DTD/svg11.dtd">
<svg version="1.1" xmlns="http://www.w3.org/2000/svg" xmlns:xlink="http://www.w3.org/1999/xlink" x="0px" y="0px"
	 width="963.779px" height="651.969px" viewBox="0 0 963.779 651.969" enable-background="new 0 0 963.779 651.969"
	 xml:space="preserve">
<g>
	<g>
		<path fill="#010002" d="M481.89,0C301.865,0,155.906,145.96,155.906,325.985c0,180.025,145.96,325.984,325.984,325.984
			c180.025,0,325.985-145.959,325.985-325.984C807.875,145.919,661.915,0,481.89,0z M675.525,237.276
			c-21.882,123.141-144.004,227.415-180.718,251.212c-36.755,23.797-70.25-9.535-82.434-34.799
			c-13.895-28.687-55.579-184.67-66.5-197.587s-43.683,12.917-43.683,12.917l-15.892-20.822c0,0,66.542-79.418,117.151-89.401
			c53.666-10.555,53.584,82.433,66.501,134.021c12.509,49.917,20.863,78.439,31.783,78.439s31.823-27.79,54.603-70.453
			c22.9-42.704-0.979-80.438-45.679-53.625C528.587,139.97,697.366,114.177,675.525,237.276z"/>
	</g>
</g>
</svg>
