<?xml version="1.0" encoding="utf-8"?>
<!DOCTYPE svg PUBLIC "-//W3C//DTD SVG 1.1//EN" "http://www.w3.org/Graphics/SVG/1.1/DTD/svg11.dtd">
<svg version="1.1" id="Capa_1" xmlns="http://www.w3.org/2000/svg" xmlns:xlink="http://www.w3.org/1999/xlink" x="0px" y="0px"
	 width="50px" height="50px" viewBox="0 0 50 50" enable-background="new 0 0 50 50" xml:space="preserve">
<g>
	
		<linearGradient id="htwasqicona-chat_1_" gradientUnits="userSpaceOnUse" x1="5982.1426" y1="-7263.3271" x2="5982.1426" y2="-8287.3672" gradientTransform="matrix(0.0488 0 0 -0.0488 -267.0967 -354.6064)">
		<stop  offset="0" style="stop-color:#61FD7D"/>
		<stop  offset="1" style="stop-color:#2BB826"/>
	</linearGradient>
	<path id="htwasqicona-chat" fill="url(#htwasqicona-chat_1_)" d="M49.997,37.361c0,0.273-0.009,0.867-0.024,1.326
		c-0.041,1.121-0.129,2.57-0.264,3.229c-0.203,0.991-0.508,1.928-0.906,2.706c-0.471,0.922-1.07,1.747-1.785,2.459
		c-0.711,0.711-1.536,1.31-2.456,1.779c-0.783,0.398-1.726,0.703-2.722,0.905c-0.654,0.132-2.091,0.219-3.206,0.259
		c-0.459,0.016-1.053,0.024-1.325,0.024l-24.621-0.004c-0.274,0-0.868-0.009-1.326-0.024c-1.122-0.041-2.57-0.129-3.23-0.264
		c-0.992-0.203-1.928-0.508-2.707-0.906c-0.921-0.471-1.747-1.07-2.459-1.785c-0.711-0.711-1.309-1.536-1.778-2.456
		c-0.399-0.783-0.704-1.726-0.906-2.722c-0.132-0.654-0.219-2.091-0.259-3.206c-0.016-0.459-0.024-1.053-0.024-1.325l0.004-24.621
		c0-0.274,0.008-0.868,0.025-1.326c0.04-1.123,0.129-2.57,0.264-3.23c0.202-0.992,0.507-1.928,0.905-2.707
		c0.471-0.921,1.072-1.747,1.785-2.459c0.712-0.711,1.537-1.309,2.457-1.778c0.783-0.399,1.725-0.705,2.722-0.906
		c0.653-0.132,2.09-0.219,3.206-0.259c0.459-0.016,1.053-0.024,1.326-0.024l24.621,0.004c0.273,0,0.867,0.008,1.326,0.025
		c1.122,0.04,2.57,0.129,3.229,0.264c0.991,0.202,1.928,0.507,2.706,0.905c0.922,0.471,1.747,1.071,2.459,1.785
		c0.711,0.712,1.31,1.537,1.779,2.457c0.398,0.783,0.704,1.725,0.905,2.722c0.132,0.653,0.219,2.09,0.259,3.206
		c0.016,0.459,0.024,1.053,0.024,1.326L49.997,37.361z"/>
</g>
<g>
	<path fill="#FFFFFF" d="M38.247,11.877c-3.386-3.388-7.888-5.255-12.684-5.257c-9.883,0-17.926,8.041-17.93,17.923
		c-0.001,3.159,0.824,6.243,2.393,8.961l-2.543,9.288l9.505-2.492c2.619,1.428,5.567,2.181,8.569,2.182h0.007
		c9.882,0,17.927-8.041,17.931-17.924C43.496,19.769,41.633,15.265,38.247,11.877z M25.563,39.455h-0.006
		c-2.674,0-5.297-0.719-7.585-2.076l-0.544-0.322l-5.641,1.479l1.506-5.498l-0.354-0.563c-1.492-2.372-2.28-5.114-2.279-7.929
		c0.003-8.214,6.689-14.897,14.909-14.897c3.98,0.001,7.723,1.553,10.536,4.369c2.814,2.816,4.362,6.559,4.361,10.54
		C40.463,32.771,33.777,39.455,25.563,39.455z M33.738,28.297c-0.448-0.224-2.65-1.307-3.062-1.457
		c-0.411-0.148-0.709-0.224-1.008,0.225s-1.157,1.457-1.419,1.756s-0.522,0.336-0.971,0.112c-0.447-0.224-1.892-0.697-3.603-2.223
		c-1.332-1.188-2.231-2.654-2.492-3.103c-0.262-0.448-0.028-0.69,0.196-0.914c0.202-0.201,0.448-0.523,0.672-0.785
		c0.224-0.261,0.299-0.448,0.448-0.747s0.075-0.561-0.038-0.785c-0.112-0.224-1.008-2.429-1.381-3.326
		c-0.363-0.873-0.733-0.755-1.008-0.769c-0.261-0.013-0.56-0.016-0.859-0.016c-0.298,0-0.784,0.112-1.194,0.56
		c-0.411,0.449-1.568,1.532-1.568,3.737c0,2.204,1.605,4.334,1.83,4.633s3.159,4.823,7.653,6.763
		c1.068,0.461,1.903,0.737,2.555,0.943c1.072,0.341,2.049,0.293,2.821,0.178c0.86-0.129,2.65-1.084,3.024-2.13
		c0.373-1.046,0.373-1.942,0.261-2.13C34.484,28.634,34.186,28.521,33.738,28.297z"/>
</g>
</svg>
