<?xml version="1.0" encoding="utf-8"?>

<!DOCTYPE svg PUBLIC "-//W3C//DTD SVG 1.1//EN" "http://www.w3.org/Graphics/SVG/1.1/DTD/svg11.dtd">
<svg version="1.1" xmlns="http://www.w3.org/2000/svg" xmlns:xlink="http://www.w3.org/1999/xlink" x="0px" y="0px"
	 width="100px" height="100.023px" viewBox="0 0 100 100.023" enable-background="new 0 0 100 100.023" xml:space="preserve">
<linearGradient id="SVGID_1_" gradientUnits="userSpaceOnUse" x1="0" y1="50.0115" x2="100" y2="50.0115">
	<stop  offset="0" style="stop-color:#E42F28"/>
	<stop  offset="1" style="stop-color:#BF2126"/>
</linearGradient>
<path fill="url(#SVGID_1_)" d="M100,50.012c0,27.592-22.396,50.011-49.988,50.011C22.373,100.023,0,77.604,0,50.012
	C0,22.373,22.373,0,50.011,0C77.604,0,100,22.373,100,50.012z"/>
<g>
	<path fill="#FFFFFF" d="M49.985,26.242c0,0-14.188,0-23.646,0.684c-1.321,0.158-4.2,0.172-6.771,2.863
		c-2.027,2.051-2.687,6.709-2.687,6.709s-0.676,5.47-0.676,10.939v5.128c0,5.47,0.676,10.938,0.676,10.938s0.659,4.658,2.687,6.71
		c2.571,2.691,5.948,2.606,7.452,2.889c5.407,0.519,22.981,0.679,22.981,0.679s14.201-0.021,23.66-0.705
		c1.322-0.158,4.202-0.171,6.773-2.862c2.026-2.052,2.686-6.71,2.686-6.71s0.675-5.469,0.675-10.939v-5.127
		c0-5.469-0.675-10.939-0.675-10.939s-0.661-4.658-2.686-6.708c-2.571-2.692-5.453-2.706-6.773-2.863
		c-9.459-0.684-23.646-0.684-23.646-0.684H49.985L49.985,26.242z"/>
	<linearGradient id="SVGID_2_" gradientUnits="userSpaceOnUse" x1="43.0195" y1="49.283" x2="61.2822" y2="49.283">
		<stop  offset="0" style="stop-color:#E42F28"/>
		<stop  offset="1" style="stop-color:#BF2126"/>
	</linearGradient>
	<polygon fill="url(#SVGID_2_)" points="43.02,39.787 61.282,49.317 43.022,58.779 	"/>
</g>
</svg>
