<svg xmlns="http://www.w3.org/2000/svg" width="50" height="50"><g fill="#ffffff"><path d="M24.873.735c1.112-.116 2.408 1.42 3.106 2.167 2.493 2.658 4.853 5.984 6.688 8.946 2.597 4.197 5.219 9.247 6.686 14.125.818 2.73 1.457 5.908.941 9.135-.923 5.781-4.313 9.667-8.806 12.008-2.359 1.229-5.026 2.024-8.38 2.024-6.532 0-11.316-2.845-14.22-6.64-2.151-2.812-3.839-6.924-3.249-12.1.169-1.484.44-2.931.847-4.333 1.524-5.24 4.182-10.208 6.64-14.173 1.842-2.971 4.135-6.301 6.733-8.899.635-.635 1.872-2.141 3.014-2.26zm-6.216 23.449v9.135c0 1.092-.118 2.205 0 3.06.252 1.829 2.808 2.104 4.237 1.083-.115-.605-.18-1.263-.33-1.835-.356.019-.857.127-1.129-.048-.251-.857-.142-1.837-.142-2.778v-8.758h-2.59c-.053.007-.05.074-.046.141zm-4.756.423c-.624.898-1.113 1.932-1.695 2.872h1.978c.743-.767 1.574-1.743 2.26-2.542.072-.084.276-.209.188-.33h-2.731zm-5.084 6.545c-.723 1.602-.267 3.968.235 4.803.797 1.326 2.42 2.127 4.191 2.119 2.571-.013 4.519-1.828 4.708-4.284.096-1.256-.095-2.247-.519-3.062-.836-1.607-2.289-2.553-5.038-2.26-1.827.195-3.007 1.419-3.577 2.684zm18.221-2.73c-4.149.136-5.535 6.021-2.636 8.615 1.63 1.463 4.828 1.273 6.685-.094-.277-.476-.361-1.144-.659-1.602-1.448 1.008-4.958.912-4.896-1.364h5.979c.162-3.301-1.327-5.659-4.473-5.555zm5.462 2.73c-.708 1.547-.429 3.784.283 4.897 1.294 2.028 4.672 2.641 6.827 1.225 1.167-.769 2.029-2.248 2.024-4.097-.01-3.046-2.071-4.872-5.085-4.709-2.203.12-3.41 1.285-4.049 2.684z"/><path d="M28.828 32.188h-3.344c-.274-2.356 3.633-2.416 3.344 0zM12.771 30.493c2.965-.487 3.17 4.449 1.366 5.367-.576.294-1.375.256-1.883 0-1.779-.895-1.58-5.022.517-5.367zM36.409 30.54c2.908-.532 3.367 4.449 1.316 5.368-.696.313-1.654.102-2.072-.234-1.487-1.203-1.086-4.797.756-5.134z"/></g></svg>