<?xml version="1.0" encoding="utf-8"?>
<!DOCTYPE svg PUBLIC "-//W3C//DTD SVG 1.1//EN" "http://www.w3.org/Graphics/SVG/1.1/DTD/svg11.dtd">
<svg version="1.1" xmlns="http://www.w3.org/2000/svg" xmlns:xlink="http://www.w3.org/1999/xlink" x="0px" y="0px"
	 width="253.777px" height="253.777px" viewBox="0 0 253.777 253.777" enable-background="new 0 0 253.777 253.777"
	 xml:space="preserve">
<path fill="#0A66C2" d="M232.894,0H20.882C9.35,0,0,9.35,0,20.882v212.013c0,11.531,9.351,20.883,20.882,20.883h212.013
	c11.531,0,20.884-9.352,20.884-20.883V20.882C253.777,9.35,244.426,0,232.894,0z M72.906,216.254H34.267V93.482h38.639V216.254z
	 M53.898,76.655c-11.875,0-21.501-9.627-21.501-21.5c0-11.875,9.626-21.501,21.501-21.501s21.5,9.626,21.5,21.501
	C75.399,67.028,65.773,76.655,53.898,76.655z M215.065,216.25h-37.758c0,0,0-44.438,0-64.438c0-43.25-46.021-31.483-46.021-4.823
	c0,29.253,0,69.265,0,69.265H93.472V93.482h35.71v17.505c18.299-27.675,85.883-33.175,85.883,32.075
	C215.065,155.813,215.065,216.25,215.065,216.25z"/>
</svg>
