<?xml version="1.0" encoding="utf-8"?>
<!DOCTYPE svg PUBLIC "-//W3C//DTD SVG 1.1//EN" "http://www.w3.org/Graphics/SVG/1.1/DTD/svg11.dtd">
<svg version="1.1" xmlns="http://www.w3.org/2000/svg" xmlns:xlink="http://www.w3.org/1999/xlink" x="0px" y="0px"
	 width="100px" height="100px" viewBox="0 0 100 100" enable-background="new 0 0 100 100" xml:space="preserve">
<path fill="#25D366" d="M63.983,54.987c-1.673,0-4.894,6.205-6.829,6.205c-0.504-0.021-0.993-0.175-1.417-0.446
	c-3.609-1.794-6.767-3.647-9.731-6.46c-2.453-2.304-5.157-5.759-6.569-8.763c-0.195-0.285-0.309-0.617-0.329-0.96
	c0-1.473,4.454-4.218,4.454-6.651c0-0.639-3.284-9.33-3.743-10.424c-0.644-1.661-0.962-2.174-2.7-2.174
	c-0.841,0-1.62-0.192-2.384-0.192c-1.359,0-2.385,0.514-3.357,1.406c-3.095,2.879-4.644,5.884-4.769,10.107v0.509
	c-0.067,4.42,2.124,8.826,4.575,12.411c5.535,8.125,11.275,15.223,20.49,19.375c2.771,1.282,9.156,3.964,12.247,3.964
	c3.675,0,9.673-2.299,11.148-5.884c0.586-1.473,1.099-3.259,1.099-4.857c0-0.259,0-0.643-0.135-0.96
	C75.583,60.424,65.081,54.987,63.983,54.987z M50.899,88.884c-7.86,0-15.657-2.366-22.234-6.652l-15.598,4.92l5.094-14.897
	c-5.024-6.835-7.734-15.076-7.739-23.536c0-22.121,18.177-40.156,40.478-40.156c22.303,0,40.485,18.031,40.485,40.152
	C91.384,70.848,73.207,88.884,50.899,88.884z M50.899,0.5C24.085,0.5,2.31,22.116,2.31,48.714c0,8.768,2.384,17.402,6.955,24.884
	L0.5,99.5l26.878-8.571c23.508,12.877,53.088,4.407,66.066-18.92c3.968-7.132,6.051-15.144,6.056-23.29
	c0-26.598-21.784-48.214-48.601-48.214V0.5z"/>
</svg>
