<svg xmlns="http://www.w3.org/2000/svg" width="50" height="50" viewBox="0 0 50 50">
  <path d="M38.517 18.5v.9c0 8.6-6.6 18.6-18.6 18.6-3.7 0-7.1-1.1-10-3 .5.1 1 .1 1.6.1 3.102 0 5.9-1.1 8.102-2.8-2.9-.1-5.3-2-6.103-4.6.4.1.8.1 1.2.1.6 0 1.2-.1 1.7-.2-3-.6-5.2-3.3-5.2-6.5V21c.9.5 1.9.8 3 .8-1.8-1.2-2.9-3.2-2.9-5.5 0-1.2.3-2.3.9-3.3 3.2 4 8 6.6 13.5 6.9-.1-.5-.2-1-.2-1.5 0-3.6 2.9-6.6 6.5-6.6 1.9 0 3.604.8 4.802 2.1 1.5-.3 2.898-.8 4.197-1.6-.5 1.5-1.5 2.8-2.896 3.6 1.3-.2 2.6-.5 3.8-1-1.003 1.5-2.103 2.6-3.403 3.6z"/>
</svg>
