<?xml version="1.0" encoding="utf-8"?>
<!DOCTYPE svg PUBLIC "-//W3C//DTD SVG 1.1//EN" "http://www.w3.org/Graphics/SVG/1.1/DTD/svg11.dtd">
<svg version="1.1" inkscape:version="1.0rc1 (09960d6f05, 2020-04-09)" sodipodi:docname="social_wa.svg" xmlns:rdf="http://www.w3.org/1999/02/22-rdf-syntax-ns#" xmlns:inkscape="http://www.inkscape.org/namespaces/inkscape" xmlns:dc="http://purl.org/dc/elements/1.1/" xmlns:cc="http://creativecommons.org/ns#" xmlns:svg="http://www.w3.org/2000/svg" xmlns:sodipodi="http://sodipodi.sourceforge.net/DTD/sodipodi-0.dtd"
	 xmlns="http://www.w3.org/2000/svg" xmlns:xlink="http://www.w3.org/1999/xlink" x="0px" y="0px" width="100px" height="100px"
	 viewBox="0 0 100 100" enable-background="new 0 0 100 100" xml:space="preserve">
<path fill="#D1D1D1" d="M50.149,2.995C24.294,2.995,3.26,24.028,3.26,49.883c0,8.188,2.136,16.225,6.177,23.27L1.464,98.973
	l27.262-7.377c6.592,3.385,13.991,5.173,21.423,5.173c25.853,0,46.887-21.033,46.887-46.886
	C97.034,24.028,76.001,2.995,50.149,2.995z"/>
<g>
	<defs>
		<path id="SVGID_1_" d="M12.605,33.073c-2.314,5.125-3.6,10.812-3.6,16.8c0,8.729,2.731,16.816,7.386,23.456l-4.279,15.713
			l15.92-4.593c6.329,4.013,13.836,6.337,21.885,6.337c22.595,0,40.911-18.315,40.911-40.913c0-5.99-1.285-11.673-3.598-16.8
			C80.818,18.862,66.52,8.963,49.916,8.963C33.314,8.963,19.011,18.862,12.605,33.073"/>
	</defs>
	<clipPath id="SVGID_2_">
		<use xlink:href="#SVGID_1_"  overflow="visible"/>
	</clipPath>
	
		<radialGradient id="path78_1_" cx="-1551.4224" cy="277.8135" r="0.9036" gradientTransform="matrix(-39.3295 58.1853 58.1856 39.3293 -77106.7891 79366.5469)" gradientUnits="userSpaceOnUse">
		<stop  offset="0" style="stop-color:#39B54A"/>
		<stop  offset="0.073" style="stop-color:#39B54A"/>
		<stop  offset="0.259" style="stop-color:#36AF47"/>
		<stop  offset="0.516" style="stop-color:#2C9D3F"/>
		<stop  offset="0.815" style="stop-color:#1D7F32"/>
		<stop  offset="0.896" style="stop-color:#18762E"/>
		<stop  offset="1" style="stop-color:#18762E"/>
	</radialGradient>
	<path id="path78" inkscape:connector-curvature="0" clip-path="url(#SVGID_2_)" fill="url(#path78_1_)" d="M128.792,34.624
		l-63.62,94.128l-94.128-63.626l63.622-94.124L128.792,34.624z"/>
</g>
<path id="path90_1_" inkscape:connector-curvature="0" fill="#FFFFFF" d="M50.147,4.681c-24.922,0-45.202,20.274-45.202,45.203
	c0,8.201,2.173,16.101,6.319,23.061L3.976,96.548l24.946-6.75c6.534,3.478,13.824,5.293,21.227,5.285
	c24.924,0,45.203-20.275,45.203-45.2C95.349,24.955,75.073,4.681,50.147,4.681 M50.147,87.704c-7.146,0.011-14.15-2.011-20.19-5.833
	l-0.536,0.146l-14.442,3.91l4.354-14.106c-4.569-6.4-7.02-14.073-7.008-21.938c0-20.891,16.932-37.824,37.823-37.824
	c20.887,0,37.824,16.934,37.824,37.824C87.974,70.771,71.036,87.704,50.147,87.704"/>
<path id="path92_1_" inkscape:connector-curvature="0" fill="#FFFFFF" d="M42.691,38.747c0,0,1.333,2.04,0,3.691
	c-1.334,1.647-2.434,2.901-2.434,2.901s-1.18,0.866,0,2.59c1.177,1.729,6.044,9.189,14.443,12.481c0,0,2.588,1.103,3.691-1.406
	l2.665-3.459c0,0,0.629-0.862,2.669,0c2.042,0.865,8.479,4.003,8.479,4.003s1.178,0.393,0.941,2.122
	c-0.232,1.727-0.86,8.401-10.126,9.107c0,0-8.948,0.314-18.997-7.461c-6.28-4.857-10.726-10.906-13.176-15.13
	c-0.16-0.272-0.313-0.545-0.463-0.817c-1.275-2.58-2.218-5.406-2.092-8.16c0-0.315,0.011-0.643,0.033-0.982
	c0.206-3.012,1.432-6.606,5.966-8.667c0,0,3.691-0.548,4.316,0L42.691,38.747z"/>
</svg>
