<?xml version="1.0" encoding="utf-8"?>
<!-- Generator: Adobe Illustrator 15.0.0, SVG Export Plug-In . SVG Version: 6.00 Build 0)  -->
<!DOCTYPE svg PUBLIC "-//W3C//DTD SVG 1.1//EN" "http://www.w3.org/Graphics/SVG/1.1/DTD/svg11.dtd">
<svg version="1.1" id="Capa_1" xmlns="http://www.w3.org/2000/svg" xmlns:xlink="http://www.w3.org/1999/xlink" x="0px" y="0px"
	 width="100px" height="100px" viewBox="0 0 100 100" enable-background="new 0 0 100 100" xml:space="preserve">
<path d="M87.825,27.692c0-0.392-0.011-0.407-0.422-0.403c-0.988,0.009-1.966-0.109-2.938-0.256
	C80.933,26.5,69.479,20.491,67.54,10.662c-0.039-0.192-0.471-2.631-0.466-3.67c0.003-0.465-0.006-0.465-0.464-0.473
	c-0.106-0.001-0.213,0-0.318,0c-4.482,0-8.965-0.002-13.448,0.001c-0.902,0.001-0.776-0.113-0.776,0.793
	c-0.002,19.441-0.002,38.881,0.002,58.323c0,0.725-0.021,1.449-0.148,2.16c-0.676,3.762-2.603,6.705-5.864,8.717
	c-2.825,1.742-5.892,2.238-9.147,1.596c-1.026-0.203-1.989-0.59-2.954-0.973c-0.078-0.072-0.156-0.143-0.234-0.215
	c-0.324-0.271-0.682-0.496-1.029-0.736c-4.15-2.873-6.118-6.863-5.519-11.852c0.608-5.061,3.52-8.496,8.317-10.268
	c1.431-0.527,2.938-0.746,4.469-0.664c0.985,0.053,1.966,0.178,2.921,0.449c0.331,0.094,0.509-0.023,0.526-0.373
	c0.005-0.123,0.009-0.246,0.009-0.369c0-3.49-0.13-11.114-0.148-11.131c0.007-1.005,0.006-2.01,0.025-3.014
	c0.005-0.29-0.138-0.34-0.382-0.369c-1.809-0.215-3.616-0.255-5.435-0.122c-2.513,0.184-4.948,0.699-7.315,1.551
	c-3.776,1.358-7.09,3.458-9.951,6.261c-2.457,2.406-4.389,5.189-5.805,8.326c-1.355,3.002-2.132,6.154-2.346,9.434
	c-0.093,1.424-0.075,2.852,0.056,4.279c0.182,1.973,0.556,3.904,1.156,5.789c1.725,5.416,4.859,9.859,9.307,13.387
	c0.452,0.357,0.887,0.75,1.428,0.984l0,0c0.228,0.201,0.454,0.402,0.681,0.604c0.72,0.543,1.491,1.006,2.297,1.404
	c4.982,2.461,10.23,3.463,15.762,2.787c7.178-0.877,13.158-4.059,17.865-9.537c4.431-5.158,6.584-11.213,6.623-17.982
	c0.055-9.682,0.013-19.363,0.02-29.045c0-0.231-0.134-0.56,0.121-0.675c0.199-0.091,0.398,0.173,0.586,0.296
	c3.604,2.366,7.488,4.078,11.697,5.041c2.449,0.56,4.923,0.9,7.441,0.896c0.795-0.001,0.9-0.041,0.901-0.828
	C88.005,38.005,87.824,28.606,87.825,27.692z"/>
</svg>
