<?xml version="1.0" encoding="utf-8"?>
<!DOCTYPE svg PUBLIC "-//W3C//DTD SVG 1.1//EN" "http://www.w3.org/Graphics/SVG/1.1/DTD/svg11.dtd">
<svg version="1.1" xmlns="http://www.w3.org/2000/svg" xmlns:xlink="http://www.w3.org/1999/xlink" x="0px" y="0px"
	 width="100px" height="100px" viewBox="0 0 100 100" enable-background="new 0 0 100 100" xml:space="preserve">
<path fill="#1877F2" d="M100,50c0-27.617-22.383-50-50-50S0,22.383,0,50c0,24.961,18.281,45.645,42.188,49.395V64.453H29.492V50
	h12.695V38.984c0-12.529,7.461-19.453,18.887-19.453c5.469,0,11.191,0.977,11.191,0.977v12.305h-6.309
	c-6.211,0-8.145,3.857-8.145,7.813V50H71.68l-2.217,14.453h-11.65v34.941C81.719,95.645,100,74.961,100,50z"/>
<path fill="#FFFFFF" d="M69.463,64.453L71.68,50H57.813v-9.375c0-3.955,1.934-7.813,8.145-7.813h6.309V20.508
	c0,0-5.723-0.977-11.191-0.977c-11.426,0-18.887,6.924-18.887,19.453V50H29.492v14.453h12.695v34.941
	C44.736,99.795,47.344,100,50,100s5.264-0.205,7.813-0.605V64.453H69.463z"/>
</svg>
