<svg xmlns="http://www.w3.org/2000/svg" width="50" height="50"><path fill="#666" d="M39.029 36.78v-9.76c0-5.229-2.791-7.662-6.512-7.662-3.004 0-4.351 1.652-5.101 2.812v-2.412H21.76c.075 1.598 0 17.022 0 17.022h5.66v-9.507c0-.508.034-1.017.186-1.381.408-1.015 1.338-2.067 2.9-2.067 2.051 0 2.867 1.56 2.867 3.848v9.108h5.658l-.002-.001zM15.8 17.435c1.972 0 3.2-1.308 3.2-2.942-.036-1.67-1.228-2.94-3.163-2.94-1.936 0-3.2 1.271-3.2 2.94 0 1.634 1.228 2.942 3.127 2.942h.036zM12.97 19.758h5.658V36.78H12.97z"/></svg>