<?xml version="1.0" encoding="utf-8"?>
<!DOCTYPE svg PUBLIC "-//W3C//DTD SVG 1.1//EN" "http://www.w3.org/Graphics/SVG/1.1/DTD/svg11.dtd">
<svg version="1.1" id="Capa_1_copia" xmlns="http://www.w3.org/2000/svg" xmlns:xlink="http://www.w3.org/1999/xlink" x="0px"
	 y="0px" width="100px" height="100px" viewBox="0 0 100 100" enable-background="new 0 0 100 100" xml:space="preserve">
<g>
	<path fill="#EDEDED" d="M99,79.491c0,1.501-1.217,2.719-2.718,2.719H3.718C2.217,82.21,1,80.992,1,79.491V20.508
		c0-1.501,1.217-2.718,2.718-2.718h92.564c1.501,0,2.718,1.217,2.718,2.718V79.491z"/>
</g>
<g>
	<linearGradient id="SVGID_1_" gradientUnits="userSpaceOnUse" x1="50" y1="81.8701" x2="50" y2="43.7329">
		<stop  offset="0" style="stop-color:#EDEDED"/>
		<stop  offset="0.3038" style="stop-color:#E8E8E8"/>
		<stop  offset="0.6613" style="stop-color:#DADADA"/>
		<stop  offset="1" style="stop-color:#C8C8C8"/>
	</linearGradient>
	<path fill="url(#SVGID_1_)" d="M3.718,81.87c-1.311,0-2.378-1.067-2.378-2.379V78.91c2.687-2.02,43.444-32.668,45.391-34.096
		c0.949-0.697,2.219-1.081,3.574-1.081c1.341,0,2.617,0.385,3.593,1.083c2.101,1.505,42.12,32.073,44.763,34.092v0.583
		c0,1.312-1.067,2.379-2.378,2.379H3.718z"/>
	<path fill="#A5A4A4" d="M50.305,44.073L50.305,44.073c1.271,0,2.477,0.362,3.395,1.02c2.067,1.482,40.994,31.213,44.621,33.984
		v0.415c0,1.125-0.914,2.039-2.038,2.039H3.718c-1.124,0-2.038-0.915-2.038-2.039V79.08c3.689-2.774,43.334-32.585,45.252-33.992
		C47.81,44.443,49.04,44.073,50.305,44.073 M50.305,43.393c-1.383,0-2.749,0.393-3.775,1.147C44.501,46.027,1,78.74,1,78.74v0.751
		c0,1.501,1.217,2.719,2.718,2.719h92.564c1.501,0,2.718-1.218,2.718-2.719V78.74c0,0-42.714-32.63-44.905-34.2
		C53.014,43.766,51.651,43.393,50.305,43.393L50.305,43.393z"/>
</g>
<g>
	<path fill="#EDEDED" d="M49.694,55.927c-1.271,0-2.476-0.362-3.394-1.02C44.233,53.426,5.307,23.694,1.68,20.924v-0.416
		c0-1.124,0.914-2.038,2.038-2.038h92.564c1.124,0,2.038,0.914,2.038,2.038v0.413c-3.689,2.774-43.334,32.584-45.251,33.992
		C52.189,55.557,50.96,55.927,49.694,55.927z"/>
	<path fill="#6B6B6B" d="M96.282,19.149c0.749,0,1.358,0.61,1.358,1.359v0.073c-5.023,3.778-43.098,32.407-44.974,33.783
		c-0.765,0.561-1.849,0.883-2.973,0.883c-1.13,0-2.194-0.317-2.998-0.892C44.68,52.91,7.299,24.361,2.359,20.588v-0.08
		c0-0.749,0.609-1.359,1.358-1.359H96.282 M96.282,17.79H3.718C2.217,17.79,1,19.007,1,20.508v0.752c0,0,42.714,32.63,44.905,34.2
		c1.082,0.774,2.443,1.146,3.79,1.146c1.383,0,2.749-0.393,3.776-1.146C55.499,53.972,99,21.26,99,21.26v-0.752
		C99,19.007,97.783,17.79,96.282,17.79L96.282,17.79z"/>
</g>
<g>
	<path fill="#6B6B6B" d="M96.282,19.149c0.749,0,1.358,0.609,1.358,1.358v58.983c0,0.75-0.609,1.359-1.358,1.359H3.718
		c-0.749,0-1.358-0.61-1.358-1.359V20.508c0-0.749,0.609-1.358,1.358-1.358H96.282 M96.282,17.79H3.718
		C2.217,17.79,1,19.007,1,20.508v58.983c0,1.501,1.217,2.719,2.718,2.719h92.564c1.501,0,2.718-1.218,2.718-2.719V20.508
		C99,19.007,97.783,17.79,96.282,17.79L96.282,17.79z"/>
</g>
</svg>
