<?xml version="1.0" encoding="utf-8"?>
<svg version="1.1" xmlns="http://www.w3.org/2000/svg" xmlns:xlink="http://www.w3.org/1999/xlink" x="0px" y="0px"
	 viewBox="0 0 1000 1000" enable-background="new 0 0 1000 1000" xml:space="preserve">

	<path fill-rule="evenodd" clip-rule="evenodd" fill="#00F7EF" d="M211.2,836C30,678.8,147.1,328.7,425.7,372.8v32.4
		C190.5,394.3,86.9,674.9,211.2,836z M719.2,228.8c28.6,22.9,68.1,39.7,122.5,43v31.8C781.5,292.4,743.4,262.4,719.2,228.8z
		 M643.7,61.6c0,11.7,1.5,24.3,3.4,35.8H536v552.9c0,25.5-2.6,48.2-7.8,68.1C483,818,355,805,319.6,736.6
		c52.7,33,139.3,24.2,174.8-54.1c5.2-19.9,7.8-42.6,7.8-68.1V61.6H643.7z"/>
	<path fill-rule="evenodd" clip-rule="evenodd" d="M677.5,97.4v0.7c0,12.8,3.8,197.9,198,209.4c0,172.2,0.1,0,0.1,143
		c-14.6,0.9-127.9-7.3-198.3-70.2l-0.2,278.4c1.7,126.1-68.4,249.7-199.8,274.6c-36.8,7-70,7.8-125.6-4.4
		c-320.5-95.9-214-571.3,107.8-520.4c0,153.5,0.1,0,0.1,153.5c-133-19.6-177.4,91-142.1,170.2c32.2,72.1,164.5,87.7,210.7-14
		c5.2-19.9,7.8-42.6,7.8-68.1V97.4H677.5z"/>
	<path fill-rule="evenodd" clip-rule="evenodd" fill="#FF004F" d="M425.7,405.2c11,0.5,22.3,1.6,33.8,3.4c0,153.5,0.1,0,0.1,153.5
		c-133-19.6-177.4,91-142.1,170.2c0.6,1.4,1.4,2.9,2.1,4.3c-15.8-9.9-28.5-23.5-35.9-40.1c-35.3-79.2,9.1-189.8,142.1-170.2
		C425.7,385.6,425.7,502.6,425.7,405.2z M841.7,303.5c10.6,1.9,21.9,3.3,33.8,4c0,172.2,0.1,0,0.1,143
		c-14.6,0.9-127.9-7.3-198.3-70.2l-0.2,278.4c1.7,126.1-68.4,249.7-199.8,274.6c-36.8,7-70,7.8-125.6-4.4
		c-62.6-18.7-108.9-52-140.5-93c28.2,24.5,63.6,44.3,106.7,57.2c55.6,12.1,88.7,11.3,125.5,4.4C574.8,872.7,645,749,643.3,623
		l0.2-278.5c70.5,62.9,183.7,71.1,198.4,70.2C841.9,281.9,841.7,420.9,841.7,303.5z M677.5,97.4v0.7c0,7.5,1.3,74.4,41.7,130.7
		c-48.6-38.9-66-95.1-72.1-131.4H677.5z"/>
</svg>
