<?xml version="1.0" encoding="utf-8"?>
<!DOCTYPE svg PUBLIC "-//W3C//DTD SVG 1.1//EN" "http://www.w3.org/Graphics/SVG/1.1/DTD/svg11.dtd">
<svg version="1.1" id="Capa_1" xmlns="http://www.w3.org/2000/svg" xmlns:xlink="http://www.w3.org/1999/xlink" x="0px" y="0px"
	 width="50px" height="49.99px" viewBox="375.157 743.761 50 49.99" enable-background="new 375.157 743.761 50 49.99"
	 xml:space="preserve">
<g>
	<path fill="#444444" d="M400.147,748.265c6.677,0,7.46,0.03,10.099,0.149c2.44,0.109,3.761,0.516,4.644,0.863
		c1.17,0.456,2.004,0.991,2.877,1.864s1.418,1.707,1.865,2.877c0.337,0.884,0.754,2.203,0.862,4.644
		c0.119,2.639,0.149,3.422,0.149,10.099s-0.03,7.461-0.149,10.1c-0.108,2.44-0.516,3.76-0.862,4.643
		c-0.457,1.171-0.992,2.004-1.865,2.877s-1.707,1.419-2.877,1.865c-0.883,0.337-2.203,0.754-4.644,0.863
		c-2.639,0.119-3.422,0.148-10.099,0.148s-7.46-0.029-10.1-0.148c-2.44-0.109-3.76-0.517-4.643-0.863
		c-1.171-0.456-2.004-0.992-2.877-1.865s-1.419-1.706-1.865-2.877c-0.337-0.883-0.754-2.202-0.863-4.643
		c-0.119-2.64-0.148-3.423-0.148-10.1s0.03-7.46,0.148-10.099c0.109-2.441,0.516-3.761,0.863-4.644
		c0.457-1.171,0.992-2.004,1.865-2.877s1.706-1.419,2.877-1.865c0.883-0.337,2.202-0.754,4.643-0.862
		C392.687,748.285,393.471,748.265,400.147,748.265 M400.147,743.761c-6.786,0-7.639,0.03-10.308,0.149
		c-2.659,0.119-4.474,0.545-6.062,1.16c-1.647,0.635-3.036,1.498-4.425,2.887c-1.389,1.39-2.242,2.788-2.887,4.425
		c-0.615,1.588-1.042,3.403-1.161,6.071c-0.119,2.659-0.149,3.512-0.149,10.298s0.03,7.639,0.149,10.308
		c0.119,2.658,0.545,4.475,1.161,6.071c0.635,1.646,1.498,3.036,2.887,4.425c1.389,1.389,2.788,2.242,4.425,2.887
		c1.587,0.615,3.403,1.042,6.071,1.161c2.669,0.119,3.512,0.148,10.308,0.148c6.796,0,7.639-0.029,10.308-0.148
		c2.658-0.119,4.474-0.546,6.071-1.161c1.646-0.635,3.036-1.498,4.425-2.887s2.242-2.788,2.887-4.425
		c0.615-1.587,1.042-3.402,1.161-6.071s0.148-3.512,0.148-10.308s-0.029-7.639-0.148-10.308c-0.119-2.658-0.546-4.474-1.161-6.071
		c-0.635-1.646-1.498-3.036-2.887-4.425s-2.788-2.242-4.425-2.887c-1.587-0.615-3.402-1.042-6.071-1.161
		C407.786,743.791,406.933,743.761,400.147,743.761L400.147,743.761z"/>
	<path fill="#444444" d="M400.147,755.914c-7.083,0-12.837,5.744-12.837,12.837c0,7.094,5.754,12.837,12.837,12.837
		c7.083,0,12.837-5.754,12.837-12.837S407.23,755.914,400.147,755.914z M400.147,777.084c-4.604,0-8.333-3.729-8.333-8.333
		s3.73-8.333,8.333-8.333c4.603,0,8.333,3.729,8.333,8.333S404.75,777.084,400.147,777.084z"/>
	<circle fill="#444444" cx="413.49" cy="755.408" r="2.996"/>
</g>
</svg>
