<?xml version="1.0" encoding="utf-8"?>

<!DOCTYPE svg PUBLIC "-//W3C//DTD SVG 1.1//EN" "http://www.w3.org/Graphics/SVG/1.1/DTD/svg11.dtd">
<svg version="1.1" xmlns="http://www.w3.org/2000/svg" xmlns:xlink="http://www.w3.org/1999/xlink" x="0px" y="0px"
	 width="50px" height="50px" viewBox="0 0 50 50" enable-background="new 0 0 50 50" xml:space="preserve">
<path fill="#FFFFFF" d="M25,2c12.683,0,23,10.318,23,23c0,12.683-10.317,23-23,23C12.318,48,2,37.683,2,25C2,12.318,12.318,2,25,2
	 M25,0C11.2,0,0,11.2,0,25s11.2,25,25,25s25-11.2,25-25S38.8,0,25,0L25,0z"/>
<path fill="#FFFFFF" d="M38.826,30.291c-3.559-0.587-5.175-4.274-5.268-4.488c-0.18-0.364-0.14-0.52-0.123-0.559
	c0.119-0.281,0.898-0.527,1.23-0.633c0.165-0.053,0.321-0.103,0.451-0.154c0.59-0.232,1.021-0.494,1.316-0.8
	c0.412-0.427,0.493-0.854,0.488-1.141c-0.014-0.672-0.492-1.257-1.225-1.519c-0.248-0.104-0.529-0.158-0.815-0.158
	c-0.198,0-0.497,0.028-0.793,0.166c-0.329,0.154-0.624,0.248-0.847,0.281l0.011-0.182c0.126-1.995,0.284-4.479-0.407-6.029
	c-0.465-1.043-1.092-1.942-1.863-2.672c-0.647-0.613-1.399-1.111-2.236-1.479c-1.449-0.635-2.798-0.73-3.547-0.73l-0.488,0.006
	c-0.675,0-2.023,0.096-3.472,0.735c-0.835,0.368-1.586,0.865-2.229,1.479c-0.767,0.728-1.391,1.623-1.857,2.663
	c-0.689,1.55-0.532,4.031-0.406,6.029l0.012,0.191c-0.274-0.013-0.621-0.113-1.007-0.294c-0.523-0.243-1.239-0.171-1.806,0.162
	c-0.459,0.271-0.759,0.665-0.844,1.113c-0.047,0.245-0.085,0.88,0.561,1.47c0.291,0.265,0.701,0.503,1.221,0.707
	c0.131,0.052,0.285,0.102,0.45,0.154c0.333,0.105,1.112,0.352,1.231,0.633c0.016,0.039,0.057,0.194-0.15,0.617
	c-0.018,0.043-0.451,1.049-1.358,2.105c-0.501,0.584-1.05,1.07-1.63,1.443c-0.703,0.455-1.462,0.751-2.252,0.881
	c-0.591,0.096-1.012,0.621-0.979,1.223c0.01,0.158,0.047,0.313,0.109,0.459c0.188,0.439,0.586,0.795,1.219,1.088
	c0.615,0.287,1.498,0.53,2.626,0.723c0.024,0.099,0.048,0.207,0.063,0.278c0.049,0.226,0.102,0.46,0.174,0.708
	c0.172,0.584,0.627,0.918,1.248,0.918c0.227,0,0.455-0.041,0.756-0.1c0.539-0.107,1.438-0.235,2.395-0.078
	c0.589,0.1,1.148,0.495,1.798,0.955c1.03,0.728,2.313,1.633,4.241,1.633c0.063,0,0.124-0.002,0.11-0.006
	c0.069,0.005,0.152,0.006,0.241,0.006c1.877,0,3.139-0.856,4.153-1.573l0.089-0.062c0.646-0.458,1.205-0.854,1.797-0.953
	c0.957-0.157,1.813-0.047,2.396,0.066c0.309,0.061,0.556,0.091,0.788,0.091c0.584,0,1.05-0.349,1.216-0.911
	c0.069-0.242,0.122-0.469,0.172-0.699c0.013-0.061,0.038-0.172,0.063-0.276c1.128-0.192,2.011-0.435,2.628-0.721
	c0.631-0.294,1.029-0.649,1.215-1.083c0.066-0.148,0.104-0.306,0.113-0.467C39.837,30.91,39.416,30.387,38.826,30.291z M34.154,33.7
	c-0.02,0.089-0.039,0.177-0.061,0.267c-0.051-0.008-0.104-0.019-0.161-0.029c-0.726-0.143-1.819-0.268-2.992-0.074
	c-0.965,0.16-1.737,0.707-2.496,1.242c-0.964,0.68-1.875,1.322-3.269,1.322l-0.219-0.008l-0.133,0.008
	c-1.396,0-2.307-0.643-3.279-1.329c-0.748-0.528-1.52-1.075-2.488-1.235c-0.43-0.072-0.854-0.107-1.264-0.107
	c-0.727,0-1.291,0.107-1.728,0.192c-0.056,0.011-0.108,0.021-0.159,0.032c-0.021-0.091-0.041-0.182-0.061-0.275
	c-0.137-0.621-0.306-1.396-1.08-1.515c-1.096-0.169-1.793-0.357-2.229-0.517c3.604-1.164,5.225-4.717,5.402-5.132
	c0.353-0.716,0.408-1.372,0.162-1.95c-0.418-0.986-1.572-1.354-2.273-1.576c-0.133-0.043-0.246-0.078-0.332-0.111
	c-0.339-0.135-0.533-0.252-0.641-0.332c0.059-0.027,0.127-0.05,0.188-0.055c0.642,0.301,1.238,0.453,1.771,0.453
	c0.879,0,1.328-0.408,1.454-0.543l0.214-0.241l-0.07-1.19c-0.113-1.813-0.254-4.066,0.267-5.236c1.61-3.608,5.025-3.889,6.034-3.889
	l0.563-0.005c1.011,0,4.436,0.28,6.045,3.892c0.521,1.17,0.38,3.428,0.262,5.296l-0.065,1.133l0.226,0.253
	c0.109,0.116,0.529,0.498,1.396,0.529c0.503-0.02,1.062-0.171,1.743-0.459c0.063,0,0.131,0.012,0.222,0.049
	c0.014,0.005,0.026,0.01,0.039,0.016c-0.107,0.08-0.301,0.195-0.639,0.33c-0.088,0.034-0.205,0.07-0.35,0.116
	c-0.688,0.22-1.84,0.587-2.256,1.571c-0.246,0.576-0.191,1.232,0.15,1.926c0.075,0.174,1.729,3.946,5.412,5.153
	c-0.438,0.16-1.133,0.349-2.227,0.517C34.461,32.306,34.291,33.076,34.154,33.7z"/>
</svg>
