<?xml version="1.0" encoding="utf-8"?>
<!-- Generator: Adobe Illustrator 15.0.0, SVG Export Plug-In . SVG Version: 6.00 Build 0)  -->
<!DOCTYPE svg PUBLIC "-//W3C//DTD SVG 1.1//EN" "http://www.w3.org/Graphics/SVG/1.1/DTD/svg11.dtd">
<svg version="1.1"
	 id="svg94" xmlns:dc="http://purl.org/dc/elements/1.1/" xmlns:cc="http://creativecommons.org/ns#" xmlns:rdf="http://www.w3.org/1999/02/22-rdf-syntax-ns#" xmlns:svg="http://www.w3.org/2000/svg" xmlns:sodipodi="http://sodipodi.sourceforge.net/DTD/sodipodi-0.dtd" xmlns:inkscape="http://www.inkscape.org/namespaces/inkscape" inkscape:version="1.0rc1 (09960d6f05, 2020-04-09)" sodipodi:docname="social_wa.svg"
	 xmlns="http://www.w3.org/2000/svg" xmlns:xlink="http://www.w3.org/1999/xlink" x="0px" y="0px" width="100px" height="100px"
	 viewBox="0 0 100 100" enable-background="new 0 0 100 100" xml:space="preserve">
<sodipodi:namedview  id="namedview96" pagecolor="#ffffff" bordercolor="#666666" borderopacity="1" showgrid="false" inkscape:zoom="2.9931707" objecttolerance="10" inkscape:cx="50.604628" gridtolerance="10" guidetolerance="10" inkscape:cy="57.060679" inkscape:window-maximized="1" inkscape:pageopacity="0" inkscape:pageshadow="2" inkscape:window-width="1366" inkscape:window-height="749" inkscape:window-y="-4" inkscape:window-x="-4" inkscape:current-layer="svg94">
	</sodipodi:namedview>
<g id="g1045" transform="translate(-5.0000002,-4.9997679)">
	<path id="path55" inkscape:connector-curvature="0" fill="#E6E6E6" d="M105,55c0,27.614-22.387,50-50,50C27.386,105,5,82.613,5,55
		C5,27.386,27.386,5,55,5C82.613,5,105,27.386,105,55"/>
	<g>
		<defs>
			<path id="SVGID_1_" d="M12.907,36.045c-2.61,5.779-4.06,12.197-4.06,18.955c0,25.489,20.665,46.154,46.154,46.154
				s46.154-20.665,46.154-46.154c0-6.758-1.451-13.175-4.062-18.955C89.863,20.011,73.73,8.846,55,8.846
				C36.27,8.846,20.137,20.011,12.907,36.045"/>
		</defs>
		<clipPath id="SVGID_2_">
			<use xlink:href="#SVGID_1_"  overflow="visible"/>
		</clipPath>
		
			<radialGradient id="path78_1_" cx="-659.0562" cy="-160.1062" r="0.9999" gradientTransform="matrix(-40.1099 59.3399 -59.3402 -40.1097 -35852.7852 32710.832)" gradientUnits="userSpaceOnUse">
			<stop  offset="0" style="stop-color:#39B54A"/>
			<stop  offset="0.073" style="stop-color:#39B54A"/>
			<stop  offset="0.259" style="stop-color:#36AF47"/>
			<stop  offset="0.516" style="stop-color:#2C9D3F"/>
			<stop  offset="0.815" style="stop-color:#1D7F32"/>
			<stop  offset="0.896" style="stop-color:#18762E"/>
			<stop  offset="1" style="stop-color:#18762E"/>
		</radialGradient>
		<path id="path78" inkscape:connector-curvature="0" clip-path="url(#SVGID_2_)" fill="url(#path78_1_)" d="M143.98,37.794
			L72.207,143.98L-33.98,72.206L37.794-33.98L143.98,37.794z"/>
	</g>
	<g id="g104" transform="matrix(0.60557647,0,0,0.60557331,-10.099427,-7.6701911)">
		<path id="path90" inkscape:connector-curvature="0" fill="#FFFFFF" d="M108.036,52.727c-27.544,0-49.952,22.407-49.952,49.953
			c0,9.062,2.402,17.793,6.983,25.485l-8.055,26.086l27.567-7.463c7.221,3.843,15.277,5.851,23.458,5.844
			c27.543,0,49.952-22.409,49.952-49.952C157.988,75.135,135.579,52.727,108.036,52.727 M108.036,144.477
			c-7.899,0.011-15.638-2.224-22.313-6.449l-0.59,0.161l-15.961,4.322l4.813-15.588c-5.051-7.073-7.759-15.552-7.746-24.243
			c0-23.084,18.712-41.799,41.797-41.799c23.083,0,41.797,18.715,41.797,41.799C149.834,125.762,131.118,144.477,108.036,144.477"/>
		<path id="path92" inkscape:connector-curvature="0" fill="#FFFFFF" d="M99.795,90.374c0,0,1.474,2.256,0,4.078
			c-1.475,1.821-2.689,3.209-2.689,3.209s-1.302,0.955,0,2.861c1.301,1.91,6.68,10.152,15.961,13.794c0,0,2.861,1.216,4.078-1.559
			l2.946-3.817c0,0,0.697-0.955,2.951,0c2.256,0.955,9.369,4.422,9.369,4.422s1.301,0.435,1.042,2.343
			c-0.261,1.911-0.953,9.284-11.192,10.064c0,0-9.889,0.348-20.994-8.244c-6.94-5.367-11.852-12.053-14.56-16.72
			c-0.174-0.299-0.345-0.601-0.512-0.904c-1.409-2.848-2.45-5.972-2.309-9.016c0-0.348,0.01-0.711,0.035-1.084
			c0.226-3.33,1.581-7.301,6.591-9.578c0,0,4.077-0.606,4.771,0L99.795,90.374z"/>
	</g>
</g>
</svg>
