<?xml version="1.0" encoding="utf-8"?>
<!DOCTYPE svg PUBLIC "-//W3C//DTD SVG 1.1//EN" "http://www.w3.org/Graphics/SVG/1.1/DTD/svg11.dtd">
<svg version="1.1"
	 id="svg94" inkscape:version="1.0rc1 (09960d6f05, 2020-04-09)" sodipodi:docname="social_wa.svg" xmlns:sodipodi="http://sodipodi.sourceforge.net/DTD/sodipodi-0.dtd" xmlns:svg="http://www.w3.org/2000/svg" xmlns:dc="http://purl.org/dc/elements/1.1/" xmlns:cc="http://creativecommons.org/ns#" xmlns:rdf="http://www.w3.org/1999/02/22-rdf-syntax-ns#" xmlns:inkscape="http://www.inkscape.org/namespaces/inkscape"
	 xmlns="http://www.w3.org/2000/svg" xmlns:xlink="http://www.w3.org/1999/xlink" x="0px" y="0px" width="100px" height="100px"
	 viewBox="-1.248 -1 100 100" enable-background="new -1.248 -1 100 100" xml:space="preserve">
<path fill="#D1D1D1" d="M49.687-1C22.751-1,0.836,20.915,0.836,47.853c0,8.531,2.224,16.905,6.436,24.247L-1.036,99l28.403-7.688
	c6.87,3.527,14.579,5.391,22.321,5.391c26.936,0,48.852-21.915,48.852-48.851C98.538,20.915,76.622-1,49.687-1z"/>
<g>
	<g>
		<defs>
			<path id="SVGID_1_" d="M7.845,29.111c-2.582,5.713-4.013,12.055-4.013,18.733c0,10.421,3.493,20.027,9.376,27.708
				c1.215,1.587-2.505,9.978-1.095,11.391c1.571,1.575,8.296-3.847,10.083-2.511c7.604,5.672,17.036,9.028,27.252,9.028
				c25.193,0,45.615-20.422,45.615-45.616c0-6.68-1.434-13.019-4.012-18.733C83.903,13.267,67.958,2.229,49.445,2.229
				C30.935,2.229,14.987,13.267,7.845,29.111"/>
		</defs>
		<clipPath id="SVGID_2_">
			<use xlink:href="#SVGID_1_"  overflow="visible"/>
		</clipPath>
		
			<radialGradient id="path78_1_" cx="-1554.041" cy="-171.5308" r="1.0076" gradientTransform="matrix(-39.3295 58.1853 -58.1856 -39.3293 -71023.3047 83693.7422)" gradientUnits="userSpaceOnUse">
			<stop  offset="0" style="stop-color:#39B54A"/>
			<stop  offset="0.073" style="stop-color:#39B54A"/>
			<stop  offset="0.259" style="stop-color:#36AF47"/>
			<stop  offset="0.516" style="stop-color:#2C9D3F"/>
			<stop  offset="0.815" style="stop-color:#1D7F32"/>
			<stop  offset="0.896" style="stop-color:#18762E"/>
			<stop  offset="1" style="stop-color:#18762E"/>
		</radialGradient>
		<path id="path78" inkscape:connector-curvature="0" clip-path="url(#SVGID_2_)" fill="url(#path78_1_)" d="M137.392,30.841
			l-70.936,104.95L-38.496,64.852l70.938-104.95L137.392,30.841z"/>
	</g>
</g>
<g id="g104_1_" transform="matrix(0.60557647,0,0,0.60557331,-10.099427,-7.6701911)">
	<path id="path90_1_" inkscape:connector-curvature="0" fill="#FFFFFF" d="M98.726,13.913c-42.881,0-77.77,34.885-77.77,77.774
		c0,14.11,3.74,27.702,10.872,39.677l-12.54,40.612l42.92-11.617c11.242,5.984,23.784,9.11,36.521,9.097
		c42.883,0,77.77-34.886,77.77-77.769C176.496,48.799,141.612,13.913,98.726,13.913 M98.726,156.759
		c-12.296,0.019-24.346-3.459-34.737-10.037l-0.919,0.25l-24.85,6.729l7.492-24.27c-7.863-11.014-12.079-24.215-12.059-37.745
		c0-35.941,29.132-65.077,65.074-65.077c35.939,0,65.076,29.135,65.076,65.077C163.805,127.622,134.665,156.759,98.726,156.759"/>
	<path id="path92_1_" inkscape:connector-curvature="0" fill="#FFFFFF" d="M85.897,72.526c0,0,2.295,3.511,0,6.35
		c-2.296,2.836-4.188,4.995-4.188,4.995s-2.025,1.488,0,4.456c2.025,2.974,10.401,15.806,24.85,21.475c0,0,4.454,1.895,6.35-2.422
		l4.586-5.947c0,0,1.084-1.487,4.593,0c3.516,1.485,14.588,6.883,14.588,6.883s2.025,0.677,1.622,3.653
		c-0.403,2.97-1.484,14.451-17.423,15.667c0,0-15.397,0.542-32.686-12.837c-10.805-8.355-18.455-18.763-22.67-26.031
		c-0.273-0.465-0.537-0.937-0.797-1.406c-2.193-4.437-3.815-9.3-3.596-14.039c0-0.542,0.016-1.106,0.055-1.688
		c0.352-5.185,2.461-11.367,10.263-14.911c0,0,6.349-0.945,7.426,0L85.897,72.526z"/>
</g>
</svg>
