<?xml version="1.0" encoding="utf-8"?>
<!DOCTYPE svg PUBLIC "-//W3C//DTD SVG 1.1//EN" "http://www.w3.org/Graphics/SVG/1.1/DTD/svg11.dtd">
<svg version="1.1" xmlns="http://www.w3.org/2000/svg" xmlns:xlink="http://www.w3.org/1999/xlink" x="0px" y="0px"
	 width="800px" height="800px" viewBox="0 0 800 800" enable-background="new 0 0 800 800" xml:space="preserve">
<g>
	<path fill="#FFFFFF" d="M400,77.344c105.156,0,117.5,0.469,159.063,2.344c38.438,1.719,59.219,8.125,73.125,13.594
		c18.438,7.188,31.563,15.625,45.313,29.375s22.344,26.875,29.375,45.313c5.313,13.906,11.875,34.688,13.594,73.125
		c1.875,41.563,2.344,53.906,2.344,159.063s-0.469,117.5-2.344,159.063c-1.719,38.438-8.125,59.219-13.594,73.125
		c-7.188,18.438-15.625,31.563-29.375,45.313S650.625,700,632.188,707.031c-13.906,5.313-34.688,11.875-73.125,13.594
		C517.5,722.5,505.156,722.969,400,722.969s-117.5-0.469-159.063-2.344c-38.438-1.719-59.219-8.125-73.125-13.594
		c-18.438-7.188-31.563-15.625-45.313-29.375s-22.344-26.875-29.375-45.313c-5.313-13.906-11.875-34.688-13.594-73.125
		c-1.875-41.563-2.344-53.906-2.344-159.063s0.469-117.5,2.344-159.063c1.719-38.438,8.125-59.219,13.594-73.125
		c7.188-18.438,15.625-31.563,29.375-45.313s26.875-22.344,45.313-29.375c13.906-5.313,34.688-11.875,73.125-13.594
		C282.5,77.656,294.844,77.344,400,77.344 M400,6.406c-106.875,0-120.313,0.469-162.344,2.344
		c-41.875,1.875-70.469,8.594-95.469,18.281C116.25,37.031,94.375,50.625,72.5,72.5s-35.313,43.906-45.469,69.688
		c-9.688,25-16.406,53.594-18.281,95.625C6.875,279.688,6.406,293.125,6.406,400S6.875,520.313,8.75,562.344
		c1.875,41.875,8.594,70.469,18.281,95.625c10,25.938,23.594,47.813,45.469,69.688s43.906,35.313,69.688,45.469
		c25,9.688,53.594,16.406,95.625,18.281s55.313,2.344,162.344,2.344s120.313-0.469,162.344-2.344
		c41.875-1.875,70.469-8.594,95.625-18.281c25.938-10,47.813-23.594,69.688-45.469s35.313-43.906,45.469-69.688
		c9.688-25,16.406-53.594,18.281-95.625s2.344-55.313,2.344-162.344s-0.469-120.313-2.344-162.344
		c-1.875-41.875-8.594-70.469-18.281-95.625c-10-25.938-23.594-47.813-45.469-69.688s-43.906-35.313-69.688-45.469
		c-25-9.688-53.594-16.406-95.625-18.281C520.313,6.875,506.875,6.406,400,6.406L400,6.406z"/>
	<path fill="#FFFFFF" d="M400,197.813c-111.563,0-202.188,90.469-202.188,202.188S288.438,602.188,400,602.188
		S602.188,511.563,602.188,400S511.563,197.813,400,197.813z M400,531.25c-72.5,0-131.25-58.75-131.25-131.25
		S327.5,268.75,400,268.75S531.25,327.5,531.25,400S472.5,531.25,400,531.25z"/>
	<circle fill="#FFFFFF" cx="610.156" cy="189.844" r="47.188"/>
</g>
</svg>
