<?xml version="1.0" standalone="no"?>
<!DOCTYPE svg PUBLIC "-//W3C//DTD SVG 20010904//EN"
 "http://www.w3.org/TR/2001/REC-SVG-20010904/DTD/svg10.dtd">
<svg version="1.0" xmlns="http://www.w3.org/2000/svg"
 width="700.000000pt" height="700.000000pt" viewBox="0 0 700.000000 700.000000"
 preserveAspectRatio="xMidYMid meet">
<metadata>
Created by potrace 1.14, written by Peter Selinger 2001-2017
</metadata>
<g transform="translate(0.000000,700.000000) scale(0.100000,-0.100000)"
fill="#000000" stroke="none">
<path d="M3407 5704 c-1 -1 -41 -4 -89 -7 -48 -4 -97 -9 -110 -11 -13 -3 -43
-8 -68 -11 -161 -23 -377 -87 -537 -161 -29 -13 -62 -29 -75 -34 -13 -5 -30
-14 -38 -20 -8 -5 -53 -30 -100 -57 -47 -26 -87 -49 -90 -52 -3 -4 -34 -26
-70 -50 -277 -190 -525 -474 -686 -786 -140 -272 -221 -553 -241 -835 -8 -116
-8 -281 1 -376 6 -76 43 -299 52 -324 3 -8 8 -26 10 -40 12 -64 88 -268 141
-380 253 -532 689 -928 1248 -1136 92 -34 314 -91 390 -99 33 -4 63 -9 66 -11
13 -7 195 -18 299 -18 399 2 785 110 1129 316 79 48 260 178 299 215 10 10 43
41 73 69 291 274 492 604 612 1009 20 67 44 178 53 240 3 28 8 59 10 70 8 42
18 204 17 300 0 85 -5 163 -18 285 -12 115 -71 342 -124 483 -65 172 -189 401
-282 521 -242 315 -504 530 -839 690 -99 47 -306 123 -382 141 -142 32 -256
51 -363 61 -71 6 -283 12 -288 8z"/>
</g>
</svg>
