<svg xmlns="http://www.w3.org/2000/svg" width="228" height="228" viewBox="0 0 227.8 227.8"><style>.a{fill:#CBCBCB;}</style><path d="M93.4 69.4c5.2-3.4 11.7-5.1 19.3-5.1 10 0 18.3 2.4 25 7.2 6.6 4.8 9.9 11.9 9.9 21.3 0 5.8-1.4 10.6-4.3 14.6 -1.7 2.4-4.9 5.5-9.7 9.2l-4.7 3.7c-2.6 2-4.3 4.3-5.1 7 -0.5 1.7-0.8 4.3-0.9 7.8h-18c0.3-7.5 1-12.7 2.1-15.5 1.1-2.9 4.1-6.1 8.9-9.9l4.8-3.8c1.6-1.2 2.9-2.5 3.8-3.9 1.8-2.4 2.7-5.1 2.7-8 0-3.4-1-6.4-3-9.2 -2-2.8-5.6-4.2-10.8-4.2 -5.1 0-8.8 1.7-10.9 5.1 -2.1 3.4-3.2 7-3.2 10.6H80.2C80.7 83.7 85.1 74.7 93.4 69.4zM104.4 144.2h19.9v19.2h-19.9V144.2z" class="a"/><path d="M113.9 21c51.2 0 92.9 41.7 92.9 92.9s-41.7 92.9-92.9 92.9C62.7 206.8 21 165.1 21 113.9S62.7 21 113.9 21M113.9 0C51 0 0 51 0 113.9s51 113.9 113.9 113.9c62.9 0 113.9-51 113.9-113.9S176.8 0 113.9 0L113.9 0z" class="a"/></svg>