<svg xmlns="http://www.w3.org/2000/svg" width="24" height="24" viewBox="0 0 24 24"><path d="M21.5 10.1c-0.4-0.1-0.8-0.4-1-0.8l-0.6-1.5c-0.2-0.4-0.1-0.9 0.1-1.3l1-1.3c0.2-0.3 0.2-0.9 0-1.2L19.9 3c-0.3-0.3-0.8-0.3-1.2 0l-1.3 1c-0.3 0.2-0.9 0.3-1.3 0.1l-1.5-0.6c-0.4-0.1-0.8-0.6-0.8-1l-0.2-1.6c-0.1-0.4-0.4-0.8-0.8-0.8 0 0-0.3 0-0.8 0 -0.5 0-0.8 0-0.8 0 -0.4 0-0.8 0.4-0.9 0.8l-0.2 1.6c-0.1 0.4-0.4 0.8-0.8 1L7.8 4.1C7.5 4.3 6.9 4.2 6.6 4L5.3 3C4.9 2.7 4.4 2.7 4.1 3L3 4.1C2.7 4.4 2.7 4.9 3 5.3l1 1.3c0.2 0.3 0.3 0.9 0.1 1.3L3.5 9.3c-0.1 0.4-0.6 0.8-1 0.8l-1.6 0.2c-0.4 0.1-0.8 0.4-0.8 0.9 0 0 0 0.3 0 0.8 0 0.5 0 0.8 0 0.8 0 0.4 0.4 0.8 0.8 0.9l1.6 0.2c0.4 0.1 0.8 0.4 1 0.8l0.6 1.5c0.2 0.4 0.1 0.9-0.1 1.3l-1 1.3c-0.2 0.3-0.3 0.8-0.1 1C3 20 3.5 20.5 3.5 20.5s0.2 0.2 0.4 0.3 1 0.4 1.4 0.2l1.3-1c0.3-0.2 0.9-0.3 1.3-0.1l1.5 0.6c0.4 0.1 0.8 0.6 0.8 1l0.2 1.6c0.1 0.4 0.4 0.8 0.9 0.8 0 0 0.3 0 0.8 0 0.5 0 0.8 0 0.8 0 0.4 0 0.8-0.4 0.8-0.8l0.2-1.6c0.1-0.4 0.4-0.8 0.8-1l1.5-0.6c0.4-0.2 0.9-0.1 1.3 0.1l1.3 1c0.3 0.2 0.9 0.2 1.2 0l1.1-1.1c0.3-0.3 0.3-0.8 0-1.2l-1-1.3c-0.2-0.3-0.3-0.9-0.1-1.3l0.6-1.5c0.1-0.4 0.6-0.8 1-0.8l1.6-0.2c0.4-0.1 0.8-0.4 0.8-0.9 0 0 0-0.3 0-0.8 0-0.5 0-0.8 0-0.8 0-0.4-0.4-0.8-0.8-0.9L21.5 10.1zM12 15c-1.7 0-3-1.3-3-3s1.3-3 3-3c1.7 0 3 1.3 3 3C15 13.7 13.7 15 12 15z"/></svg>