<?xml version="1.0" encoding="utf-8"?>
<!DOCTYPE svg PUBLIC "-//W3C//DTD SVG 1.1//EN" "http://www.w3.org/Graphics/SVG/1.1/DTD/svg11.dtd">
<svg version="1.1" xmlns="http://www.w3.org/2000/svg" xmlns:xlink="http://www.w3.org/1999/xlink" x="0px" y="0px"
	 width="60px" height="60px" viewBox="0 0 60 60" enable-background="new 0 0 60 60" xml:space="preserve">
<g>
	<path opacity="0.5" enable-background="new    " d="M60,53.663c0,3.5-2.838,6.337-6.337,6.337H6.337C2.837,60,0,57.163,0,53.663
		V6.337C0,2.837,2.837,0,6.337,0h47.326C57.162,0,60,2.837,60,6.337V53.663z"/>
	<path fill="#FFFFFF" d="M45.641,30.072L30.662,15.297c-0.367-0.361-0.957-0.361-1.323,0L14.361,30.072
		c-0.365,0.36-0.375,0.946-0.022,1.319l3.667,3.871c0.174,0.184,0.415,0.289,0.669,0.295c0.224,0,0.498-0.094,0.677-0.272L30,24.733
		l10.646,10.55c0.176,0.176,0.414,0.273,0.662,0.273c0.006,0,0.01,0,0.016,0c0.254-0.005,0.494-0.111,0.669-0.296l3.668-3.87
		C46.016,31.018,46.004,30.432,45.641,30.072z"/>
</g>
</svg>
