<svg xmlns="http://www.w3.org/2000/svg" width="9.607" height="9.974" viewBox="285.054 495.862 9.607 9.974">
  <path fill="#1EBB0C" d="M286.435 505.8c-.192 0-.385-.096-.385-.096s-.097-.097-.097-.192c-.191-.289-.287-.577-.48-1.25-.385-1.154-.48-1.539-.385-1.73.097-.289.77-.674 1.154-.674.289 0 .385 0 .577.385.097.192.288.577.385.865.096.192.192.385.288.385s.385-.288.577-.77c.288-.384.48-.769.577-.865.096-.096.191-.192.191-.288.289-.577 2.597-3.75 3.27-4.52.192-.192.289-.385.289-.385s.191-.192.48-.384c.385-.289.673-.289 1.058-.385.77-.097.865 0 .577.48-.192.192-.385.48-.48.577-.097.096-.385.48-.674.769-.288.385-.48.674-.576.674-.097.096-.193.288-.289.385-.096.191-.288.384-.288.384-.288.192-2.885 3.942-3.173 4.327-.097.097-.193.289-.193.289s-.288.384-.576.865c-.289.48-.577.865-.674.865-.288.289-.769.385-1.153.289z"/>
</svg>
