<?xml version="1.0" encoding="UTF-8" standalone="no"?><svg xmlns="http://www.w3.org/2000/svg" width="750" height="500" xmlns:xlink="http://www.w3.org/1999/xlink" version="1"><path fill="#74acdf" d="M0 0h750v500H0z"/><path fill="#fff" d="M0 166.67h750v166.67H0z"/><g id="c" transform="translate(-25)"><path id="a" fill="#f6b40e" stroke="#85340a" stroke-width="1.112" d="M396.84 251.3l28.45 62s.48 1.2 1.27.86c.8-.33.3-1.5.3-1.5l-23.7-63.97m-.7 24.1c-.34 9.44 5.46 14.63 4.7 23.05-.75 8.42 3.87 13.18 4.94 16.45 1.08 3.27-1.15 5.23-.2 5.7.98.46 3.08-2.12 2.4-6.78-.7-4.65-4.22-6.04-3.4-16.32.84-10.28-4.2-12.68-2.97-22.06"/><use width="800" height="500" xlink:href="#a" transform="matrix(.924 .383 -.383 .924 126.119 -134.043)"/><use width="800" height="500" xlink:href="#a" transform="matrix(.707 .707 -.707 .707 293.934 -209.619)"/><use width="800" height="500" xlink:href="#a" transform="matrix(.383 .924 -.924 .383 477.897 -215.223)"/><path id="b" fill="#85340a" d="M404.3 274.4c.46 9.06 5.6 13.07 4.6 21.32 2.2-6.52-3.13-11.58-2.83-21.22m-7.65-23.75l19.5 42.57-16.34-43.88"/><use width="800" height="500" xlink:href="#b" transform="matrix(.924 .383 -.383 .924 126.119 -134.043)"/><use width="800" height="500" xlink:href="#b" transform="matrix(.707 .707 -.707 .707 293.934 -209.619)"/><use width="800" height="500" xlink:href="#b" transform="matrix(.383 .924 -.924 .383 477.897 -215.223)"/></g><use width="800" height="500" xlink:href="#c" transform="matrix(0 1 -1 0 625 -125)"/><use width="800" height="500" xlink:href="#c" transform="matrix(-1 0 0 -1 750 500)"/><use width="800" height="500" xlink:href="#c" transform="matrix(0 -1 1 0 125 625)"/><circle cx="400" cy="250" r="27.778" fill="#f6b40e" stroke="#85340a" stroke-width="1.5" transform="translate(-25)"/><path id="h" fill="#843511" d="M384.47 244.06c-1.9 0-3.7.82-4.78 2.53 2.13 1.9 6.85 2.12 10.05-.23-1.4-1.5-3.38-2.3-5.28-2.3zm-.03.44c1.85-.04 3.57.8 3.8 1.65-2.13 2.35-5.54 2.15-7.68.44.94-1.5 2.44-2.08 3.88-2.1z"/><use width="800" height="500" xlink:href="#d" transform="matrix(-1 0 0 1 750.25 0)"/><use width="800" height="500" xlink:href="#e" transform="matrix(-1 0 0 1 750.25 0)"/><use width="800" height="500" xlink:href="#f" transform="translate(18.862)"/><use width="800" height="500" xlink:href="#g" transform="matrix(-1 0 0 1 750.25 0)"/><path fill="#85340a" d="M370.75 253.84c-.9.17-1.56.98-1.56 1.9 0 1.07.86 1.9 1.93 1.9.62 0 1.2-.28 1.56-.8.73.56 1.75.62 2.3.62.08 0 .2 0 .25 0 .55 0 1.57-.06 2.3-.62.37.52.95.8 1.57.8 1.06 0 1.94-.83 1.94-1.9 0-.92-.65-1.73-1.56-1.9.5.18.84.68.84 1.22 0 .7-.57 1.28-1.28 1.28-.68 0-1.24-.54-1.28-1.22-.2.42-1.03 1.66-2.65 1.72-1.63-.06-2.45-1.3-2.66-1.72-.04.68-.6 1.22-1.28 1.22-.72 0-1.3-.57-1.3-1.28 0-.54.34-1.04.85-1.22z"/><path fill="#85340a" d="M372.84 259.53c-2.14 0-2.98 1.94-4.9 3.22 1.06-.43 1.9-1.27 3.4-2.13 1.5-.85 2.77.2 3.63.2h.03c.85 0 2.13-1.05 3.62-.2 1.5.86 2.37 1.7 3.44 2.13-1.92-1.28-2.8-3.22-4.94-3.22-.43 0-1.27.23-2.12.66h-.04c-.85-.44-1.7-.67-2.12-.67z"/><path fill="#85340a" d="M372.12 262.06c-.84.04-1.96.2-3.56.7 3.84-.87 4.7.43 6.4.43h.03c1.7 0 2.55-1.3 6.4-.45-4.27-1.28-5.12-.44-6.4-.44h-.04c-.8 0-1.43-.3-2.84-.24z"/><path fill="#85340a" d="M368.75 262.72c-.25 0-.52 0-.8.03 4.48.43 2.32 3 7.02 3h.03c4.7 0 2.57-2.57 7.06-3-4.7-.43-3.2 2.35-7.06 2.35h-.03c-3.6 0-2.5-2.43-6.22-2.38z"/><path fill="#85340a" d="M378.85 269.66c0-2.12-1.72-3.85-3.85-3.85-2.12 0-3.84 1.74-3.84 3.86.42-1.78 2-3.04 3.84-3.04 1.84 0 3.43 1.26 3.85 3.04z"/><path id="e" fill="#85340a" d="M357.73 244.02c4.9-4.27 11.1-4.9 14.53-1.7.84 1.1 1.37 2.3 1.6 3.56.42 2.43-.34 5.06-2.24 7.76.2 0 .64.2.85.42 1.7-3.24 2.3-6.57 1.74-9.74-.13-.83-.36-1.64-.66-2.44-4.7-3.84-11.1-4.27-15.8 2.14z"/><path id="d" fill="#85340a" d="M365.42 242.74c2.78 0 3.42.64 4.7 1.7 1.28 1.08 1.92.86 2.14 1.08.2.2 0 .85-.43.64-.43-.22-1.28-.64-2.56-1.7-1.3-1.08-2.57-1.08-3.85-1.08-3.85 0-5.98 3.2-6.4 3-.43-.22 2.13-3.64 6.4-3.64z"/><use width="800" height="500" xlink:href="#h" transform="translate(-19.181)"/><circle id="f" cx="390.54" cy="246.15" r="1.923" fill="#85340a" transform="translate(-25)"/><path id="g" fill="#85340a" d="M360.3 247.44c3.62 2.78 7.26 2.56 9.4 1.28 2.13-1.28 2.13-1.7 1.7-1.7-.42 0-.85.42-2.56 1.27-1.7.85-4.27.85-8.55-.86z"/></svg>