<svg id="flag_us" xmlns="http://www.w3.org/2000/svg" width="900" height="600" viewBox="487.5 120.9 900 600">
  <style>
    .st1{fill:#fff}
  </style>
  <path fill="#b22234" d="M487.5 120.9h900v600h-900z"/>
  <path class="st1" d="M487.5 167h900v46.2h-900zM487.5 259.4h900v46.2h-900zM487.5 351.7h900v46.2h-900zM487.5 444h900v46.2h-900zM487.5 536.3h900v46.2h-900zM487.5 628.6h900v46.2h-900z"/>
  <path fill="#3c3b6e" d="M487.5 120.9h456V444h-456z"/>
  <path class="st1" d="M532.2 155.4l10.9-7.9h-13.5l-4.1-12.8-4.1 12.8h-13.5l10.9 7.9-4.2 12.7 10.9-7.9 10.9 7.9zM532.2 220l10.9-7.9h-13.5l-4.1-12.7-4.1 12.7h-13.5l10.9 7.9-4.2 12.7 10.9-7.8 10.9 7.8zM532.2 284.6l10.9-7.9h-13.5l-4.1-12.7-4.1 12.7h-13.5l10.9 7.9-4.2 12.8 10.9-7.9 10.9 7.9zM532.2 349.2l10.9-7.9h-13.5l-4.1-12.7-4.1 12.7h-13.5l10.9 7.9-4.2 12.8 10.9-7.9 10.9 7.9zM532.2 413.8l10.9-7.8h-13.5l-4.1-12.8-4.1 12.8h-13.5l10.9 7.8-4.2 12.8 10.9-7.9 10.9 7.9zM570.2 187.7l10.9-7.9h-13.5l-4.1-12.8-4.1 12.8h-13.5l10.9 7.9-4.2 12.7 10.9-7.8 10.9 7.8zM570.2 252.3l10.9-7.9h-13.5l-4.1-12.7-4.1 12.7h-13.5l10.9 7.9-4.2 12.8 10.9-7.9 10.9 7.9zM570.2 316.9l10.9-7.9h-13.5l-4.1-12.7-4.1 12.7h-13.5l10.9 7.9-4.2 12.8 10.9-7.9 10.9 7.9zM570.2 381.5l10.9-7.9h-13.5l-4.1-12.7-4.1 12.7h-13.5l10.9 7.9-4.2 12.8 10.9-7.9 10.9 7.9zM608.2 155.4l10.9-7.9h-13.5l-4.1-12.8-4.1 12.8h-13.5l10.9 7.9-4.2 12.7 10.9-7.9 10.9 7.9zM608.2 220l10.9-7.9h-13.5l-4.1-12.7-4.1 12.7h-13.5l10.9 7.9-4.2 12.7 10.9-7.8 10.9 7.8zM608.2 284.6l10.9-7.9h-13.5l-4.1-12.7-4.1 12.7h-13.5l10.9 7.9-4.2 12.8 10.9-7.9 10.9 7.9zM608.2 349.2l10.9-7.9h-13.5l-4.1-12.7-4.1 12.7h-13.5l10.9 7.9-4.2 12.8 10.9-7.9 10.9 7.9zM608.2 413.8l10.9-7.8h-13.5l-4.1-12.8-4.1 12.8h-13.5l10.9 7.8-4.2 12.8 10.9-7.9 10.9 7.9zM646.2 187.7l10.9-7.9h-13.5l-4.1-12.8-4.1 12.8h-13.5l10.9 7.9-4.2 12.7 10.9-7.8 10.9 7.8zM646.2 252.3l10.9-7.9h-13.5l-4.1-12.7-4.1 12.7h-13.5l10.9 7.9-4.2 12.8 10.9-7.9 10.9 7.9zM646.2 316.9l10.9-7.9h-13.5l-4.1-12.7-4.1 12.7h-13.5l10.9 7.9-4.2 12.8 10.9-7.9 10.9 7.9zM646.2 381.5l10.9-7.9h-13.5l-4.1-12.7-4.1 12.7h-13.5l10.9 7.9-4.2 12.8 10.9-7.9 10.9 7.9zM684.2 155.4l10.9-7.9h-13.5l-4.1-12.8-4.1 12.8h-13.5l10.9 7.9-4.2 12.7 10.9-7.9 10.9 7.9zM684.2 220l10.9-7.9h-13.5l-4.1-12.7-4.1 12.7h-13.5l10.9 7.9-4.2 12.7 10.9-7.8 10.9 7.8zM684.2 284.6l10.9-7.9h-13.5l-4.1-12.7-4.1 12.7h-13.5l10.9 7.9-4.2 12.8 10.9-7.9 10.9 7.9zM684.2 349.2l10.9-7.9h-13.5l-4.1-12.7-4.1 12.7h-13.5l10.9 7.9-4.2 12.8 10.9-7.9 10.9 7.9zM684.2 413.8l10.9-7.8h-13.5l-4.1-12.8-4.1 12.8h-13.5l10.9 7.8-4.2 12.8 10.9-7.9 10.9 7.9zM722.2 187.7l10.9-7.9h-13.5l-4.1-12.8-4.1 12.8h-13.5l10.9 7.9-4.2 12.7 10.9-7.8 10.9 7.8zM722.2 252.3l10.9-7.9h-13.5l-4.1-12.7-4.1 12.7h-13.5l10.9 7.9-4.2 12.8 10.9-7.9 10.9 7.9zM722.2 316.9l10.9-7.9h-13.5l-4.1-12.7-4.1 12.7h-13.5l10.9 7.9-4.2 12.8 10.9-7.9 10.9 7.9zM722.2 381.5l10.9-7.9h-13.5l-4.1-12.7-4.1 12.7h-13.5l10.9 7.9-4.2 12.8 10.9-7.9 10.9 7.9zM760.2 155.4l10.9-7.9h-13.5l-4.1-12.8-4.1 12.8h-13.5l10.9 7.9-4.2 12.7 10.9-7.9 10.9 7.9zM760.2 220l10.9-7.9h-13.5l-4.1-12.7-4.1 12.7h-13.5l10.9 7.9-4.2 12.7 10.9-7.8 10.9 7.8zM760.2 284.6l10.9-7.9h-13.5l-4.1-12.7-4.1 12.7h-13.5l10.9 7.9-4.2 12.8 10.9-7.9 10.9 7.9zM760.2 349.2l10.9-7.9h-13.5l-4.1-12.7-4.1 12.7h-13.5l10.9 7.9-4.2 12.8 10.9-7.9 10.9 7.9zM760.2 413.8l10.9-7.8h-13.5l-4.1-12.8-4.1 12.8h-13.5l10.9 7.8-4.2 12.8 10.9-7.9 10.9 7.9zM798.2 187.7l10.9-7.9h-13.5l-4.1-12.8-4.1 12.8h-13.5l10.9 7.9-4.2 12.7 10.9-7.8 10.9 7.8zM798.2 252.3l10.9-7.9h-13.5l-4.1-12.7-4.1 12.7h-13.5l10.9 7.9-4.2 12.8 10.9-7.9 10.9 7.9zM798.2 316.9l10.9-7.9h-13.5l-4.1-12.7-4.1 12.7h-13.5l10.9 7.9-4.2 12.8 10.9-7.9 10.9 7.9zM798.2 381.5l10.9-7.9h-13.5l-4.1-12.7-4.1 12.7h-13.5l10.9 7.9-4.2 12.8 10.9-7.9 10.9 7.9zM836.2 155.4l10.9-7.9h-13.5l-4.1-12.8-4.1 12.8h-13.5l10.9 7.9-4.2 12.7 10.9-7.9 10.9 7.9zM836.2 220l10.9-7.9h-13.5l-4.1-12.7-4.1 12.7h-13.5l10.9 7.9-4.2 12.7 10.9-7.8 10.9 7.8zM836.2 284.6l10.9-7.9h-13.5l-4.1-12.7-4.1 12.7h-13.5l10.9 7.9-4.2 12.8 10.9-7.9 10.9 7.9zM836.2 349.2l10.9-7.9h-13.5l-4.1-12.7-4.1 12.7h-13.5l10.9 7.9-4.2 12.8 10.9-7.9 10.9 7.9zM836.2 413.8l10.9-7.8h-13.5l-4.1-12.8-4.1 12.8h-13.5l10.9 7.8-4.2 12.8 10.9-7.9 10.9 7.9zM874.2 187.7l10.9-7.9h-13.5l-4.1-12.8-4.1 12.8h-13.5l10.9 7.9-4.2 12.7 10.9-7.8 10.9 7.8zM874.2 252.3l10.9-7.9h-13.5l-4.1-12.7-4.1 12.7h-13.5l10.9 7.9-4.2 12.8 10.9-7.9 10.9 7.9zM874.2 316.9l10.9-7.9h-13.5l-4.1-12.7-4.1 12.7h-13.5l10.9 7.9-4.2 12.8 10.9-7.9 10.9 7.9zM874.2 381.5l10.9-7.9h-13.5l-4.1-12.7-4.1 12.7h-13.5l10.9 7.9-4.2 12.8 10.9-7.9 10.9 7.9zM912.2 155.4l10.9-7.9h-13.5l-4.1-12.8-4.1 12.8h-13.5l10.9 7.9-4.2 12.7 10.9-7.9 10.9 7.9zM912.2 220l10.9-7.9h-13.5l-4.1-12.7-4.1 12.7h-13.5l10.9 7.9-4.2 12.7 10.9-7.8 10.9 7.8zM912.2 284.6l10.9-7.9h-13.5l-4.1-12.7-4.1 12.7h-13.5l10.9 7.9-4.2 12.8 10.9-7.9 10.9 7.9zM912.2 349.2l10.9-7.9h-13.5l-4.1-12.7-4.1 12.7h-13.5l10.9 7.9-4.2 12.8 10.9-7.9 10.9 7.9zM912.2 413.8l10.9-7.8h-13.5l-4.1-12.8-4.1 12.8h-13.5l10.9 7.8-4.2 12.8 10.9-7.9 10.9 7.9z"/>
</svg>
