<?xml version="1.0" encoding="utf-8"?>
<!DOCTYPE svg PUBLIC "-//W3C//DTD SVG 1.1//EN" "http://www.w3.org/Graphics/SVG/1.1/DTD/svg11.dtd">
<svg version="1.1" xmlns="http://www.w3.org/2000/svg" xmlns:xlink="http://www.w3.org/1999/xlink" x="0px" y="0px"
	 width="75px" height="50px" viewBox="0 0 75 50" enable-background="new 0 0 75 50" xml:space="preserve">
<rect x="0" fill="#00247D" width="75" height="50"/>
<path fill="#FFFFFF" d="M65.958,0L0,43.971V50h9.042L75,6.029V0H65.958z M0,0v6.029L65.958,50H75v-6.029L9.042,0H0z"/>
<path fill="#CF142B" d="M0,0v3.998L31.505,25H37.5L0,50h5.995L37.5,28.998V25L75,50v-3.998L43.495,25H37.5L75,0h-5.995L37.5,21.002
	V25L0,0z"/>
<path fill="#FFFFFF" d="M0,16.667v16.667h75V16.667H0z M29.167,0v50h16.667V0H29.167z"/>
<g>
	<rect x="0" y="20" fill="#CF142B" width="75" height="10"/>
	<rect x="32.5" fill="#CF142B" width="10" height="50"/>
</g>
</svg>
