<?xml version="1.0" encoding="utf-8"?>
<!DOCTYPE svg PUBLIC "-//W3C//DTD SVG 1.1//EN" "http://www.w3.org/Graphics/SVG/1.1/DTD/svg11.dtd">
<svg version="1.1" id="Capa_1" xmlns="http://www.w3.org/2000/svg" xmlns:xlink="http://www.w3.org/1999/xlink" x="0px" y="0px"
	 width="75px" height="50px" viewBox="0 0 75 50" enable-background="new 0 0 75 50" xml:space="preserve">
<path fill="#74ACDF" d="M0,0h75v50H0V0z"/>
<path fill="#FFFFFF" d="M0,16.667h75v16.667H0V16.667z"/>
<g id="c" transform="translate(-25)">
	<path id="a" fill="#F6B40E" stroke="#85340A" stroke-width="0.1112" d="M62.184,25.13l2.845,6.2c0,0,0.048,0.12,0.127,0.086
		c0.08-0.033,0.03-0.15,0.03-0.15l-2.37-6.397 M62.746,27.279c-0.034,0.944,0.546,1.463,0.47,2.305
		c-0.075,0.842,0.387,1.318,0.494,1.645c0.108,0.327-0.115,0.523-0.02,0.57c0.098,0.046,0.308-0.212,0.24-0.678
		c-0.07-0.465-0.422-0.604-0.34-1.632c0.084-1.028-0.42-1.268-0.297-2.206"/>
	<g transform="matrix(.924 .383 -.383 .924 126.119 -134.043)">
		<path id="a_1_" fill="#F6B40E" stroke="#85340A" stroke-width="0.1112" d="M62.155,25.015l0.254,6.818
			c0,0-0.001,0.129,0.084,0.128c0.086,0,0.085-0.127,0.085-0.127l0.26-6.818 M61.852,27.216c-0.393,0.859-0.056,1.561-0.449,2.31
			c-0.392,0.75-0.147,1.366-0.174,1.709c-0.025,0.343-0.306,0.439-0.236,0.519c0.073,0.08,0.366-0.078,0.481-0.535
			c0.114-0.457-0.158-0.72,0.311-1.638c0.472-0.918,0.098-1.333,0.571-2.152"/>
	</g>
	<g transform="matrix(.707 .707 -.707 .707 293.934 -209.619)">
		<path id="a_2_" fill="#F6B40E" stroke="#85340A" stroke-width="0.1112" d="M62.183,24.862l-2.372,6.395
			c0,0-0.051,0.119,0.029,0.151c0.08,0.033,0.127-0.085,0.127-0.085l2.847-6.198 M61.061,26.778
			c-0.691,0.644-0.648,1.42-1.297,1.962c-0.648,0.542-0.658,1.206-0.813,1.512c-0.155,0.308-0.451,0.289-0.417,0.389
			c0.037,0.102,0.368,0.068,0.649-0.31c0.279-0.378,0.129-0.725,0.914-1.394c0.786-0.667,0.6-1.193,1.35-1.77"/>
	</g>
	<g transform="matrix(.383 .924 -.924 .383 477.897 -215.223)">
		<path id="a_3_" fill="#F6B40E" stroke="#85340A" stroke-width="0.1112" d="M62.269,24.771l-4.639,5.003c0,0-0.092,0.09-0.031,0.15
			c0.061,0.061,0.15-0.03,0.15-0.03l5.003-4.64 M60.498,26.113c-0.885,0.33-1.143,1.065-1.95,1.317
			c-0.807,0.253-1.07,0.863-1.331,1.087c-0.261,0.225-0.527,0.094-0.535,0.2c-0.005,0.108,0.314,0.204,0.718-0.038
			c0.403-0.243,0.396-0.621,1.378-0.939c0.982-0.316,1.011-0.874,1.925-1.12"/>
	</g>
	<path id="b" fill="#85340A" d="M62.93,27.44c0.046,0.906,0.56,1.307,0.46,2.132c0.22-0.652-0.313-1.158-0.283-2.122 M62.342,25.075
		l1.95,4.257l-1.634-4.388"/>
	<g transform="matrix(.924 .383 -.383 .924 126.119 -134.043)">
		<path id="b_1_" fill="#85340A" d="M61.959,27.435c-0.304,0.854,0.017,1.422-0.391,2.146c0.453-0.518,0.154-1.19,0.551-2.069
			 M62.322,25.024l0.171,4.68l0.171-4.68"/>
	</g>
	<g transform="matrix(.707 .707 -.707 .707 293.934 -209.619)">
		<path id="b_2_" fill="#85340A" d="M61.077,27.022c-0.608,0.673-0.528,1.32-1.182,1.833c0.617-0.305,0.598-1.04,1.3-1.7
			 M62.333,24.935l-1.631,4.388l1.947-4.257"/>
	</g>
	<g transform="matrix(.383 .924 -.924 .383 477.897 -215.223)">
		<path id="b_3_" fill="#85340A" d="M60.42,26.345c-0.82,0.389-0.993,1.018-1.794,1.241c0.687-0.046,0.95-0.732,1.853-1.074
			 M62.38,24.896l-3.187,3.432l3.429-3.19"/>
	</g>
</g>
<g>
	<g id="c_1_" transform="translate(-25)">
		<path id="a_4_" fill="#F6B40E" stroke="#85340A" stroke-width="0.1112" d="M62.37,24.684l-6.2,2.845c0,0-0.12,0.048-0.086,0.127
			c0.033,0.08,0.15,0.03,0.15,0.03l6.397-2.37 M60.221,25.246c-0.944-0.034-1.463,0.546-2.305,0.47
			c-0.842-0.075-1.318,0.387-1.645,0.494c-0.327,0.108-0.523-0.115-0.57-0.02c-0.046,0.098,0.212,0.308,0.678,0.24
			c0.465-0.07,0.604-0.422,1.632-0.34c1.028,0.084,1.268-0.42,2.206-0.297"/>
		<g transform="matrix(.924 .383 -.383 .924 126.119 -134.043)">
			<path id="a_5_" fill="#F6B40E" stroke="#85340A" stroke-width="0.1112" d="M62.485,24.655l-6.818,0.254
				c0,0-0.129-0.001-0.128,0.084c0,0.086,0.127,0.085,0.127,0.085l6.818,0.26 M60.284,24.352c-0.859-0.393-1.561-0.056-2.31-0.449
				c-0.75-0.392-1.366-0.147-1.709-0.173c-0.343-0.026-0.439-0.307-0.519-0.237c-0.08,0.073,0.078,0.366,0.535,0.481
				c0.457,0.114,0.72-0.158,1.638,0.311c0.918,0.471,1.333,0.098,2.152,0.571"/>
		</g>
		<g transform="matrix(.707 .707 -.707 .707 293.934 -209.619)">
			<path id="a_6_" fill="#F6B40E" stroke="#85340A" stroke-width="0.1112" d="M62.638,24.683l-6.395-2.372
				c0,0-0.119-0.051-0.151,0.029c-0.033,0.08,0.085,0.127,0.085,0.127l6.198,2.847 M60.722,23.561
				c-0.644-0.691-1.42-0.648-1.962-1.297c-0.542-0.648-1.206-0.658-1.512-0.813c-0.308-0.155-0.289-0.451-0.389-0.417
				c-0.102,0.037-0.068,0.368,0.31,0.649c0.378,0.279,0.725,0.129,1.394,0.914c0.667,0.786,1.193,0.6,1.77,1.35"/>
		</g>
		<g transform="matrix(.383 .924 -.924 .383 477.897 -215.223)">
			<path id="a_7_" fill="#F6B40E" stroke="#85340A" stroke-width="0.1112" d="M62.729,24.769l-5.003-4.639
				c0,0-0.09-0.092-0.15-0.031c-0.061,0.061,0.03,0.15,0.03,0.15l4.64,5.003 M61.387,22.998c-0.33-0.885-1.065-1.143-1.317-1.95
				c-0.253-0.807-0.862-1.07-1.086-1.331c-0.225-0.261-0.094-0.527-0.2-0.535c-0.108-0.005-0.203,0.314,0.038,0.718
				c0.243,0.403,0.621,0.396,0.939,1.378c0.316,0.982,0.874,1.011,1.12,1.925"/>
		</g>
		<path id="b_4_" fill="#85340A" d="M60.06,25.43c-0.906,0.046-1.307,0.56-2.132,0.46c0.652,0.22,1.158-0.313,2.122-0.283
			 M62.425,24.842l-4.257,1.95l4.388-1.634"/>
		<g transform="matrix(.924 .383 -.383 .924 126.119 -134.043)">
			<path id="b_5_" fill="#85340A" d="M60.065,24.46c-0.854-0.305-1.422,0.017-2.146-0.392c0.518,0.453,1.19,0.154,2.069,0.551
				 M62.476,24.822l-4.68,0.171l4.68,0.171"/>
		</g>
		<g transform="matrix(.707 .707 -.707 .707 293.934 -209.619)">
			<path id="b_6_" fill="#85340A" d="M60.478,23.577c-0.673-0.608-1.32-0.528-1.833-1.182c0.305,0.617,1.04,0.598,1.7,1.3
				 M62.565,24.833l-4.388-1.631l4.257,1.947"/>
		</g>
		<g transform="matrix(0 1 -1 0 625 -125)">
			<path id="b_7_" fill="#85340A" d="M61.155,22.92c-0.389-0.82-1.018-0.993-1.241-1.794c0.046,0.687,0.732,0.95,1.074,1.853
				 M62.604,24.88l-3.432-3.187l3.19,3.429"/>
		</g>
	</g>
	<g>
		<g id="c_2_" transform="translate(-25)">
			<path id="a_8_" fill="#F6B40E" stroke="#85340A" stroke-width="0.1112" d="M62.816,24.87l-2.845-6.2c0,0-0.048-0.12-0.127-0.086
				c-0.08,0.033-0.03,0.15-0.03,0.15l2.37,6.397 M62.254,22.721c0.034-0.944-0.546-1.463-0.47-2.305
				c0.075-0.842-0.387-1.318-0.494-1.645c-0.108-0.327,0.115-0.523,0.02-0.57c-0.098-0.046-0.308,0.212-0.24,0.678
				c0.07,0.465,0.422,0.604,0.34,1.632c-0.084,1.028,0.42,1.268,0.297,2.206"/>
			<g transform="matrix(.924 .383 -.383 .924 126.119 -134.043)">
				<path id="a_9_" fill="#F6B40E" stroke="#85340A" stroke-width="0.1112" d="M62.845,24.985l-0.254-6.818
					c0,0,0.001-0.129-0.084-0.128c-0.086,0-0.085,0.127-0.085,0.127l-0.26,6.818 M63.148,22.784c0.393-0.859,0.056-1.561,0.449-2.31
					c0.392-0.75,0.147-1.366,0.174-1.709c0.025-0.343,0.306-0.439,0.236-0.519c-0.073-0.08-0.366,0.078-0.481,0.535
					c-0.114,0.457,0.158,0.72-0.311,1.638c-0.472,0.918-0.098,1.333-0.571,2.152"/>
			</g>
			<g transform="matrix(.707 .707 -.707 .707 293.934 -209.619)">
				<path id="a_10_" fill="#F6B40E" stroke="#85340A" stroke-width="0.1112" d="M62.817,25.138l2.372-6.395
					c0,0,0.051-0.119-0.029-0.151c-0.08-0.033-0.127,0.085-0.127,0.085l-2.847,6.198 M63.939,23.222
					c0.691-0.644,0.648-1.42,1.297-1.962c0.648-0.542,0.658-1.206,0.813-1.512c0.155-0.308,0.451-0.289,0.417-0.389
					c-0.037-0.102-0.368-0.068-0.649,0.31c-0.279,0.378-0.129,0.725-0.914,1.394c-0.786,0.667-0.6,1.193-1.35,1.77"/>
			</g>
			<g transform="matrix(.383 .924 -.924 .383 477.897 -215.223)">
				<path id="a_11_" fill="#F6B40E" stroke="#85340A" stroke-width="0.1112" d="M62.731,25.229l4.639-5.003
					c0,0,0.092-0.09,0.031-0.15c-0.061-0.061-0.15,0.03-0.15,0.03l-5.003,4.64 M64.502,23.887c0.885-0.33,1.143-1.065,1.95-1.317
					c0.807-0.253,1.07-0.863,1.331-1.087c0.261-0.225,0.527-0.094,0.535-0.2c0.005-0.108-0.314-0.204-0.718,0.038
					c-0.403,0.243-0.396,0.621-1.378,0.939c-0.982,0.316-1.011,0.874-1.925,1.12"/>
			</g>
			<path id="b_8_" fill="#85340A" d="M62.07,22.56c-0.046-0.906-0.56-1.307-0.46-2.132c-0.22,0.652,0.313,1.158,0.283,2.122
				 M62.658,24.925l-1.95-4.257l1.634,4.388"/>
			<g transform="matrix(.924 .383 -.383 .924 126.119 -134.043)">
				<path id="b_9_" fill="#85340A" d="M63.041,22.565c0.304-0.854-0.017-1.422,0.391-2.146c-0.453,0.518-0.154,1.19-0.551,2.069
					 M62.678,24.976l-0.171-4.68l-0.171,4.68"/>
			</g>
			<g transform="matrix(.707 .707 -.707 .707 293.934 -209.619)">
				<path id="b_10_" fill="#85340A" d="M63.923,22.978c0.608-0.673,0.528-1.32,1.182-1.833c-0.617,0.305-0.598,1.04-1.3,1.7
					 M62.667,25.065l1.631-4.388l-1.947,4.257"/>
			</g>
			<g transform="matrix(-1 0 0 -1 750 500)">
				<path id="b_11_" fill="#85340A" d="M64.58,23.655c0.82-0.389,0.993-1.018,1.794-1.241c-0.687,0.046-0.95,0.732-1.853,1.074
					 M62.62,25.104l3.187-3.432l-3.429,3.19"/>
			</g>
		</g>
		<g>
			<g id="c_3_" transform="translate(-25)">
				<path id="a_12_" fill="#F6B40E" stroke="#85340A" stroke-width="0.1112" d="M62.63,25.316l6.2-2.845c0,0,0.12-0.048,0.086-0.127
					c-0.033-0.08-0.15-0.03-0.15-0.03l-6.397,2.37 M64.779,24.754c0.944,0.034,1.463-0.546,2.305-0.47
					c0.842,0.075,1.318-0.387,1.645-0.494c0.327-0.108,0.523,0.115,0.57,0.02c0.046-0.098-0.212-0.308-0.678-0.24
					c-0.465,0.07-0.604,0.422-1.632,0.34c-1.028-0.084-1.268,0.42-2.206,0.297"/>
				<g transform="matrix(.924 .383 -.383 .924 126.119 -134.043)">
					<path id="a_13_" fill="#F6B40E" stroke="#85340A" stroke-width="0.1112" d="M62.515,25.345l6.818-0.254
						c0,0,0.129,0.001,0.128-0.084c0-0.086-0.127-0.085-0.127-0.085l-6.818-0.26 M64.716,25.648c0.859,0.393,1.561,0.056,2.31,0.449
						c0.75,0.392,1.366,0.147,1.709,0.173c0.343,0.026,0.439,0.307,0.519,0.237c0.08-0.073-0.078-0.366-0.535-0.481
						c-0.457-0.114-0.72,0.158-1.638-0.311c-0.918-0.471-1.333-0.098-2.152-0.571"/>
				</g>
				<g transform="matrix(.707 .707 -.707 .707 293.934 -209.619)">
					<path id="a_14_" fill="#F6B40E" stroke="#85340A" stroke-width="0.1112" d="M62.362,25.317l6.395,2.372
						c0,0,0.119,0.051,0.151-0.029c0.033-0.08-0.085-0.127-0.085-0.127l-6.198-2.847 M64.278,26.439
						c0.644,0.691,1.42,0.648,1.962,1.297c0.542,0.648,1.206,0.658,1.512,0.813c0.308,0.155,0.289,0.451,0.389,0.417
						c0.102-0.037,0.068-0.368-0.31-0.649c-0.378-0.279-0.725-0.129-1.394-0.914c-0.667-0.786-1.193-0.6-1.77-1.35"/>
				</g>
				<g transform="matrix(.383 .924 -.924 .383 477.897 -215.223)">
					<path id="a_15_" fill="#F6B40E" stroke="#85340A" stroke-width="0.1112" d="M62.271,25.231l5.003,4.639
						c0,0,0.09,0.092,0.15,0.031c0.061-0.061-0.03-0.15-0.03-0.15l-4.64-5.003 M63.613,27.002c0.33,0.885,1.065,1.143,1.317,1.95
						c0.253,0.807,0.862,1.07,1.086,1.331c0.225,0.261,0.094,0.527,0.2,0.535c0.108,0.005,0.203-0.314-0.038-0.718
						c-0.243-0.403-0.621-0.396-0.939-1.378c-0.316-0.982-0.874-1.011-1.12-1.925"/>
				</g>
				<path id="b_12_" fill="#85340A" d="M64.94,24.57c0.906-0.046,1.307-0.56,2.132-0.46c-0.652-0.22-1.158,0.313-2.122,0.283
					 M62.575,25.158l4.257-1.95l-4.388,1.634"/>
				<g transform="matrix(.924 .383 -.383 .924 126.119 -134.043)">
					<path id="b_13_" fill="#85340A" d="M64.935,25.54c0.854,0.305,1.422-0.017,2.146,0.392c-0.518-0.453-1.19-0.154-2.069-0.551
						 M62.524,25.178l4.68-0.171l-4.68-0.171"/>
				</g>
				<g transform="matrix(.707 .707 -.707 .707 293.934 -209.619)">
					<path id="b_14_" fill="#85340A" d="M64.522,26.423c0.673,0.608,1.32,0.528,1.833,1.182c-0.305-0.617-1.04-0.598-1.7-1.3
						 M62.435,25.167l4.388,1.631l-4.257-1.947"/>
				</g>
				<g transform="matrix(0 -1 1 0 125 625)">
					<path id="b_15_" fill="#85340A" d="M63.845,27.08c0.389,0.82,1.018,0.993,1.241,1.794c-0.046-0.687-0.732-0.95-1.074-1.853
						 M62.396,25.12l3.432,3.187l-3.19-3.429"/>
				</g>
			</g>
			<circle fill="#F6B40E" stroke="#85340A" stroke-width="0.15" cx="37.5" cy="25" r="2.778"/>
			<path id="h" fill="#843511" d="M38.447,24.406c-0.19,0-0.37,0.082-0.478,0.253c0.213,0.19,0.685,0.212,1.005-0.023
				C38.834,24.486,38.636,24.406,38.447,24.406L38.447,24.406z M38.444,24.45c0.185-0.004,0.357,0.08,0.38,0.165
				c-0.213,0.235-0.554,0.215-0.768,0.044C38.15,24.509,38.3,24.451,38.444,24.45L38.444,24.45z"/>
			<g transform="matrix(-1 0 0 1 750.25 0)">
				<path id="d" fill="#85340A" d="M38.483,24.274c-0.278,0-0.342,0.064-0.47,0.17c-0.128,0.108-0.192,0.086-0.214,0.108
					c-0.02,0.021,0,0.085,0.043,0.064c0.043-0.022,0.128-0.064,0.256-0.17c0.13-0.108,0.257-0.108,0.385-0.108
					c0.385,0,0.598,0.32,0.64,0.3C39.166,24.616,38.91,24.274,38.483,24.274L38.483,24.274z"/>
			</g>
			<g transform="matrix(-1 0 0 1 750.25 0)">
				<path id="e" fill="#85340A" d="M39.252,24.402c-0.49-0.427-1.11-0.49-1.453-0.17c-0.084,0.11-0.137,0.23-0.16,0.356
					c-0.042,0.243,0.034,0.506,0.224,0.776c-0.02,0-0.064,0.02-0.085,0.042c-0.17-0.324-0.23-0.657-0.174-0.974
					c0.013-0.083,0.036-0.164,0.066-0.244c0.47-0.384,1.11-0.427,1.58,0.214H39.252z"/>
			</g>
			<g transform="translate(18.862)">
				<circle id="f" fill="#85340A" cx="38.44" cy="24.615" r="0.192"/>
			</g>
			<g transform="matrix(-1 0 0 1 750.25 0)">
				<path id="g" fill="#85340A" d="M38.995,24.744c-0.362,0.278-0.726,0.256-0.94,0.128c-0.213-0.128-0.213-0.17-0.17-0.17
					c0.042,0,0.085,0.042,0.256,0.127C38.311,24.914,38.568,24.914,38.995,24.744L38.995,24.744z"/>
			</g>
			<path fill="#85340A" d="M37.075,25.384c-0.09,0.017-0.156,0.098-0.156,0.19c0,0.107,0.086,0.19,0.193,0.19
				c0.062,0,0.12-0.028,0.156-0.08c0.073,0.056,0.175,0.062,0.23,0.062c0.008,0,0.02,0,0.025,0c0.055,0,0.157-0.006,0.23-0.062
				c0.037,0.052,0.095,0.08,0.157,0.08c0.106,0,0.194-0.083,0.194-0.19c0-0.092-0.065-0.173-0.156-0.19
				c0.05,0.018,0.084,0.068,0.084,0.122c0,0.07-0.057,0.128-0.128,0.128c-0.068,0-0.124-0.054-0.128-0.122
				c-0.02,0.042-0.103,0.166-0.265,0.172c-0.163-0.006-0.245-0.13-0.266-0.172c-0.004,0.068-0.06,0.122-0.128,0.122
				c-0.072,0-0.13-0.057-0.13-0.128c0-0.054,0.034-0.104,0.085-0.122H37.075z"/>
			<path fill="#85340A" d="M37.284,25.953c-0.214,0-0.298,0.194-0.49,0.322c0.106-0.043,0.19-0.127,0.34-0.213
				c0.15-0.085,0.277,0.02,0.363,0.02H37.5c0.085,0,0.213-0.105,0.362-0.02c0.15,0.086,0.237,0.17,0.344,0.213
				c-0.192-0.128-0.28-0.322-0.494-0.322c-0.043,0-0.127,0.023-0.212,0.066h-0.004C37.411,25.975,37.326,25.952,37.284,25.953
				L37.284,25.953z"/>
			<path fill="#85340A" d="M37.212,26.206c-0.084,0.004-0.196,0.02-0.356,0.07c0.384-0.087,0.47,0.043,0.64,0.043h0.003
				c0.17,0,0.255-0.13,0.64-0.045c-0.427-0.128-0.512-0.044-0.64-0.044h-0.004C37.415,26.23,37.352,26.2,37.212,26.206
				L37.212,26.206z"/>
			<path fill="#85340A" d="M36.875,26.272c-0.025,0-0.052,0-0.08,0.003c0.448,0.043,0.232,0.3,0.702,0.3H37.5
				c0.47,0,0.257-0.257,0.706-0.3c-0.47-0.043-0.32,0.235-0.706,0.235h-0.003C37.137,26.51,37.247,26.267,36.875,26.272z"/>
			<path fill="#85340A" d="M37.885,26.966c0-0.212-0.172-0.385-0.385-0.385c-0.212,0-0.384,0.174-0.384,0.386
				c0.042-0.178,0.2-0.304,0.384-0.304S37.843,26.789,37.885,26.966L37.885,26.966z"/>
			<path id="e_1_" fill="#85340A" d="M35.773,24.402c0.49-0.427,1.11-0.49,1.453-0.17c0.084,0.11,0.137,0.23,0.16,0.356
				c0.042,0.243-0.034,0.506-0.224,0.776c0.02,0,0.064,0.02,0.085,0.042c0.17-0.324,0.23-0.657,0.174-0.974
				c-0.013-0.083-0.036-0.164-0.066-0.244c-0.47-0.384-1.11-0.427-1.58,0.214H35.773z"/>
			<path id="d_1_" fill="#85340A" d="M36.542,24.274c0.278,0,0.342,0.064,0.47,0.17c0.128,0.108,0.192,0.086,0.214,0.108
				c0.02,0.021,0,0.085-0.043,0.064c-0.043-0.022-0.128-0.064-0.256-0.17c-0.13-0.108-0.257-0.108-0.385-0.108
				c-0.385,0-0.598,0.32-0.64,0.3C35.859,24.616,36.115,24.274,36.542,24.274L36.542,24.274z"/>
			<g transform="translate(-19.181)">
				<path id="h_1_" fill="#843511" d="M36.529,24.406c-0.19,0-0.37,0.082-0.478,0.253c0.213,0.19,0.685,0.212,1.005-0.023
					C36.916,24.486,36.718,24.406,36.529,24.406L36.529,24.406z M36.526,24.45c0.185-0.004,0.357,0.08,0.38,0.165
					c-0.213,0.235-0.554,0.215-0.768,0.044C36.232,24.509,36.382,24.451,36.526,24.45L36.526,24.45z"/>
			</g>
			<circle id="f_1_" fill="#85340A" cx="36.554" cy="24.615" r="0.192"/>
			<path id="g_1_" fill="#85340A" d="M36.03,24.744c0.362,0.278,0.726,0.256,0.94,0.128c0.213-0.128,0.213-0.17,0.17-0.17
				c-0.042,0-0.085,0.042-0.256,0.127C36.714,24.914,36.457,24.914,36.03,24.744L36.03,24.744z"/>
		</g>
	</g>
</g>
</svg>
