<?xml version="1.0" encoding="utf-8"?>
<!DOCTYPE svg PUBLIC "-//W3C//DTD SVG 1.1//EN" "http://www.w3.org/Graphics/SVG/1.1/DTD/svg11.dtd">
<svg version="1.1" id="Capa_1" xmlns="http://www.w3.org/2000/svg" xmlns:xlink="http://www.w3.org/1999/xlink" x="0px" y="0px"
	 width="900px" height="600px" viewBox="0 0 900 600" enable-background="new 0 0 900 600" xml:space="preserve">
<g>
	<rect fill="#ED333E" width="900" height="600"/>
</g>
<g>
	<g>
		<polygon fill="#FFFFFF" points="203.044,169.188 230.024,242.681 165.682,196.551 165.572,196.217 165.453,196.551 
			101.058,242.681 128.033,169.188 128.795,168.683 128.382,168.683 62.13,125.302 141.896,125.417 163.768,51.475 188.377,125.302 
			188.249,125.526 188.482,125.417 269.014,125.302 202.582,168.683 202.354,168.683 		"/>
	</g>
</g>
<g>
	<g>
		<g>
			<polygon fill="#FFFFFF" points="380.041,244.15 384.571,228.854 389.613,243.922 385.091,258.083 			"/>
		</g>
		<g>
			<polygon fill="#FFFFFF" points="389.613,243.922 406.093,243.922 392.513,252.808 377.265,252.522 			"/>
		</g>
		<g>
			<polygon fill="#FFFFFF" points="392.578,252.914 398.144,267.915 384.981,258.536 380.164,244.428 			"/>
		</g>
		<g>
			<polygon fill="#FFFFFF" points="380.275,243.922 363.855,243.922 377.375,252.808 392.684,252.522 			"/>
		</g>
		<g>
			<polygon fill="#FFFFFF" points="377.313,252.914 371.805,267.915 384.915,258.536 389.732,244.428 			"/>
		</g>
	</g>
	<g>
		<g>
			<polygon fill="#FFFFFF" points="305.729,319.72 314.546,306.293 315.013,322.131 306.54,334.439 			"/>
		</g>
		<g>
			<polygon fill="#FFFFFF" points="315.013,322.131 330.791,326.582 315.18,331.466 300.627,326.969 			"/>
		</g>
		<g>
			<polygon fill="#FFFFFF" points="315.24,331.527 316.107,347.426 306.31,334.835 305.787,320.001 			"/>
		</g>
		<g>
			<polygon fill="#FFFFFF" points="306.016,319.614 290.236,315.118 300.68,327.304 315.413,331.193 			"/>
		</g>
		<g>
			<polygon fill="#FFFFFF" points="300.564,327.365 290.936,340.29 306.244,334.835 314.951,322.641 			"/>
		</g>
	</g>
	<g>
		<g>
			<polygon fill="#FFFFFF" points="399.538,150.871 412.124,140.585 407.654,155.82 395.763,165.146 			"/>
		</g>
		<g>
			<polygon fill="#FFFFFF" points="407.654,155.876 421.35,164.692 404.989,164.746 392.451,156.264 			"/>
		</g>
		<g>
			<polygon fill="#FFFFFF" points="404.989,164.86 400.985,180.314 395.473,165.423 399.477,151.156 			"/>
		</g>
		<g>
			<polygon fill="#FFFFFF" points="399.886,150.817 386.248,141.94 392.403,156.594 405.283,164.578 			"/>
		</g>
		<g>
			<polygon fill="#FFFFFF" points="392.284,156.594 379.117,166.096 395.421,165.375 407.487,156.325 			"/>
		</g>
	</g>
	<g>
		<g>
			<polygon fill="#FFFFFF" points="353.184,63.155 362.118,49.786 362.404,65.632 353.826,77.879 			"/>
		</g>
		<g>
			<polygon fill="#FFFFFF" points="362.404,65.689 378.131,70.295 362.531,74.963 347.962,70.348 			"/>
		</g>
		<g>
			<polygon fill="#FFFFFF" points="362.531,75.072 363.271,90.967 353.588,78.218 353.24,63.437 			"/>
		</g>
		<g>
			<polygon fill="#FFFFFF" points="353.474,63.049 337.751,58.382 348.019,70.633 362.757,74.681 			"/>
		</g>
		<g>
			<polygon fill="#FFFFFF" points="347.904,70.744 338.151,83.501 353.536,78.218 362.347,66.133 			"/>
		</g>
	</g>
</g>
</svg>
