<?xml version="1.0" encoding="utf-8"?>
<!DOCTYPE svg PUBLIC "-//W3C//DTD SVG 1.1//EN" "http://www.w3.org/Graphics/SVG/1.1/DTD/svg11.dtd">
<svg version="1.1" id="Flag_UK" xmlns="http://www.w3.org/2000/svg" xmlns:xlink="http://www.w3.org/1999/xlink" x="0px" y="0px"
	 width="45px" height="30px" viewBox="0 10 45 30" enable-background="new 0 10 45 30" xml:space="preserve">
<rect y="10" fill="#00247D" width="45" height="30"/>
<polygon fill="#FFFFFF" points="45,10 39.574,10 27.5,18.049 27.5,10 17.5,10 17.5,18.05 5.425,10 0,10 0,13.617 9.575,20 0,20 
	0,30 9.574,30 0,36.383 0,40 5.425,40 17.5,31.95 17.5,40 27.5,40 27.5,31.951 39.574,40 45,40 45,36.383 35.426,30 45,30 45,20 
	35.425,20 45,13.617 "/>
<polygon fill="#CF142B" points="27.5,20 29.999,20 45,10 41.402,10 27.5,19.268 "/>
<polygon fill="#CF142B" points="15.001,20 0,10 0,12.399 11.403,20 "/>
<polygon fill="#CF142B" points="30,30 45,40 45,37.601 33.598,30 "/>
<polygon fill="#CF142B" points="17.5,30 15,30 0,40 3.597,40 17.5,30.731 "/>
<polygon fill="#CF142B" points="45,22 25.5,22 25.5,10 19.5,10 19.5,22 0,22 0,28 19.5,28 19.5,40 25.5,40 25.5,28 45,28 "/>
</svg>
