<?xml version="1.0" encoding="utf-8"?>
<!DOCTYPE svg PUBLIC "-//W3C//DTD SVG 1.1//EN" "http://www.w3.org/Graphics/SVG/1.1/DTD/svg11.dtd">
<svg version="1.1" xmlns="http://www.w3.org/2000/svg" xmlns:xlink="http://www.w3.org/1999/xlink" x="0px" y="0px"
	 width="60px" height="60px" viewBox="0 0 60 60" enable-background="new 0 0 60 60" xml:space="preserve">
<circle opacity="0.5" fill="#FFFFFF" enable-background="new    " cx="30" cy="30" r="28.8"/>
<path fill="#E90101" d="M30,60C13.5,60,0,46.5,0,30S13.5,0,30,0s30,13.5,30,30S46.5,60,30,60z M30,2.3C14.7,2.3,2.3,14.7,2.3,30
	S14.7,57.7,30,57.7S57.7,45.3,57.7,30S45.3,2.3,30,2.3z"/>
<polygon fill="#4C0101" points="44.7,30.3 33.6,19.4 30,15.8 26.4,19.4 15.3,30.3 18.9,34.1 27.401,25.676 27.401,43.604 
	32.449,43.604 32.449,25.527 41.1,34.1 "/>
</svg>
