<?xml version="1.0" encoding="utf-8"?>
<!DOCTYPE svg PUBLIC "-//W3C//DTD SVG 1.1//EN" "http://www.w3.org/Graphics/SVG/1.1/DTD/svg11.dtd">
<svg version="1.1" id="Layer_1" xmlns="http://www.w3.org/2000/svg" xmlns:xlink="http://www.w3.org/1999/xlink" x="0px" y="0px"
	 width="100px" height="100px" viewBox="206 206 100 100" enable-background="new 206 206 100 100" xml:space="preserve">
<path fill="#231F20" d="M279.198,255.999l-48.057-48.057c-1.08,1.078-1.081,2.825-0.004,3.9
	c0.712,0.715,35.463,35.467,44.152,44.156c-8.688,8.688-43.44,43.44-44.152,44.154c-1.077,1.076-1.073,2.822,0.004,3.902
	L279.198,255.999L279.198,255.999z"/>
<path fill="#FFFFFF" d="M281.153,257.952c1.079-1.079,1.081-2.827,0.004-3.903c-0.725-0.723-37.192-37.191-46.109-46.105
	c-1.077-1.08-2.826-1.08-3.906,0l48.058,48.056l-48.058,48.058c1.08,1.079,2.827,1.08,3.902,0.004
	c0.725-0.724,37.193-37.193,46.107-46.108H281.153L281.153,257.952z"/>
</svg>
