<?xml version="1.0" encoding="utf-8"?>
<!DOCTYPE svg PUBLIC "-//W3C//DTD SVG 1.1//EN" "http://www.w3.org/Graphics/SVG/1.1/DTD/svg11.dtd">
<svg version="1.1" id="Layer_1" xmlns="http://www.w3.org/2000/svg" xmlns:xlink="http://www.w3.org/1999/xlink" x="0px" y="0px"
	 width="100px" height="100px" viewBox="206 206 100 100" enable-background="new 206 206 100 100" xml:space="preserve">
<path fill="#231F20" d="M232.802,256.001l48.057,48.057c1.08-1.078,1.081-2.825,0.004-3.9c-0.712-0.715-35.463-35.467-44.153-44.156
	c8.689-8.689,43.441-43.441,44.153-44.154c1.077-1.077,1.073-2.823-0.004-3.902L232.802,256.001L232.802,256.001z"/>
<path fill="#FFFFFF" d="M230.846,254.047c-1.079,1.079-1.081,2.828-0.003,3.904c0.724,0.723,37.192,37.191,46.109,46.105
	c1.077,1.08,2.826,1.08,3.906,0l-48.058-48.056l48.058-48.058c-1.08-1.08-2.827-1.081-3.902-0.004
	c-0.725,0.723-37.193,37.193-46.108,46.108H230.846L230.846,254.047z"/>
</svg>
