<svg xmlns="http://www.w3.org/2000/svg" width="50" height="42.507" viewBox="281 243.858 50 42.507">
  <path fill="#EB1C24" d="M330.56 281.72l-21.937-36.38a3.065 3.065 0 0 0-5.248 0l-21.937 36.38a3.065 3.065 0 0 0 2.623 4.645h43.874a3.063 3.063 0 0 0 2.625-4.645z"/>
  <path fill="#AD1722" d="M306 245.711c.422 0 .819.225 1.037.586l21.937 36.379a1.212 1.212 0 0 1-1.036 1.837h-43.874a1.211 1.211 0 0 1-1.036-1.836l21.937-36.38a1.212 1.212 0 0 1 1.035-.586m0-1.853a3.065 3.065 0 0 0-2.624 1.481l-21.937 36.38a3.065 3.065 0 0 0 2.623 4.645h43.874a3.063 3.063 0 0 0 2.623-4.645l-21.937-36.38a3.062 3.062 0 0 0-2.622-1.481z"/>
  <path fill="#FFF" d="M306.014 253.011c1.416 0 2.613.798 2.613 2.214 0 4.319-.508 10.525-.508 14.844 0 1.125-1.234 1.597-2.105 1.597-1.162 0-2.142-.472-2.142-1.597 0-4.319-.508-10.525-.508-14.844.001-1.415 1.162-2.214 2.65-2.214zM306.05 279.76c-1.597 0-2.795-1.307-2.795-2.794a2.774 2.774 0 0 1 2.795-2.795c1.488 0 2.758 1.271 2.758 2.795.001 1.488-1.27 2.794-2.758 2.794z"/>
</svg>