<?xml version="1.0" encoding="utf-8"?>
<!DOCTYPE svg PUBLIC "-//W3C//DTD SVG 1.1//EN" "http://www.w3.org/Graphics/SVG/1.1/DTD/svg11.dtd">
<svg version="1.1" id="Capa_1" xmlns="http://www.w3.org/2000/svg" xmlns:xlink="http://www.w3.org/1999/xlink" x="0px" y="0px"
	 width="30px" height="30px" viewBox="0 0 30 30" enable-background="new 0 0 30 30" xml:space="preserve">
<g>
	<circle fill="#EB1C24" cx="15" cy="15" r="15"/>
	<path fill="#FFFFFF" d="M15.009,4.079c1.104,0,2.036,0.621,2.036,1.724c0,3.365-0.396,8.198-0.396,11.563
		c0,0.876-0.961,1.243-1.641,1.243c-0.904,0-1.668-0.366-1.668-1.243c0-3.365-0.395-8.198-0.395-11.563
		C12.948,4.7,13.851,4.079,15.009,4.079z M15.039,25.022c-1.308,0-2.289-1.069-2.289-2.286c-0.01-1.254,1-2.279,2.254-2.288
		c0.011,0,0.022,0,0.035,0c1.218,0,2.258,1.039,2.258,2.288C17.297,23.955,16.257,25.022,15.039,25.022z"/>
</g>
</svg>
