<?xml version="1.0" encoding="utf-8"?>
<!-- Generator: Adobe Illustrator 15.0.0, SVG Export Plug-In . SVG Version: 6.00 Build 0)  -->
<!DOCTYPE svg PUBLIC "-//W3C//DTD SVG 1.1//EN" "http://www.w3.org/Graphics/SVG/1.1/DTD/svg11.dtd">
<svg version="1.1" id="Capa_1" xmlns="http://www.w3.org/2000/svg" xmlns:xlink="http://www.w3.org/1999/xlink" x="0px" y="0px"
	 width="131.422px" height="32.551px" viewBox="0 0 131.422 32.551" enable-background="new 0 0 131.422 32.551"
	 xml:space="preserve">
<polygon opacity="0.8" fill="#FF9700" points="13.421,0.013 3.5,0.013 3.5,2.139 1.374,2.139 1.374,23.397 3.5,23.397 3.5,25.524 
	13.421,25.524 13.421,23.397 15.547,23.397 15.547,11.351 9.169,11.351 9.169,14.894 12.004,14.894 12.004,21.98 4.917,21.98 
	4.917,3.556 12.004,3.556 12.004,5.682 15.547,5.682 15.547,2.139 13.421,2.139 "/>
<polygon opacity="0.8" fill="#FF9700" points="57.963,0 57.963,3.543 60.804,3.543 60.804,21.968 57.963,21.968 57.963,25.512 
	67.176,25.512 67.176,21.969 64.342,21.969 64.342,0 "/>
<polygon opacity="0.8" fill="#FF9700" points="85.291,5.682 85.291,9.225 88.132,9.225 88.132,27.649 85.291,27.649 85.291,31.193 
	94.504,31.193 94.504,27.65 91.67,27.65 91.67,5.682 "/>
<polygon opacity="0.8" fill="#FF9700" points="120.771,31.193 116.519,31.193 116.519,29.066 114.393,29.066 114.393,14.894 
	111.558,14.894 111.558,11.351 114.393,11.351 114.393,8.516 117.936,8.516 117.936,11.351 121.479,11.351 121.479,14.894 
	117.936,14.894 117.936,27.649 120.062,27.649 120.062,25.523 123.605,25.523 123.605,29.066 120.771,29.066 "/>
<polygon fill="#ABD809" points="62.209,5.682 62.209,9.225 65.044,9.225 65.044,20.563 67.17,20.563 67.17,29.066 70.005,29.066 
	70.005,31.193 73.548,31.193 73.548,29.066 76.382,29.066 76.382,20.563 78.508,20.563 78.508,9.225 81.343,9.225 81.343,5.682 
	72.839,5.682 72.839,9.225 74.965,9.225 74.965,19.146 72.839,19.146 72.839,27.65 70.713,27.65 70.713,19.146 68.587,19.146 
	68.587,9.225 70.713,9.225 70.713,5.682 "/>
<g>
	<polygon fill="#ABD809" points="45.198,25.524 45.198,21.981 48.033,21.981 48.033,9.226 45.198,9.226 45.198,5.683 51.576,5.683 
		51.576,21.981 54.411,21.981 54.411,25.524 	"/>
	<rect x="48.033" y="0.013" fill="#ABD809" width="3.543" height="3.543"/>
</g>
<g opacity="0.5">
	<g>
		<path fill="#2886AF" d="M33.196,7.809V5.682h-5.67V0.014h-6.378v3.543h2.835V21.98h-2.835v3.544h3.544v-2.126h1.417v2.126h7.087
			v-2.126h2.126V7.809H33.196z M31.778,21.98h-4.252V9.225h4.252V21.98z"/>
	</g>
</g>
<g opacity="0.5">
	<g>
		<path fill="#2886AF" d="M60.797,17.021v-2.127h2.126V7.808h-2.126V5.682H53.71v2.126h-2.126v15.59h2.126v2.127h7.087v-2.127h2.126
			v-3.543H59.38v2.126h-4.252v-4.96H60.797z M55.128,9.225h4.252v4.252h-4.252V9.225z"/>
	</g>
</g>
<g>
	<g>
		<path fill="#ABD809" d="M99.277,13.477v-2.125H92.19v2.125h-2.126v15.591h2.126v2.126h7.087v-2.126h2.126V13.477H99.277z
			 M97.859,27.65h-4.252V14.895h4.252V27.65z"/>
	</g>
</g>
<polygon opacity="0.5" fill="#2886AF" points="100.325,11.352 100.325,14.895 103.164,14.895 103.164,27.649 100.326,27.649 
	100.326,31.193 106.703,31.193 106.703,17.019 110.252,17.019 110.252,14.894 112.377,14.894 112.377,31.188 115.92,31.188 
	115.92,13.473 113.085,13.473 113.085,11.351 108.83,11.351 108.83,13.477 106.708,13.477 106.708,11.351 "/>
<path opacity="0.5" fill="#B933FF" d="M73.309,32.551h-4.678v-2.127h-2.834v-8.503H63.67V10.582h-2.835V5.905h9.638v4.677h-2.126
	v8.788h2.126v8.504h0.991v-8.504h2.126v-8.788h-2.126V5.905h9.639v4.677h-2.835v11.339h-2.126v8.503h-2.834V32.551z M69.766,31.416
	h2.408v-2.127h2.834v-8.503h2.126V9.448h2.835V7.039H72.6v2.409h2.126v11.056H72.6v8.504h-3.261v-8.504h-2.126V9.448h2.126V7.039
	h-7.37v2.409h2.835v11.338h2.126v8.503h2.835V31.416z"/>
<g opacity="0.5">
	<g>
		<path fill="none" stroke="#B933FF" stroke-width="1.1339" stroke-miterlimit="10" d="M24.513,22.771V8.599h-2.126V6.472h-7.086
			v2.127h-2.126v3.543h3.543v-2.126h4.252v4.252h-5.669v2.126h-2.126v7.795h2.126v2.126h7.086v-2.126h1.418v2.126h3.543v-3.544
			H24.513z M20.97,22.771h-4.252v-4.96h4.252V22.771z"/>
	</g>
</g>
<g opacity="0.5">
	<path fill="#B933FF" d="M54.171,26.882H43.825v-4.678h2.835V10.583h-2.835V5.906h7.512v16.298h2.835V26.882z M44.958,25.747h8.079
		v-2.408h-2.835V7.04h-5.244v2.409h2.835v13.89h-2.835V25.747z"/>
	<path fill="#B933FF" d="M51.336,4.913H46.66V0.236h4.677V4.913z M47.793,3.779h2.409V1.37h-2.409V3.779z"/>
</g>
<path opacity="0.5" fill="#B933FF" d="M13.181,26.882H2.126v-2.127H0V2.362h2.126V0.236h11.055v2.126h2.126v4.677H10.63V4.913H4.677
	v17.291h5.953V16.25H7.795v-4.677h7.512v13.181h-2.126V26.882z M3.26,25.747h8.787V23.62h2.126V12.708H8.929v2.409h2.835v8.221
	H3.543V3.779h8.221v2.126h2.409V3.496h-2.126V1.37H3.26v2.126H1.134V23.62H3.26V25.747z"/>
<g opacity="0.5">
	<g>
		<path fill="none" stroke="#B933FF" stroke-width="1.1339" stroke-miterlimit="10" d="M32.39,8.599V6.472h-5.67V0.804h-6.378v3.543
			h2.835v18.424h-2.835v3.544h3.544v-2.126h1.417v2.126h7.087v-2.126h2.126V8.599H32.39z M30.972,22.771H26.72V10.015h4.252V22.771z
			"/>
	</g>
</g>
<g opacity="0.5">
	<g>
		<path fill="none" stroke="#B933FF" stroke-width="1.1339" stroke-miterlimit="10" d="M59.99,17.811v-2.127h2.126V8.598H59.99
			V6.472h-7.087v2.126h-2.126v15.59h2.126v2.127h7.087v-2.127h2.126v-3.543h-3.543v2.126h-4.252v-4.96H59.99z M54.321,10.015h4.252
			v4.252h-4.252V10.015z"/>
	</g>
</g>
<path opacity="0.5" fill="#B933FF" d="M66.937,26.869H56.589V22.19h2.841V4.9h-2.841V0.223h7.513v21.968h2.834V26.869z
	 M57.723,25.734h8.079v-2.408h-2.834V1.357h-5.245v2.409h2.841v19.559h-2.841V25.734z"/>
<path opacity="0.5" fill="#B933FF" d="M39.285,26.882h-4.677V10.581h-2.837V5.904l7.514,0.002v2.125h0.994V5.906h7.51v6.802h-4.676
	l0-2.126H42.12v2.126h-2.835V26.882z M35.742,25.747h2.409V11.574h2.835V9.448h2.694v1.134v-0.567l0.567,0.008
	c0,0.058,0,0.943,0,1.551h2.408V7.04h-5.242v2.125h-3.262V7.04l-5.246-0.002v2.409h2.837V25.747z"/>
<g opacity="0.5">
	<g>
		<path fill="none" stroke="#B933FF" stroke-width="1.1339" stroke-miterlimit="10" d="M98.471,14.267v-2.125h-7.087v2.125h-2.126
			v15.591h2.126v2.126h7.087v-2.126h2.126V14.267H98.471z M97.053,28.44h-4.252V15.685h4.252V28.44z"/>
	</g>
</g>
<path opacity="0.5" fill="#B933FF" d="M94.265,32.551H83.917v-4.679h2.841V10.582h-2.841V5.905h7.514v21.968h2.834V32.551z
	 M85.052,31.416h8.078v-2.408h-2.834V7.039h-5.244v2.409h2.841v19.559h-2.841V31.416z"/>
<path opacity="0.5" fill="#B933FF" d="M106.464,32.551h-7.512v-4.679h2.838V16.251h-2.839v-4.677l7.518-0.001V13.7h0.987v-2.126
	h5.39v2.122h2.835v18.849h-4.678V16.25h-0.99v2.125h-3.549V32.551z M100.087,31.416h5.242V17.241h3.549v-2.125h3.26V31.41h2.408
	V14.83h-2.835v-2.122h-3.12v2.126h-3.257v-2.126l-5.248,0.001v2.409h2.839v13.889h-2.838V31.416z"/>
<path opacity="0.5" fill="#B933FF" d="M120.531,32.551h-5.387v-2.127h-2.126V16.25h-2.835v-4.677h2.835V8.739h4.678v2.835h3.544
	v4.677h-3.544v11.622h0.991v-2.126h4.679v4.678h-2.835V32.551z M116.279,31.416h3.117v-2.127h2.835v-2.408h-2.409v2.126h-3.261
	v-13.89h3.544v-2.409h-3.544V9.873h-2.408v2.835h-2.835v2.409h2.835v14.172h2.126V31.416z"/>
<g opacity="0.5">
	<g>
		<path fill="none" stroke="#B933FF" stroke-width="1.1339" stroke-miterlimit="10" d="M83.397,14.267v-2.125h-7.087v2.125h-2.126
			v15.591h2.126v2.126h7.087v-2.126h2.126V14.267H83.397z M81.979,28.44h-4.252V15.685h4.252V28.44z"/>
	</g>
</g>
<g opacity="0.5">
	<g>
		<path fill="none" stroke="#B933FF" stroke-width="1.1339" stroke-miterlimit="10" d="M128.489,23.479v-2.127h2.126v-7.086h-2.126
			v-2.126h-7.087v2.126h-2.126v15.59h2.126v2.127h7.087v-2.127h2.126v-3.543h-3.543v2.126h-4.252v-4.96H128.489z M122.82,15.684
			h4.252v4.252h-4.252V15.684z"/>
	</g>
</g>
<g>
	<g>
		<path fill="#ABD809" d="M129.296,22.689v-2.127h2.126v-7.086h-2.126v-2.126h-7.087v2.126h-2.126v15.59h2.126v2.127h7.087v-2.127
			h2.126v-3.543h-3.543v2.126h-4.252v-4.96H129.296z M123.627,14.894h4.252v4.252h-4.252V14.894z"/>
	</g>
</g>
<g>
	<g>
		<path fill="#ABD809" d="M25.319,21.98V7.809h-2.126V5.682h-7.086v2.127h-2.126v3.543h3.543V9.226h4.252v4.252h-5.669v2.126h-2.126
			v7.795h2.126v2.126h7.086v-2.126h1.418v2.126h3.543V21.98H25.319z M21.776,21.98h-4.252v-4.96h4.252V21.98z"/>
	</g>
</g>
<polygon opacity="0.8" fill="#FF9700" points="33.145,5.681 33.145,9.224 35.981,9.224 35.981,25.524 39.524,25.524 39.524,11.351 
	42.359,11.351 42.359,9.225 44.486,9.225 44.486,11.351 48.028,11.351 48.028,5.683 41.652,5.683 41.652,7.808 39.524,7.808 
	39.524,5.683 "/>
<g opacity="0.5">
	<g>
		<path fill="#2886AF" d="M84.204,13.477v-2.125h-7.087v2.125h-2.126v15.591h2.126v2.126h7.087v-2.126h2.126V13.477H84.204z
			 M82.786,27.65h-4.252V14.895h4.252V27.65z"/>
	</g>
</g>
</svg>
