<svg xmlns="http://www.w3.org/2000/svg" width="70" height="42" viewBox="0 0 70 42"><style>.a{fill:#aaaaaa;}</style><rect x="5.7" y="17.4" width="5.8" height="4.1" class="a"/><rect x="12.5" y="17.4" width="5.8" height="4.1" class="a"/><rect x="19.2" y="17.4" width="5.8" height="4.1" class="a"/><rect x="5.7" y="24.6" width="5.8" height="4.1" class="a"/><rect x="12.5" y="24.6" width="5.8" height="4.1" class="a"/><rect x="19.2" y="24.6" width="5.8" height="4.1" class="a"/><rect x="25.9" y="24.6" width="5.8" height="4.1" class="a"/><rect x="5.7" y="31.7" width="5.8" height="4.1" class="a"/><rect x="12.5" y="31.7" width="5.8" height="4.1" class="a"/><rect x="19.2" y="31.7" width="5.8" height="4.1" class="a"/><rect x="25.9" y="31.7" width="5.8" height="4.1" class="a"/><path d="M34.9 25v13.6H3.8V14.3h27.1l7.4-7.6C38.1 6 37.5 5.5 36.8 5.5h-7v3.7h-1.9V5.5 4.1 2h-2.9v3.5h-9.6V9.2h-1.9V5.5 4.1 2H10.5v3.5H1.7C0.8 5.5 0 6.3 0 7.3v32.9C0 41.2 0.8 42 1.7 42H36.8c0.9 0 1.7-0.8 1.7-1.8V21.3L34.9 25z" class="a"/><rect x="46.4" y="0.2" transform="matrix(-0.7071 0.7071 -0.7071 -0.7071 84.993 -27.6413)" width="3.6" height="7.1" class="a"/><path d="M30.8 16.1l-2 7.1 7.1-2 12.6-12.6 -5-5L30.8 16.1zM30 22L31.3 17.3l3.4 3.4L30 22z" class="a"/></svg>