<svg xmlns="http://www.w3.org/2000/svg" width="50" height="50" viewBox="0 0 50 50"><style>.a{fill:#C2C2C2;}</style><circle cx="25" cy="25" r="6" class="a"/><path d="M34.7 25c0 5.3-4.3 9.7-9.7 9.7s-9.7-4.3-9.7-9.7c0-0.8 0.1-1.6 0.3-2.4h-2.7v13.2c0 0.7 0.6 1.3 1.3 1.3h21.6c0.7 0 1.3-0.6 1.3-1.3V22.6h-2.7C34.6 23.4 34.7 24.2 34.7 25z" class="a"/><path d="M35.9 12.8h-3.6c-0.7 0-1.3 0.6-1.3 1.3v3.6c0 0.7 0.6 1.3 1.3 1.3h3.6c0.7 0 1.3-0.6 1.3-1.3v-3.6C37.1 13.4 36.6 12.8 35.9 12.8z" class="a"/><path d="M25 0C11.2 0 0 11.2 0 25s11.2 25 25 25 25-11.2 25-25S38.8 0 25 0zM40.7 37.3c0 1.9-1.5 3.5-3.5 3.5H12.7c-1.9 0-3.5-1.5-3.5-3.5V12.7c0-1.9 1.5-3.5 3.5-3.5h24.5c1.9 0 3.5 1.5 3.5 3.5V37.3z" class="a"/></svg>