<?xml version="1.0" encoding="utf-8"?>

<!DOCTYPE svg PUBLIC "-//W3C//DTD SVG 1.1//EN" "http://www.w3.org/Graphics/SVG/1.1/DTD/svg11.dtd">
<svg version="1.1" id="Layer_1" xmlns="http://www.w3.org/2000/svg" xmlns:xlink="http://www.w3.org/1999/xlink" x="0px" y="0px"
	 width="595.279px" height="841.891px" viewBox="0 0 595.279 841.891" enable-background="new 0 0 595.279 841.891"
	 xml:space="preserve">
<g>
	<g>
		<path d="M594.941,343.042l-36.69-151.961c-6.189-24.867-28.408-42.235-54.033-42.235H92.577c-25.37,0-47.535,17.154-53.921,41.8
			L0.367,342.932C0.124,343.9,0,344.895,0,345.893c0,28.569,14.463,53.817,36.445,68.826v222.971
			c0,30.522,24.831,55.354,55.352,55.354h411.691c30.519,0,55.347-24.832,55.347-55.354V414.666
			c21.985-15.017,36.444-40.238,36.444-68.773C595.28,344.933,595.166,343.975,594.941,343.042z M504.218,173.144
			c14.443,0,26.967,9.79,30.436,23.723l33.048,136.879h-116.37l-21.088-160.602H504.218z M309.788,173.144h95.948l21.089,160.601
			H309.788V173.144z M427.248,358.042c-5.67,26.72-29.641,46.844-58.277,46.844c-28.457,0-52.281-20.125-57.915-46.844H427.248z
			 M188.086,173.144h97.405v160.601H168.18L188.086,173.144z M284.22,358.042c-5.652,26.72-29.547,46.844-58.089,46.844
			c-28.633,0-52.604-20.125-58.274-46.844H284.22z M62.199,196.656c3.588-13.845,16.08-23.512,30.38-23.512h71.025l-19.907,160.601
			H27.731L62.199,196.656z M25.572,358.042H141.02c-5.617,26.72-29.364,46.844-57.73,46.844
			C54.926,404.887,31.19,384.76,25.572,358.042z M534.537,637.691c0,17.124-13.929,31.057-31.052,31.057H91.797
			c-17.123-0.001-31.054-13.934-31.054-31.057V426.058c7.176,2.021,14.731,3.126,22.546,3.126c30.116,0,56.552-16.068,71.184-40.079
			c14.729,24.013,41.341,40.079,71.658,40.079c30.25,0,56.8-16.068,71.496-40.079c14.664,24.013,41.159,40.079,71.345,40.079
			c30.32,0,56.933-16.068,71.661-40.079c14.631,24.013,41.065,40.079,71.184,40.079c7.876,0,15.492-1.117,22.721-3.162V637.691z
			 M511.817,404.887c-28.365,0-52.114-20.125-57.73-46.844h115.619C564.073,384.761,540.264,404.887,511.817,404.887z"/>
	</g>
</g>
</svg>
