<svg xmlns="http://www.w3.org/2000/svg" width="50" height="50" viewBox="1225 495 50 50">
  <path fill="#010101" d="M1247.808 514.008c-.47-.16-.79-.38-1.184-.805-.823-.892-.87-1.158-.87-5.12 0-3.82.06-4.18.827-5.077 1.076-1.257 3.565-1.22 4.628.07.705.855.762 1.236.762 5.064 0 3.028-.025 3.534-.21 4.064-.284.812-1.118 1.597-1.966 1.85-.798.236-1.192.228-1.986-.046zm1.46-1.836c.48-.185.532-.587.532-4.02 0-2.19-.044-3.38-.132-3.575-.296-.65-1.313-.65-1.61 0-.09.194-.134 1.384-.134 3.575 0 3.83.05 4.052.9 4.083.14.005.34-.023.444-.063zm5.21 1.772c-.17-.092-.406-.367-.527-.61-.204-.413-.223-.834-.255-5.81l-.035-5.364h2.24v4.91c0 4.203.023 4.932.173 5.056.26.215.683.058 1.16-.434l.425-.438v-9.094h2.228v11.843h-2.228v-1.192l-.558.495c-.306.272-.726.567-.934.655-.483.206-1.294.198-1.69-.016zm-13.59-3.195l-.002-3.255-1.45-4.632-1.45-4.632 1.178-.032c.69-.02 1.208.014 1.25.082.04.063.414 1.41.83 2.994.42 1.583.787 2.878.82 2.878.032 0 .34-1.068.682-2.375.343-1.306.703-2.65.8-2.99l.173-.615h1.235c1.007 0 1.225.03 1.173.163-.033.09-.7 2.2-1.48 4.686l-1.415 4.523v6.46h-2.345v-3.254z"/>
  <path fill="#D02726" d="M1242.214 541.76c-5.73-.19-7.28-.6-8.335-2.19-.428-.644-.906-2.083-1.058-3.183-.534-3.854-.403-11.89.24-14.66.58-2.508 1.95-3.737 4.447-3.993 2.453-.25 8.846-.388 15.067-.322 6.714.07 9.875.215 11.02.5 2.236.56 3.322 2.208 3.7 5.62.072.645.16 2.896.196 5.004.145 8.504-.496 11.21-2.935 12.405-.92.452-1.523.557-4.125.712-2.828.167-14.363.237-18.22.11zm2.817-4.637c.198-.103.592-.398.874-.658l.514-.475v1.203h2.228v-11.728h-2.228v8.942l-.512.512c-.55.55-.77.618-1.062.33-.16-.163-.185-.78-.185-4.984v-4.8h-2.23v5.08c0 5.603.046 6.046.677 6.516.4.298 1.404.33 1.924.06zm10.726-.037c.203-.124.486-.473.644-.79.275-.56.28-.637.32-4.437.042-4.168-.026-4.92-.515-5.765-.272-.47-.92-.865-1.42-.865-.48 0-1.17.323-1.693.796l-.575.516v-5.063h-2.11v15.713h2.11v-1.083l.48.435c.266.238.648.508.85.596.545.237 1.474.21 1.91-.054zm-2.8-1.914l-.44-.254v-7.19l.522-.276c.423-.225.582-.254.85-.16.578.2.642.65.602 4.313 0 0 .045 3-.255 3.39-.302.383-.714.507-1.278.177zm9.88 1.892c1.133-.514 1.645-1.383 1.732-2.95l.06-1.025h-2.26v.695c0 .852-.134 1.224-.528 1.48-.443.293-.995.107-1.26-.42-.162-.32-.206-.708-.206-1.786v-1.38h4.222v-1.72c0-2.168-.17-2.858-.9-3.673-.647-.718-1.34-1.003-2.384-.983-.866.017-1.446.23-2.056.766-.993.873-1.145 1.65-1.085 5.61.04 2.572.082 3.2.25 3.643.283.755.8 1.33 1.507 1.683.797.396 2.105.424 2.91.058zm-2.462-8.025c0-1.46.373-1.956 1.315-1.75.472.104.677.633.677 1.75v.883h-1.993v-.884zm-20.17 1.41v-6.743h2.58v-2.228h-7.388v2.227h2.462v13.486h2.345v-6.744z"/>
</svg>
