<svg xmlns="http://www.w3.org/2000/svg" width="1481.972" height="1481.97" viewBox="0 0 1481.972 1481.97">
  <path fill-rule="evenodd" clip-rule="evenodd" fill="#79B542" d="M740.985 0C331.75 0 0 331.75 0 740.985s331.75 740.985 740.985 740.985c409.236 0 740.986-331.75 740.986-740.985S1150.223 0 740.986 0zm338.527 1066.8c-11.655 19.604-36.384 27.486-57.527 18.15-4.247-1.874-8.224-4.392-12.233-6.77-78.418-46.485-163.04-75.275-252.99-89.05-55.195-8.452-110.7-11.384-166.433-9.193-72.097 2.835-143.287 12.837-213.72 28.43-7.114 1.576-14.434 3.007-21.673 3.085-21.807.236-40.216-15.23-44.044-36.203-4.053-22.208 6.948-43.022 27.316-51.21 4.298-1.73 8.887-2.834 13.426-3.854 57.612-12.934 115.765-22.715 174.604-27.692 32.845-2.778 65.833-3.868 98.756-5.72 97.426 1.027 192.732 14.195 285.227 45.39 51.02 17.204 99.74 39.464 146.012 67.028 4.005 2.385 8.072 4.737 11.773 7.55 18.67 14.182 23.52 39.846 11.504 60.058zm90.653-201.593c-16.368 26.897-50.402 35.262-78.694 19.306-15.96-9.002-31.734-18.386-48.05-26.702-74.793-38.122-154.096-62.835-236.386-78.41-63.358-11.994-127.31-17.855-195.27-18.143-84.636.354-171.333 10.846-256.015 35.978-13.8 4.095-27.647 4.37-41.167-1.106-22.002-8.914-36.317-30.963-35.54-54.293.808-24.337 15.647-45.532 39.11-52.695 23.873-7.29 48.105-13.61 72.477-19.02 59.996-13.325 120.802-20.372 182.243-22.704 132.18-5.017 261.305 12.082 387.274 52.457 63.697 20.415 124.63 47.146 182.186 81.375 2.864 1.703 5.707 3.443 8.55 5.18 30.013 18.336 33.597 55.254 19.282 78.777zm8.757-209.6c-31.956-18.08-64.662-34.467-98.734-48.127-67.69-27.137-137.842-45.4-209.545-58.048-49.91-8.804-100.196-14.633-150.758-17.67-52.57-3.157-105.177-3.53-157.826-.804-60.324 3.122-120.174 9.746-179.23 22.503-21.794 4.708-43.332 10.643-64.884 16.4-13.217 3.533-26.24 3.983-39.406.132-28.814-8.43-48.677-34.247-49.53-64.478-.83-29.365 17.286-56.664 45.753-66.047 20.84-6.87 42.23-12.27 63.628-17.216 52.977-12.245 106.692-19.813 160.84-24.757 57.49-5.248 115.087-6.938 172.723-5.288 141.994 4.065 281.226 24.83 415.97 71.348 54.94 18.967 107.817 42.51 158.075 71.833 17.918 10.455 29.946 25.188 34.524 45.567 1.087 4.84 1.35 9.865 1.99 14.805-.218 53.653-56.474 86.507-103.59 59.85z"/>
</svg>
